<?xml version="1.0" encoding="UTF-8" standalone="no"?>
<svg
   xmlns:dc="http://purl.org/dc/elements/1.1/"
   xmlns:cc="http://creativecommons.org/ns#"
   xmlns:rdf="http://www.w3.org/1999/02/22-rdf-syntax-ns#"
   xmlns:svg="http://www.w3.org/2000/svg"
   xmlns="http://www.w3.org/2000/svg"
   viewBox="0 0 933.33331 666.66669"
   height="666.66669"
   width="933.33331"
   xml:space="preserve"
   id="svg2"
   version="1.1"><metadata
     id="metadata8"><rdf:RDF><cc:Work
         rdf:about=""><dc:format>image/svg+xml</dc:format><dc:type
           rdf:resource="http://purl.org/dc/dcmitype/StillImage" /></cc:Work></rdf:RDF></metadata><defs
     id="defs6"><clipPath
       id="clipPath20"
       clipPathUnits="userSpaceOnUse"><path
         id="path18"
         d="M 0,500 H 700 V 0 H 0 Z" /></clipPath><clipPath
       id="clipPath32"
       clipPathUnits="userSpaceOnUse"><path
         id="path30"
         d="M 0,500 H 700 V 0 H 0 Z" /></clipPath><clipPath
       id="clipPath124"
       clipPathUnits="userSpaceOnUse"><path
         id="path122"
         d="M 0,500 H 700 V 0 H 0 Z" /></clipPath><clipPath
       id="clipPath232"
       clipPathUnits="userSpaceOnUse"><path
         id="path230"
         d="M 0,500 H 700 V 0 H 0 Z" /></clipPath><clipPath
       id="clipPath324"
       clipPathUnits="userSpaceOnUse"><path
         id="path322"
         d="M 0,500 H 700 V 0 H 0 Z" /></clipPath><clipPath
       id="clipPath356"
       clipPathUnits="userSpaceOnUse"><path
         id="path354"
         d="M 0,500 H 700 V 0 H 0 Z" /></clipPath></defs><g
     transform="matrix(1.3333333,0,0,-1.3333333,0,666.66667)"
     id="g10"><path
       id="path12"
       style="fill:#44415a;fill-opacity:1;fill-rule:nonzero;stroke:none"
       d="M 0,0 H 699.999 V 500 H 0 Z" /><g
       id="g14"><g
         clip-path="url(#clipPath20)"
         id="g16"><g
           transform="translate(334.1802,415.9272)"
           id="g22"><path
             id="path24"
             style="fill:#ffffff;fill-opacity:1;fill-rule:nonzero;stroke:none"
             d="m 0,0 c -0.663,0.01 -1.326,0.017 -1.986,0.021 l 0.007,1.5 C -1.312,1.517 -0.646,1.51 0.023,1.5 Z m -6.952,-0.019 -0.031,1.5 c 0.665,0.014 1.332,0.024 2.002,0.031 l 0.015,-1.5 C -5.63,0.005 -6.293,-0.005 -6.952,-0.019 M 4.966,-0.139 C 4.301,-0.111 3.64,-0.088 2.98,-0.068 L 3.025,1.431 C 3.69,1.411 4.357,1.388 5.026,1.36 Z m -16.882,-0.047 -0.07,1.498 c 0.664,0.032 1.331,0.06 2,0.084 l 0.054,-1.5 c -0.665,-0.023 -1.326,-0.051 -1.984,-0.082 M 9.927,-0.404 C 9.265,-0.36 8.603,-0.32 7.943,-0.283 L 8.027,1.215 C 8.692,1.177 9.358,1.137 10.026,1.093 Z m -26.8,-0.079 -0.109,1.496 c 0.662,0.048 1.328,0.094 1.997,0.136 l 0.094,-1.497 c -0.664,-0.042 -1.324,-0.087 -1.982,-0.135 m 31.75,-0.311 c -0.66,0.061 -1.32,0.117 -1.979,0.171 L 13.02,0.872 C 13.684,0.818 14.348,0.761 15.014,0.7 Z m -36.697,-0.121 -0.15,1.493 c 0.661,0.067 1.325,0.13 1.993,0.19 l 0.135,-1.494 c -0.663,-0.06 -1.322,-0.123 -1.978,-0.189 M 19.818,-1.31 c -0.66,0.078 -1.318,0.151 -1.974,0.222 l 0.158,1.491 c 0.662,-0.07 1.326,-0.145 1.99,-0.222 z m -46.57,-0.171 -0.193,1.487 c 0.659,0.085 1.321,0.167 1.987,0.246 l 0.177,-1.489 c -0.661,-0.079 -1.318,-0.16 -1.971,-0.244 m 51.495,-0.468 c -0.657,0.094 -1.312,0.184 -1.968,0.271 l 0.198,1.487 c 0.659,-0.087 1.32,-0.179 1.983,-0.273 z m -56.408,-0.241 -0.236,1.481 c 0.655,0.105 1.316,0.206 1.98,0.304 l 0.219,-1.485 c -0.659,-0.097 -1.313,-0.197 -1.963,-0.3 m 61.316,-0.524 c -0.654,0.11 -1.308,0.217 -1.961,0.321 l 0.235,1.481 c 0.658,-0.104 1.316,-0.212 1.976,-0.323 z m -66.206,-0.331 -0.28,1.474 c 0.651,0.124 1.308,0.245 1.97,0.363 l 0.262,-1.477 c -0.655,-0.117 -1.306,-0.237 -1.952,-0.36 m 71.093,-0.559 c -0.651,0.127 -1.302,0.251 -1.952,0.372 l 0.273,1.474 c 0.655,-0.12 1.311,-0.245 1.966,-0.373 z m -75.951,-0.448 -0.328,1.464 c 0.647,0.145 1.3,0.287 1.958,0.426 l 0.31,-1.467 c -0.652,-0.138 -1.298,-0.279 -1.94,-0.423 m 80.812,-0.566 c -0.647,0.144 -1.294,0.284 -1.941,0.421 l 0.311,1.468 c 0.651,-0.138 1.303,-0.279 1.957,-0.425 z m -85.631,-0.603 -0.38,1.451 c 0.641,0.168 1.29,0.332 1.944,0.494 l 0.358,-1.457 c -0.647,-0.16 -1.288,-0.322 -1.922,-0.488 m 90.465,-0.536 c -0.643,0.16 -1.287,0.317 -1.929,0.47 l 0.347,1.459 c 0.649,-0.154 1.296,-0.312 1.946,-0.474 z m -95.238,-0.807 -0.434,1.436 c 0.634,0.192 1.276,0.38 1.925,0.566 l 0.411,-1.443 c -0.641,-0.183 -1.275,-0.369 -1.902,-0.559 M 49.036,-7.023 c -0.64,0.177 -1.278,0.351 -1.918,0.521 l 0.387,1.449 c 0.643,-0.171 1.288,-0.346 1.932,-0.525 z m -104.752,-1.072 -0.494,1.416 c 0.625,0.218 1.259,0.433 1.901,0.645 l 0.47,-1.425 c -0.634,-0.209 -1.26,-0.421 -1.877,-0.636 M 53.803,-8.414 c -0.634,0.194 -1.269,0.385 -1.903,0.572 l 0.424,1.438 c 0.64,-0.188 1.279,-0.38 1.918,-0.575 z m -114.153,-1.42 -0.562,1.391 c 0.614,0.248 1.238,0.492 1.872,0.734 l 0.533,-1.403 c -0.624,-0.237 -1.238,-0.478 -1.843,-0.722 M 58.53,-9.931 c -0.628,0.211 -1.257,0.418 -1.886,0.622 l 0.462,1.427 c 0.634,-0.205 1.269,-0.414 1.903,-0.627 z m 4.686,-1.642 c -0.622,0.228 -1.245,0.452 -1.869,0.672 l 0.5,1.414 c 0.628,-0.222 1.257,-0.448 1.884,-0.677 z m -128.1,-0.236 -0.636,1.358 0.76,0.352 c 0.353,0.162 0.71,0.323 1.071,0.482 l 0.605,-1.372 c -0.354,-0.157 -0.705,-0.314 -1.051,-0.473 z m 132.74,-1.532 c -0.617,0.245 -1.233,0.486 -1.849,0.722 l 0.537,1.401 c 0.622,-0.239 1.244,-0.482 1.865,-0.728 z m -137.171,-0.677 -0.702,1.326 c 0.593,0.314 1.188,0.621 1.785,0.922 l 0.676,-1.338 c -0.589,-0.298 -1.174,-0.6 -1.759,-0.91 m 141.761,-1.216 c -0.61,0.261 -1.22,0.519 -1.83,0.773 l 0.576,1.384 c 0.616,-0.256 1.23,-0.515 1.844,-0.778 z m -146.081,-1.202 -0.762,1.292 c 0.577,0.341 1.157,0.676 1.738,1.005 l 0.739,-1.306 c -0.573,-0.324 -1.145,-0.654 -1.715,-0.991 m 150.616,-0.817 c -0.601,0.278 -1.205,0.552 -1.807,0.822 l 0.613,1.369 c 0.609,-0.272 1.216,-0.549 1.823,-0.829 z m -154.821,-1.797 -0.821,1.256 c 0.562,0.367 1.125,0.728 1.691,1.083 l 0.798,-1.27 c -0.558,-0.351 -1.115,-0.707 -1.668,-1.069 m 159.299,-0.346 c -0.594,0.294 -1.188,0.585 -1.783,0.872 l 0.65,1.352 c 0.601,-0.29 1.201,-0.583 1.799,-0.88 z m 4.417,-2.265 c -0.585,0.31 -1.172,0.618 -1.759,0.921 l 0.688,1.333 c 0.592,-0.306 1.183,-0.616 1.774,-0.929 z m -167.803,-0.187 -0.874,1.219 c 0.545,0.39 1.092,0.775 1.642,1.155 l 0.853,-1.233 c -0.543,-0.375 -1.083,-0.755 -1.621,-1.141 M 90.228,-24.05 c -0.577,0.327 -1.155,0.651 -1.733,0.97 l 0.725,1.313 c 0.584,-0.322 1.166,-0.648 1.748,-0.978 z m -176.117,-0.771 -0.926,1.181 c 0.528,0.413 1.058,0.822 1.59,1.225 l 0.906,-1.196 c -0.526,-0.398 -1.049,-0.801 -1.57,-1.21 m 180.4,-1.739 c -0.569,0.344 -1.137,0.684 -1.705,1.019 l 0.761,1.292 c 0.575,-0.338 1.147,-0.681 1.719,-1.026 z m -184.235,-1.398 -0.974,1.14 c 0.51,0.435 1.022,0.865 1.537,1.29 l 0.955,-1.156 c -0.508,-0.42 -1.015,-0.845 -1.518,-1.274 m 188.446,-1.231 c -0.559,0.359 -1.118,0.714 -1.677,1.066 l 0.799,1.27 c 0.563,-0.354 1.126,-0.712 1.688,-1.074 z m -192.148,-2.062 -1.019,1.099 c 0.491,0.456 0.985,0.906 1.483,1.353 l 1.001,-1.118 c -0.491,-0.44 -0.979,-0.885 -1.465,-1.334 m 196.281,-0.684 c -0.546,0.374 -1.094,0.745 -1.644,1.112 l 0.834,1.247 c 0.554,-0.37 1.107,-0.744 1.658,-1.122 z m -199.848,-2.757 -1.062,1.058 c 0.472,0.475 0.948,0.945 1.427,1.41 l 1.045,-1.075 c -0.473,-0.46 -0.942,-0.925 -1.41,-1.393 m 203.903,-0.106 c -0.536,0.39 -1.073,0.776 -1.612,1.158 l 0.869,1.223 c 0.543,-0.386 1.086,-0.775 1.626,-1.168 z m 3.972,-2.977 c -0.526,0.405 -1.052,0.806 -1.579,1.204 l 0.904,1.197 c 0.531,-0.4 1.062,-0.805 1.591,-1.213 z m -211.3,-0.498 -1.105,1.015 c 0.454,0.493 0.91,0.982 1.37,1.466 l 1.088,-1.032 c -0.454,-0.479 -0.906,-0.962 -1.353,-1.449 m 215.188,-2.588 c -0.514,0.42 -1.028,0.835 -1.544,1.248 l 0.935,1.172 c 0.522,-0.416 1.04,-0.835 1.558,-1.259 z m -218.471,-1.126 -1.143,0.971 c 0.434,0.511 0.871,1.017 1.311,1.519 l 1.128,-0.989 c -0.435,-0.496 -0.867,-0.997 -1.296,-1.501 m 222.27,-2.069 c -0.502,0.433 -1.005,0.864 -1.509,1.29 l 0.968,1.146 c 0.509,-0.43 1.016,-0.864 1.522,-1.301 z m -225.403,-1.771 -1.181,0.926 c 0.413,0.527 0.829,1.05 1.25,1.569 l 1.165,-0.944 c -0.415,-0.513 -0.826,-1.03 -1.234,-1.551 m 229.11,-1.529 c -0.489,0.448 -0.979,0.892 -1.471,1.333 l 1,1.117 c 0.496,-0.444 0.991,-0.892 1.485,-1.344 z m -232.092,-2.43 -1.216,0.879 c 0.393,0.543 0.789,1.081 1.189,1.616 l 1.201,-0.898 c -0.395,-0.528 -0.786,-1.061 -1.174,-1.597 m 235.709,-0.972 c -0.478,0.462 -0.956,0.919 -1.436,1.373 l 1.031,1.09 c 0.484,-0.458 0.966,-0.919 1.448,-1.385 z m -238.534,-3.101 -1.249,0.831 c 0.371,0.558 0.746,1.111 1.125,1.662 l 1.235,-0.851 c -0.374,-0.543 -0.744,-1.091 -1.111,-1.642 m 242.055,-0.399 c -0.466,0.474 -0.932,0.945 -1.398,1.412 l 1.06,1.061 c 0.471,-0.47 0.941,-0.945 1.408,-1.423 z m 3.421,-3.594 c -0.451,0.487 -0.903,0.97 -1.358,1.449 l 1.089,1.031 c 0.457,-0.483 0.913,-0.97 1.369,-1.461 z m -248.14,-0.186 -1.28,0.781 c 0.349,0.572 0.702,1.14 1.059,1.705 l 1.267,-0.802 c -0.352,-0.558 -0.701,-1.119 -1.046,-1.684 m 251.466,-3.5 c -0.437,0.499 -0.878,0.994 -1.318,1.486 l 1.117,1.001 c 0.444,-0.496 0.887,-0.995 1.328,-1.497 z m -253.967,-0.788 -1.311,0.731 c 0.327,0.587 0.659,1.17 0.995,1.751 l 1.298,-0.751 c -0.331,-0.574 -0.659,-1.151 -0.982,-1.731 m 257.193,-2.986 c -0.424,0.511 -0.85,1.017 -1.278,1.52 l 1.143,0.972 c 0.432,-0.507 0.861,-1.018 1.289,-1.533 z m -259.53,-1.404 -1.337,0.679 c 0.304,0.599 0.612,1.195 0.924,1.788 l 1.327,-0.699 c -0.308,-0.586 -0.613,-1.176 -0.914,-1.768 m 262.657,-2.453 c -0.411,0.521 -0.825,1.039 -1.239,1.553 l 1.168,0.941 c 0.418,-0.518 0.833,-1.039 1.248,-1.565 z m -264.817,-2.026 -1.364,0.625 c 0.28,0.611 0.564,1.219 0.854,1.824 l 1.353,-0.646 c -0.285,-0.598 -0.566,-1.199 -0.843,-1.803 m 267.843,-1.911 c -0.397,0.531 -0.798,1.06 -1.198,1.585 l 1.191,0.91 c 0.404,-0.529 0.807,-1.06 1.208,-1.596 z m -269.82,-2.644 -1.387,0.57 c 0.254,0.619 0.513,1.236 0.776,1.849 l 1.379,-0.591 c -0.26,-0.606 -0.516,-1.216 -0.768,-1.828 m 272.745,-1.368 c -0.385,0.541 -0.771,1.079 -1.158,1.614 l 1.214,0.88 c 0.39,-0.539 0.78,-1.081 1.166,-1.626 z m -274.535,-3.252 -1.409,0.514 c 0.229,0.629 0.463,1.255 0.702,1.879 l 1.401,-0.536 c -0.236,-0.616 -0.467,-1.236 -0.694,-1.857 m 277.36,-0.834 c -0.371,0.551 -0.743,1.099 -1.118,1.642 l 1.236,0.851 c 0.377,-0.549 0.753,-1.1 1.126,-1.656 z m -278.962,-3.856 -1.429,0.457 c 0.204,0.638 0.413,1.273 0.625,1.906 l 1.422,-0.479 c -0.211,-0.626 -0.417,-1.253 -0.618,-1.884 m 281.685,-0.297 c -0.358,0.559 -0.717,1.115 -1.077,1.669 l 1.255,0.819 c 0.365,-0.557 0.726,-1.118 1.085,-1.682 z m 2.593,-4.226 c -0.335,0.568 -0.674,1.135 -1.019,1.701 l 1.281,0.78 c 0.349,-0.571 0.693,-1.145 1.031,-1.719 z m -285.689,-0.225 -1.447,0.398 c 0.178,0.646 0.361,1.289 0.549,1.93 l 1.439,-0.421 c -0.186,-0.634 -0.366,-1.269 -0.541,-1.907 m 288.13,-4.09 c -0.314,0.58 -0.633,1.158 -0.957,1.736 l 1.308,0.734 c 0.329,-0.584 0.652,-1.17 0.969,-1.757 z m -289.347,-0.713 -1.461,0.339 c 0.152,0.652 0.307,1.303 0.469,1.951 l 1.456,-0.363 c -0.16,-0.64 -0.314,-1.282 -0.464,-1.927 m 291.633,-3.7 c -0.294,0.593 -0.593,1.186 -0.896,1.777 l 1.334,0.684 c 0.307,-0.597 0.608,-1.195 0.906,-1.794 z m -292.651,-1.148 -1.474,0.278 c 0.124,0.659 0.253,1.315 0.388,1.969 l 1.469,-0.303 c -0.133,-0.646 -0.26,-1.294 -0.383,-1.944 m 294.773,-3.343 c -0.27,0.603 -0.547,1.205 -0.828,1.806 l 1.357,0.637 c 0.286,-0.609 0.566,-1.218 0.84,-1.829 z m -295.591,-1.542 -1.484,0.217 c 0.097,0.663 0.199,1.324 0.307,1.983 l 1.48,-0.242 c -0.106,-0.652 -0.207,-1.304 -0.303,-1.958 m 297.545,-3.025 c -0.25,0.614 -0.504,1.225 -0.762,1.837 l 1.381,0.584 c 0.262,-0.617 0.518,-1.236 0.77,-1.856 z m -298.16,-1.891 -1.492,0.156 c 0.069,0.666 0.144,1.331 0.224,1.994 l 1.49,-0.181 c -0.08,-0.655 -0.154,-1.311 -0.222,-1.969 m 299.943,-2.742 c -0.225,0.621 -0.456,1.242 -0.692,1.862 l 1.402,0.533 c 0.239,-0.627 0.473,-1.255 0.701,-1.883 z m -300.354,-2.194 -1.497,0.094 c 0.042,0.668 0.089,1.336 0.141,2.001 l 1.496,-0.118 c -0.052,-0.657 -0.099,-1.316 -0.14,-1.977 m 301.962,-2.502 c -0.202,0.629 -0.41,1.258 -0.622,1.885 l 1.42,0.481 c 0.215,-0.635 0.425,-1.271 0.63,-1.908 z m -302.168,-2.448 -1.5,0.033 c 0.015,0.67 0.035,1.338 0.059,2.005 l 1.499,-0.057 c -0.024,-0.658 -0.044,-1.318 -0.058,-1.981 m 303.601,-2.305 c -0.178,0.637 -0.363,1.272 -0.552,1.907 l 1.437,0.429 c 0.192,-0.643 0.378,-1.286 0.559,-1.93 z m -305.103,-2.679 c -0.014,0.671 -0.022,1.34 -0.024,2.007 l 1.5,0.006 c 0.002,-0.659 0.01,-1.32 0.024,-1.982 z m 306.36,-2.123 c -0.156,0.643 -0.317,1.286 -0.482,1.927 l 1.453,0.374 c 0.167,-0.648 0.328,-1.297 0.486,-1.946 z m -306.155,-2.891 c -0.041,0.67 -0.076,1.338 -0.106,2.005 l 1.498,0.067 c 0.03,-0.658 0.065,-1.318 0.106,-1.979 z m 307.231,-1.95 c -0.13,0.647 -0.267,1.294 -0.409,1.941 l 1.465,0.321 c 0.144,-0.654 0.282,-1.309 0.415,-1.965 z m -306.821,-3.05 c -0.069,0.667 -0.132,1.333 -0.188,1.998 l 1.494,0.128 c 0.056,-0.656 0.118,-1.315 0.186,-1.974 z m 307.723,-1.831 c -0.109,0.653 -0.221,1.305 -0.339,1.957 l 1.476,0.267 c 0.119,-0.659 0.233,-1.318 0.343,-1.977 z m -307.112,-3.149 c -0.095,0.665 -0.185,1.328 -0.269,1.99 l 1.489,0.188 c 0.083,-0.653 0.171,-1.308 0.265,-1.965 z m 307.836,-1.758 c -0.084,0.655 -0.173,1.311 -0.267,1.966 l 1.484,0.214 c 0.096,-0.663 0.186,-1.325 0.272,-1.988 z m -307.025,-3.193 c -0.121,0.659 -0.237,1.318 -0.348,1.975 l 1.48,0.249 c 0.109,-0.65 0.223,-1.301 0.344,-1.953 z m 307.576,-1.737 c -0.061,0.658 -0.128,1.316 -0.199,1.974 l 1.492,0.161 c 0.071,-0.665 0.138,-1.33 0.201,-1.995 z m -306.571,-3.179 c -0.147,0.655 -0.289,1.309 -0.424,1.962 l 1.468,0.305 c 0.134,-0.645 0.274,-1.291 0.42,-1.938 z m 306.945,-1.768 c -0.038,0.66 -0.081,1.321 -0.129,1.981 l 1.496,0.108 c 0.048,-0.667 0.091,-1.334 0.131,-2.001 z m -305.749,-3.104 c -0.173,0.649 -0.34,1.297 -0.501,1.944 l 1.456,0.362 c 0.159,-0.639 0.324,-1.279 0.494,-1.92 z m 305.954,-1.851 c -0.015,0.66 -0.036,1.321 -0.06,1.982 l 1.498,0.058 c 0.026,-0.669 0.047,-1.337 0.062,-2.005 z m -304.553,-2.978 c -0.209,0.641 -0.407,1.284 -0.595,1.929 l 1.441,0.418 c 0.182,-0.629 0.376,-1.257 0.58,-1.882 z m 306.087,-1.998 -1.5,0.015 c 0.005,0.487 0.007,0.974 0.007,1.461 l -0.001,0.522 1.5,0.008 0.001,-0.53 c 0,-0.492 -0.002,-0.984 -0.007,-1.476 m -304.341,-2.73 c -0.257,0.623 -0.505,1.248 -0.742,1.875 l 1.402,0.531 c 0.233,-0.612 0.474,-1.224 0.726,-1.833 z m 304.207,-2.279 -1.498,0.066 c 0.029,0.66 0.052,1.321 0.072,1.982 l 1.5,-0.044 c -0.02,-0.669 -0.045,-1.336 -0.074,-2.004 m -302.119,-2.303 c -0.301,0.603 -0.592,1.208 -0.874,1.815 l 1.36,0.632 c 0.277,-0.595 0.562,-1.187 0.856,-1.778 z m -65.498,-0.223 c -0.035,0.667 -0.064,1.335 -0.088,2.004 l 1.499,0.053 c 0.024,-0.661 0.052,-1.32 0.088,-1.978 z m 367.321,-2.471 -1.496,0.113 c 0.049,0.659 0.095,1.319 0.137,1.979 l 1.496,-0.095 c -0.042,-0.666 -0.087,-1.331 -0.137,-1.997 m -299.431,-1.734 c -0.339,0.581 -0.669,1.165 -0.992,1.752 l 1.315,0.722 c 0.316,-0.575 0.64,-1.148 0.973,-1.719 z m -67.507,-0.792 c -0.066,0.666 -0.127,1.333 -0.18,2 l 1.495,0.12 c 0.052,-0.657 0.112,-1.315 0.177,-1.97 z m 366.478,-2.46 -1.492,0.161 c 0.071,0.658 0.138,1.316 0.202,1.974 l 1.492,-0.143 c -0.064,-0.664 -0.131,-1.328 -0.202,-1.992 m -296.311,-1.016 c -0.373,0.56 -0.738,1.123 -1.095,1.688 l 1.269,0.801 c 0.35,-0.556 0.709,-1.108 1.075,-1.659 z m -69.555,-1.504 c -0.097,0.662 -0.187,1.325 -0.272,1.989 l 1.488,0.191 c 0.083,-0.656 0.173,-1.31 0.268,-1.962 z m 365.247,-2.447 -1.485,0.209 c 0.092,0.655 0.18,1.31 0.263,1.965 l 1.488,-0.19 c -0.085,-0.662 -0.173,-1.323 -0.266,-1.984 m -292.794,-0.155 c -0.402,0.538 -0.797,1.079 -1.186,1.622 l 1.22,0.873 c 0.383,-0.535 0.772,-1.067 1.168,-1.597 z m -71.616,-2.343 c -0.126,0.656 -0.247,1.314 -0.362,1.973 l 1.478,0.258 c 0.114,-0.651 0.232,-1.3 0.357,-1.948 z m 74.725,-1.603 c -0.428,0.518 -0.85,1.037 -1.266,1.56 l 1.172,0.934 c 0.411,-0.515 0.827,-1.027 1.249,-1.536 z m 288.913,-0.843 -1.478,0.254 c 0.112,0.652 0.219,1.304 0.324,1.957 l 1.48,-0.237 c -0.104,-0.658 -0.214,-1.317 -0.326,-1.974 m -362.579,-2.457 c -0.156,0.651 -0.306,1.302 -0.45,1.956 l 1.465,0.323 c 0.142,-0.645 0.29,-1.288 0.444,-1.929 z m 76.962,-0.488 c -0.453,0.496 -0.899,0.995 -1.34,1.496 l 1.126,0.991 c 0.435,-0.494 0.876,-0.987 1.322,-1.476 z m 284.694,-1.972 -1.47,0.298 c 0.131,0.648 0.259,1.296 0.384,1.946 l 1.473,-0.282 c -0.125,-0.655 -0.255,-1.309 -0.387,-1.962 m -281.232,-1.661 c -0.473,0.475 -0.941,0.953 -1.404,1.435 l 1.081,1.039 c 0.457,-0.475 0.919,-0.947 1.386,-1.416 z m -79.151,-0.722 c -0.184,0.641 -0.362,1.283 -0.534,1.927 l 1.45,0.387 c 0.169,-0.635 0.345,-1.269 0.526,-1.902 z m 359.311,-2.504 -1.461,0.341 c 0.152,0.644 0.299,1.289 0.443,1.935 l 1.464,-0.326 c -0.145,-0.652 -0.295,-1.302 -0.446,-1.95 m -276.548,-0.257 c -0.492,0.456 -0.979,0.914 -1.462,1.376 l 1.037,1.084 c 0.477,-0.456 0.958,-0.91 1.444,-1.359 z m -81.284,-2.021 c -0.211,0.634 -0.416,1.269 -0.617,1.906 l 1.431,0.45 c 0.198,-0.629 0.401,-1.256 0.609,-1.882 z m 85.03,-1.314 c -0.508,0.436 -1.013,0.875 -1.513,1.316 l 0.992,1.125 c 0.494,-0.436 0.994,-0.87 1.497,-1.301 z m 271.586,-1.264 -1.449,0.387 c 0.171,0.639 0.337,1.279 0.5,1.919 l 1.453,-0.368 c -0.163,-0.647 -0.331,-1.293 -0.504,-1.938 m -267.716,-1.926 c -0.524,0.417 -1.045,0.836 -1.562,1.259 l 0.95,1.161 c 0.511,-0.418 1.026,-0.833 1.545,-1.245 z m -87.218,-0.22 c -0.238,0.626 -0.47,1.253 -0.697,1.882 l 1.411,0.509 c 0.224,-0.62 0.454,-1.24 0.689,-1.858 z m 353.578,-2.669 -1.438,0.427 c 0.189,0.635 0.373,1.269 0.554,1.905 l 1.443,-0.41 c -0.182,-0.642 -0.369,-1.282 -0.559,-1.922 m -262.381,-0.159 c -0.538,0.398 -1.073,0.799 -1.605,1.203 l 0.908,1.194 c 0.526,-0.4 1.055,-0.796 1.588,-1.19 z m -89.319,-1.83 c -0.263,0.617 -0.521,1.235 -0.774,1.855 l 1.388,0.567 c 0.251,-0.612 0.506,-1.223 0.766,-1.833 z m 93.416,-1.088 c -0.553,0.38 -1.103,0.763 -1.65,1.15 l 0.866,1.225 c 0.541,-0.383 1.086,-0.763 1.634,-1.139 z m 256.79,-1.699 -1.426,0.468 c 0.206,0.628 0.41,1.258 0.609,1.889 l 1.43,-0.452 c -0.201,-0.636 -0.405,-1.27 -0.613,-1.905 m -252.603,-1.076 c -0.564,0.36 -1.126,0.725 -1.685,1.093 l 0.824,1.253 c 0.554,-0.364 1.11,-0.725 1.669,-1.083 z m -95.537,-0.723 c -0.288,0.607 -0.571,1.216 -0.849,1.827 l 1.366,0.621 c 0.274,-0.604 0.553,-1.205 0.838,-1.805 z m 99.806,-1.911 c -0.574,0.342 -1.147,0.688 -1.717,1.037 l 0.783,1.279 c 0.566,-0.346 1.132,-0.688 1.702,-1.027 z m 246.704,-1.022 -1.41,0.509 c 0.224,0.622 0.444,1.246 0.661,1.871 l 1.418,-0.492 c -0.219,-0.631 -0.443,-1.26 -0.669,-1.888 m -242.357,-1.468 c -0.584,0.322 -1.166,0.649 -1.747,0.979 l 0.741,1.304 c 0.576,-0.327 1.153,-0.651 1.732,-0.971 z m -101.92,-0.086 c -0.31,0.593 -0.614,1.189 -0.914,1.785 l 1.341,0.673 c 0.296,-0.59 0.597,-1.178 0.903,-1.765 z m 106.339,-2.264 c -0.593,0.303 -1.185,0.611 -1.776,0.923 l 0.701,1.326 c 0.584,-0.308 1.17,-0.613 1.757,-0.913 z m 236.177,-0.868 -1.396,0.549 c 0.242,0.615 0.48,1.233 0.714,1.851 l 1.403,-0.531 c -0.237,-0.625 -0.477,-1.248 -0.721,-1.869 m -340.119,-1.269 c -0.33,0.582 -0.656,1.165 -0.977,1.75 l 1.314,0.723 c 0.319,-0.579 0.641,-1.156 0.968,-1.732 z m 108.426,-0.067 c -0.601,0.284 -1.202,0.572 -1.802,0.864 l 0.659,1.348 c 0.592,-0.29 1.187,-0.575 1.783,-0.856 z m 4.567,-2.066 c -0.613,0.266 -1.224,0.535 -1.835,0.809 l 0.613,1.369 c 0.605,-0.272 1.211,-0.538 1.817,-0.801 z m 225.237,-1.232 -1.38,0.584 c 0.257,0.609 0.512,1.221 0.764,1.833 l 1.387,-0.57 c -0.254,-0.617 -0.511,-1.233 -0.771,-1.847 m -220.605,-0.682 c -0.621,0.244 -1.241,0.494 -1.861,0.748 l 0.569,1.388 c 0.614,-0.252 1.228,-0.499 1.842,-0.741 z m -115.072,-0.264 c -0.35,0.569 -0.697,1.141 -1.039,1.714 l 1.288,0.769 c 0.338,-0.568 0.681,-1.133 1.028,-1.696 z m 119.767,-1.494 c -0.629,0.223 -1.257,0.451 -1.886,0.683 l 0.521,1.407 c 0.622,-0.23 1.244,-0.456 1.866,-0.676 z m 4.753,-1.594 c -0.636,0.201 -1.272,0.407 -1.909,0.618 l 0.472,1.423 c 0.63,-0.209 1.259,-0.412 1.888,-0.61 z m 209.142,-0.552 -1.365,0.623 c 0.275,0.603 0.546,1.207 0.815,1.813 l 1.371,-0.609 c -0.27,-0.61 -0.544,-1.219 -0.821,-1.827 m -330.961,-0.58 c -0.37,0.557 -0.736,1.116 -1.098,1.677 l 1.261,0.812 c 0.358,-0.555 0.72,-1.108 1.086,-1.659 z m 126.631,-0.286 c -0.643,0.177 -1.287,0.358 -1.931,0.546 l 0.418,1.44 c 0.638,-0.185 1.274,-0.365 1.909,-0.539 z m 4.863,-1.23 c -0.649,0.15 -1.299,0.306 -1.951,0.468 l 0.361,1.456 c 0.645,-0.16 1.288,-0.314 1.929,-0.463 z m 4.914,-1.027 c -0.655,0.122 -1.312,0.25 -1.972,0.385 l 0.302,1.47 c 0.65,-0.133 1.298,-0.26 1.944,-0.38 z m 4.959,-0.803 c -0.661,0.091 -1.323,0.188 -1.989,0.293 l 0.233,1.482 c 0.656,-0.103 1.309,-0.2 1.96,-0.288 z m 4.995,-0.554 c -0.664,0.056 -1.331,0.119 -2.002,0.191 l 0.157,1.491 c 0.66,-0.07 1.317,-0.132 1.97,-0.187 z m 13.078,-0.031 -0.133,1.494 c 0.66,0.059 1.313,0.128 1.959,0.207 l 0.182,-1.489 c -0.662,-0.081 -1.331,-0.151 -2.008,-0.212 m 169.381,-0.017 -1.348,0.658 c 0.291,0.596 0.58,1.193 0.865,1.791 l 1.353,-0.645 c -0.287,-0.603 -0.577,-1.204 -0.87,-1.804 m -325.983,-0.18 c -0.388,0.545 -0.772,1.091 -1.152,1.64 l 1.233,0.854 c 0.377,-0.543 0.757,-1.085 1.14,-1.624 z m 148.547,-0.046 c -0.666,0.016 -1.337,0.041 -2.011,0.074 l 0.073,1.498 c 0.662,-0.032 1.32,-0.057 1.974,-0.072 z m 3.021,-0.014 -0.021,1.5 c 0.662,0.009 1.319,0.028 1.971,0.057 l 0.066,-1.499 c -0.667,-0.029 -1.339,-0.049 -2.016,-0.058 m -148.601,-3.975 c -0.405,0.533 -0.806,1.067 -1.203,1.603 l 1.206,0.893 c 0.393,-0.531 0.79,-1.061 1.191,-1.587 z m 320.755,-0.257 -1.329,0.695 c 0.308,0.588 0.612,1.177 0.911,1.767 l 1.338,-0.68 c -0.303,-0.596 -0.609,-1.19 -0.92,-1.782 m -317.665,-3.684 c -0.42,0.52 -0.837,1.042 -1.25,1.565 l 1.178,0.93 c 0.409,-0.519 0.822,-1.036 1.238,-1.551 z m 315.286,-0.727 -1.31,0.73 c 0.323,0.58 0.642,1.161 0.958,1.743 l 1.318,-0.716 c -0.318,-0.587 -0.64,-1.173 -0.966,-1.757 m -312.081,-3.12 c -0.435,0.508 -0.866,1.017 -1.295,1.528 l 1.149,0.964 c 0.425,-0.507 0.853,-1.012 1.285,-1.515 z m 309.585,-1.227 -1.291,0.764 c 0.338,0.571 0.672,1.143 1.004,1.718 l 1.299,-0.75 c -0.334,-0.579 -0.672,-1.156 -1.012,-1.732 m -306.274,-2.527 c -0.449,0.496 -0.894,0.993 -1.336,1.491 l 1.122,0.995 c 0.438,-0.494 0.88,-0.987 1.326,-1.478 z m 303.663,-1.754 -1.271,0.796 c 0.352,0.563 0.703,1.127 1.049,1.693 l 1.28,-0.785 c -0.351,-0.57 -0.703,-1.137 -1.058,-1.704 m -300.249,-1.907 c -0.463,0.483 -0.922,0.967 -1.378,1.454 l 1.095,1.025 c 0.452,-0.483 0.907,-0.963 1.366,-1.442 z m 297.524,-2.307 -1.248,0.831 c 0.368,0.552 0.733,1.107 1.094,1.664 l 1.258,-0.818 c -0.365,-0.561 -0.732,-1.12 -1.104,-1.677 m -294.017,-1.263 c -0.474,0.471 -0.945,0.943 -1.414,1.417 l 1.067,1.055 c 0.465,-0.471 0.933,-0.94 1.404,-1.407 z m 291.182,-2.878 -1.226,0.864 c 0.384,0.544 0.763,1.088 1.139,1.635 l 1.236,-0.851 c -0.38,-0.551 -0.763,-1.1 -1.149,-1.648 m -287.583,-0.602 c -0.486,0.459 -0.97,0.919 -1.45,1.382 l 1.041,1.08 c 0.476,-0.459 0.956,-0.915 1.438,-1.37 z m 3.682,-3.388 c -0.497,0.447 -0.991,0.895 -1.482,1.345 l 1.012,1.106 c 0.489,-0.447 0.979,-0.892 1.473,-1.335 z m 280.958,-0.075 -1.203,0.895 c 0.395,0.532 0.79,1.067 1.181,1.605 l 1.213,-0.883 c -0.395,-0.541 -0.791,-1.08 -1.191,-1.617 m -277.197,-3.225 c -0.507,0.435 -1.011,0.872 -1.514,1.309 l 0.986,1.131 c 0.499,-0.436 1,-0.869 1.504,-1.301 z m 274.144,-0.763 -1.179,0.927 c 0.411,0.522 0.819,1.046 1.225,1.573 l 1.188,-0.915 c -0.408,-0.531 -0.821,-1.059 -1.234,-1.585 m -270.308,-2.449 c -0.516,0.423 -1.031,0.848 -1.543,1.274 l 0.96,1.153 c 0.509,-0.424 1.02,-0.846 1.533,-1.266 z m 267.148,-1.459 -1.152,0.959 c 0.425,0.511 0.847,1.024 1.265,1.541 l 1.165,-0.947 c -0.423,-0.52 -0.849,-1.038 -1.278,-1.553 m -263.241,-1.665 c -0.526,0.411 -1.05,0.824 -1.571,1.239 l 0.935,1.173 c 0.518,-0.412 1.038,-0.823 1.56,-1.231 z m 259.978,-2.157 -1.127,0.991 c 0.438,0.499 0.874,1.001 1.308,1.506 l 1.137,-0.978 c -0.437,-0.508 -0.876,-1.015 -1.318,-1.519 m -256.005,-0.883 c -0.535,0.4 -1.067,0.802 -1.597,1.206 l 0.909,1.193 c 0.527,-0.401 1.056,-0.8 1.587,-1.197 z m 252.653,-2.834 -1.102,1.02 c 0.451,0.485 0.898,0.973 1.343,1.464 l 1.112,-1.008 c -0.45,-0.495 -0.901,-0.987 -1.353,-1.476 m -248.616,-0.119 c -0.542,0.388 -1.083,0.779 -1.622,1.171 l 0.883,1.213 c 0.536,-0.39 1.073,-0.778 1.612,-1.164 z m 4.097,-2.87 c -0.551,0.377 -1.099,0.757 -1.646,1.138 l 0.858,1.23 c 0.543,-0.379 1.089,-0.755 1.636,-1.13 z m 241.064,-0.635 -1.07,1.049 c 0.462,0.472 0.922,0.948 1.38,1.426 l 1.084,-1.037 c -0.461,-0.483 -0.926,-0.962 -1.394,-1.438 m -236.911,-2.15 c -0.557,0.366 -1.114,0.734 -1.667,1.104 l 0.833,1.248 c 0.551,-0.368 1.103,-0.734 1.657,-1.098 z m 233.359,-1.378 -1.043,1.078 c 0.476,0.46 0.949,0.923 1.422,1.388 l 1.053,-1.067 c -0.475,-0.469 -0.952,-0.935 -1.432,-1.399 m -229.152,-1.326 c -0.564,0.355 -1.128,0.712 -1.689,1.072 l 0.809,1.262 c 0.558,-0.356 1.118,-0.711 1.679,-1.064 z m 225.5,-2.102 -1.01,1.109 c 0.488,0.446 0.975,0.894 1.459,1.347 l 1.023,-1.097 c -0.488,-0.456 -0.978,-0.909 -1.472,-1.359 m -221.223,-0.53 c -0.574,0.345 -1.146,0.693 -1.717,1.043 l 0.785,1.279 c 0.566,-0.348 1.136,-0.693 1.707,-1.037 z m 4.324,-2.548 c -0.58,0.334 -1.158,0.671 -1.735,1.009 l 0.759,1.294 c 0.574,-0.336 1.149,-0.671 1.725,-1.003 z m 213.153,-0.243 -0.979,1.137 c 0.502,0.432 1,0.866 1.497,1.304 l 0.992,-1.125 c -0.501,-0.442 -1.004,-0.88 -1.51,-1.316 m -208.787,-2.222 c -0.585,0.324 -1.169,0.649 -1.752,0.977 l 0.735,1.307 c 0.58,-0.326 1.161,-0.649 1.743,-0.97 z m 204.944,-0.989 -0.945,1.165 c 0.513,0.416 1.025,0.836 1.534,1.26 l 0.959,-1.154 c -0.515,-0.427 -1.03,-0.851 -1.548,-1.271 m -200.535,-1.392 c -0.591,0.312 -1.18,0.626 -1.768,0.943 l 0.71,1.321 c 0.585,-0.315 1.172,-0.627 1.758,-0.938 z m 196.596,-1.703 -0.908,1.193 c 0.526,0.401 1.05,0.805 1.572,1.213 l 0.923,-1.182 c -0.527,-0.412 -1.055,-0.82 -1.587,-1.224 m -192.147,-0.595 c -0.596,0.301 -1.19,0.604 -1.784,0.909 l 0.686,1.334 c 0.59,-0.303 1.181,-0.605 1.774,-0.904 z m 4.484,-2.216 c -0.6,0.29 -1.199,0.582 -1.797,0.876 l 0.661,1.347 c 0.595,-0.293 1.192,-0.583 1.789,-0.872 z m 183.635,-0.164 -0.871,1.221 c 0.538,0.384 1.073,0.772 1.607,1.164 l 0.887,-1.209 c -0.538,-0.396 -1.079,-0.787 -1.623,-1.176 m -179.114,-1.969 c -0.606,0.279 -1.21,0.56 -1.813,0.844 l 0.638,1.357 c 0.6,-0.281 1.201,-0.561 1.803,-0.839 z m 174.993,-0.879 -0.834,1.247 c 0.55,0.367 1.098,0.739 1.645,1.114 l 0.847,-1.238 c -0.551,-0.378 -1.104,-0.753 -1.658,-1.123 m -170.438,-1.171 c -0.61,0.268 -1.218,0.538 -1.826,0.81 l 0.614,1.37 c 0.604,-0.271 1.21,-0.54 1.815,-0.807 z m 166.229,-1.545 -0.793,1.274 c 0.56,0.348 1.12,0.702 1.678,1.059 l 0.808,-1.263 c -0.562,-0.361 -1.128,-0.717 -1.693,-1.07 m -161.643,-0.422 c -0.613,0.256 -1.226,0.515 -1.838,0.777 l 0.59,1.379 c 0.608,-0.26 1.217,-0.517 1.828,-0.773 z m 4.617,-1.884 c -0.618,0.245 -1.234,0.493 -1.85,0.743 l 0.564,1.39 c 0.612,-0.248 1.226,-0.495 1.84,-0.739 z m 152.727,-0.27 -0.75,1.299 c 0.572,0.331 1.143,0.665 1.712,1.003 l 0.768,-1.289 c -0.575,-0.342 -1.152,-0.679 -1.73,-1.013 m -148.082,-1.53 c -0.621,0.234 -1.241,0.471 -1.862,0.71 l 0.54,1.399 c 0.617,-0.238 1.234,-0.473 1.851,-0.706 z m 143.7,-0.901 -0.705,1.324 c 0.583,0.31 1.165,0.625 1.745,0.945 l 0.723,-1.315 c -0.586,-0.322 -1.174,-0.64 -1.763,-0.954 m -139.005,-0.822 c -0.628,0.224 -1.255,0.451 -1.882,0.68 l 0.515,1.409 c 0.623,-0.228 1.247,-0.453 1.871,-0.676 z m 134.543,-1.456 -0.659,1.349 c 0.594,0.289 1.187,0.583 1.777,0.882 l 0.677,-1.339 c -0.597,-0.301 -1.196,-0.599 -1.795,-0.892 m -129.818,-0.181 c -0.631,0.212 -1.263,0.427 -1.893,0.645 l 0.488,1.418 c 0.628,-0.217 1.256,-0.43 1.883,-0.642 z m 4.754,-1.552 c -0.636,0.201 -1.271,0.404 -1.906,0.611 l 0.465,1.426 c 0.63,-0.205 1.261,-0.407 1.893,-0.606 z m 120.521,-0.384 -0.61,1.371 c 0.604,0.268 1.206,0.541 1.807,0.818 l 0.629,-1.362 c -0.609,-0.281 -1.217,-0.556 -1.826,-0.827 m -115.74,-1.08 c -0.639,0.189 -1.277,0.381 -1.916,0.576 l 0.436,1.435 c 0.636,-0.194 1.271,-0.384 1.906,-0.572 z m 111.12,-0.869 -0.556,1.393 c 0.612,0.245 1.224,0.495 1.835,0.75 l 0.578,-1.384 c -0.618,-0.258 -1.236,-0.511 -1.857,-0.759 m -106.312,-0.505 c -0.642,0.177 -1.283,0.356 -1.926,0.539 l 0.409,1.443 c 0.639,-0.181 1.277,-0.36 1.916,-0.536 z m 101.623,-1.268 -0.502,1.413 c 0.622,0.221 1.242,0.448 1.861,0.68 l 0.526,-1.406 c -0.627,-0.234 -1.255,-0.463 -1.885,-0.687 m -96.789,-0.014 c -0.645,0.165 -1.291,0.332 -1.937,0.502 l 0.382,1.45 c 0.642,-0.169 1.284,-0.335 1.925,-0.499 z m 4.858,-1.189 c -0.648,0.152 -1.297,0.306 -1.946,0.464 l 0.354,1.458 c 0.645,-0.157 1.29,-0.31 1.934,-0.461 z m 87.169,-0.388 -0.449,1.432 c 0.633,0.198 1.265,0.4 1.896,0.608 l 0.469,-1.425 c -0.637,-0.21 -1.277,-0.415 -1.916,-0.615 m -82.287,-0.704 c -0.651,0.139 -1.304,0.281 -1.955,0.426 l 0.325,1.464 c 0.648,-0.144 1.295,-0.285 1.943,-0.423 z m 77.453,-0.696 -0.388,1.449 c 0.639,0.171 1.278,0.348 1.916,0.53 l 0.412,-1.443 c -0.646,-0.184 -1.292,-0.363 -1.94,-0.536 m -72.55,-0.296 c -0.654,0.125 -1.308,0.254 -1.963,0.385 l 0.294,1.47 c 0.651,-0.13 1.301,-0.257 1.951,-0.382 z m 4.923,-0.889 c -0.657,0.111 -1.314,0.225 -1.972,0.343 l 0.265,1.477 c 0.653,-0.117 1.306,-0.231 1.957,-0.341 z m 62.743,-0.012 -0.326,1.464 c 0.647,0.144 1.291,0.294 1.936,0.449 l 0.349,-1.459 c -0.652,-0.157 -1.304,-0.308 -1.959,-0.454 m -57.802,-0.771 c -0.658,0.097 -1.318,0.197 -1.979,0.3 l 0.231,1.482 c 0.657,-0.102 1.312,-0.202 1.966,-0.298 z m 52.878,-0.215 -0.264,1.476 c 0.65,0.116 1.301,0.237 1.949,0.364 l 0.289,-1.471 c -0.658,-0.129 -1.316,-0.252 -1.974,-0.369 m -47.918,-0.456 c -0.661,0.082 -1.323,0.167 -1.986,0.254 l 0.198,1.488 c 0.659,-0.088 1.316,-0.172 1.971,-0.254 z m 42.958,-0.314 -0.198,1.487 c 0.656,0.086 1.309,0.179 1.961,0.278 l 0.225,-1.484 c -0.662,-0.099 -1.325,-0.194 -1.988,-0.281 m -37.985,-0.242 c -0.663,0.066 -1.326,0.136 -1.991,0.208 l 0.162,1.492 c 0.661,-0.073 1.321,-0.142 1.978,-0.207 z m 32.999,-0.313 -0.136,1.495 c 0.661,0.06 1.318,0.125 1.972,0.195 l 0.16,-1.491 c -0.662,-0.071 -1.327,-0.137 -1.996,-0.199 m -28.012,-0.122 c -0.664,0.05 -1.329,0.103 -1.996,0.159 l 0.126,1.495 c 0.662,-0.056 1.323,-0.109 1.981,-0.158 z m 23.015,-0.252 -0.086,1.497 c 0.662,0.039 1.323,0.081 1.98,0.128 l 0.107,-1.496 c -0.665,-0.048 -1.331,-0.091 -2.001,-0.129 m -18.019,-0.055 c -0.665,0.032 -1.331,0.068 -2,0.107 l 0.088,1.497 c 0.663,-0.038 1.325,-0.074 1.984,-0.106 z m 13.015,-0.156 -0.039,1.499 c 0.664,0.018 1.325,0.039 1.984,0.065 l 0.058,-1.499 c -0.665,-0.026 -1.332,-0.047 -2.003,-0.065 m -8.011,-0.018 c -0.666,0.014 -1.334,0.032 -2.003,0.053 l 0.049,1.499 c 0.663,-0.021 1.325,-0.038 1.985,-0.052 z m 3.646,-0.039 -0.641,10e-4 0.004,1.5 0.637,-10e-4 c 0.451,0 0.901,0.002 1.351,0.006 l 0.011,-1.5 c -0.453,-0.004 -0.907,-0.006 -1.362,-0.006" /></g></g></g><g
       id="g26"><g
         clip-path="url(#clipPath32)"
         id="g28"><g
           transform="translate(109.6528,317.8018)"
           id="g34"><path
             id="path36"
             style="fill:#d3dace;fill-opacity:1;fill-rule:nonzero;stroke:none"
             d="m 0,0 c 0,-5.422 -1.96,-10.385 -5.212,-14.22 -0.218,-0.257 0.448,-0.268 -0.228,-1.332 -0.646,-1.014 -1.244,-0.222 -1.53,-0.499 -0.276,-0.267 -0.741,0.725 -2.577,-0.966 -0.756,-0.695 0.381,-0.882 -0.483,-1.444 -3.445,-2.237 -7.553,-3.537 -11.967,-3.537 -7.203,0 -13.598,3.463 -17.609,8.813 -0.17,0.226 -0.506,-0.758 -1.58,0.413 -0.615,0.672 -0.357,1.171 -0.781,1.984 -0.373,0.717 -1.203,1.561 -2.027,2.244 -1.028,0.851 1.137,1.528 0.99,1.999 -0.643,2.067 -0.99,4.266 -0.99,6.545 0,2.979 0.592,5.82 1.665,8.412 0.303,0.73 -0.589,1.208 -0.349,1.769 1.635,3.813 2.913,1.054 3.438,2.172 0.223,0.475 0.236,1.57 0.559,1.983 2.805,3.589 6.037,5.481 10.523,6.787 1.155,0.336 0.204,1.298 1.432,1.411 2.877,0.264 4.025,0.387 4.729,-0.132 0.717,-0.528 0.755,-0.414 1.128,-0.433 1.324,-0.067 2.618,-0.25 3.869,-0.541 5.921,-1.376 10.925,-5.142 13.938,-10.226 0.304,-0.512 1.819,0.025 2.081,-0.513 0.212,-0.435 0.423,-2.898 0.608,-3.35 C -0.117,6.708 0.995,6.878 0.653,6.27 0.002,5.112 -0.622,5.248 -0.498,4.679 -0.437,4.392 -0.38,4.104 -0.329,3.813 -0.113,2.575 0,1.301 0,0" /></g><g
           transform="translate(83.8325,333.439)"
           id="g38"><path
             id="path40"
             style="fill:#a5b19b;fill-opacity:1;fill-rule:nonzero;stroke:none"
             d="m 0,0 c 0.494,-1.193 0.449,-2.788 -1.444,-2.788 -1.893,0 -4.915,-0.271 -4.45,1.872 0.131,0.6 1.714,-0.587 3.607,-0.587 1.894,0 1.815,2.643 2.287,1.503" /></g><g
           transform="translate(84.3071,333.0967)"
           id="g42"><path
             id="path44"
             style="fill:#ffffff;fill-opacity:1;fill-rule:nonzero;stroke:none"
             d="m 0,0 c 0,-1.029 -1.362,1.289 -3.256,1.289 -1.893,0 -3.255,-1.997 -3.255,-0.967 0,0.413 0.191,0.79 0.543,1.093 0.278,0.24 0.742,0.303 1.205,0.433 0.41,0.114 0.974,0.367 1.507,0.367 0.668,0 1.118,-0.198 1.645,-0.425 C -0.644,1.374 0,0.667 0,0" /></g><g
           transform="translate(84.5991,333.0806)"
           id="g46"><path
             id="path48"
             style="fill:#c4ccbf;fill-opacity:1;fill-rule:nonzero;stroke:none"
             d="m 0,0 c 0,-0.306 -0.292,-0.247 -0.363,-0.482 -0.162,-0.536 -0.413,-1.037 -1.112,-1.288 -0.528,-0.19 -1.651,-0.414 -2.855,-0.082 -1.061,0.293 -1.247,0.162 -1.785,0.603 -0.244,0.2 -0.427,0.434 -0.545,0.691 -0.07,0.153 -0.059,0.305 -0.059,0.47 0,0.147 -0.321,0.326 -0.265,0.463 0.143,0.352 0.46,0.667 0.897,0.915 0.132,0.075 0.49,0.141 0.913,0.252 0.334,0.089 0.417,0.063 0.808,0.126 0.3,0.048 0.396,0.298 0.725,0.298 0.307,0.001 0.605,-0.125 0.889,-0.167 C -1.596,1.625 -0.68,1.123 -0.348,0.482 -0.26,0.312 0,0.185 0,0" /></g><g
           transform="translate(81.106,333.8477)"
           id="g50"><path
             id="path52"
             style="fill:#a5b19b;fill-opacity:1;fill-rule:nonzero;stroke:none"
             d="m 0,0 c -1.614,0.251 -3.483,-0.924 -2.995,-0.23 0.529,0.75 2.636,1.175 3.04,0.987 C 0.449,0.569 2.043,0.479 2.411,0.225 2.779,-0.03 3.065,-0.667 2.922,-1.014 2.776,-1.362 2.049,-0.318 0,0" /></g><g
           transform="translate(102.0581,309.4775)"
           id="g54"><path
             id="path56"
             style="fill:#a5b19b;fill-opacity:1;fill-rule:nonzero;stroke:none"
             d="m 0,0 c 0.403,-0.974 0.367,-2.274 -1.179,-2.274 -1.544,0 -4.009,-0.222 -3.63,1.526 0.107,0.49 1.399,-0.479 2.944,-0.479 1.545,0 1.48,2.157 1.865,1.227" /></g><g
           transform="translate(102.4458,309.1987)"
           id="g58"><path
             id="path60"
             style="fill:#ffffff;fill-opacity:1;fill-rule:nonzero;stroke:none"
             d="m 0,0 c 0,-0.84 -1.112,1.051 -2.657,1.051 -1.545,0 -2.656,-1.629 -2.656,-0.789 0,0.337 0.156,0.645 0.443,0.892 0.226,0.196 0.606,0.247 0.983,0.353 0.335,0.094 0.795,0.3 1.23,0.3 0.545,0 0.912,-0.162 1.343,-0.347 C -0.525,1.121 0,0.543 0,0" /></g><g
           transform="translate(102.6831,309.1851)"
           id="g62"><path
             id="path64"
             style="fill:#c4ccbf;fill-opacity:1;fill-rule:nonzero;stroke:none"
             d="m 0,0 c 0,-0.25 -0.237,-0.202 -0.296,-0.394 -0.132,-0.436 -0.337,-0.845 -0.906,-1.05 -0.431,-0.155 -1.349,-0.338 -2.331,-0.067 -0.865,0.239 -1.017,0.132 -1.456,0.492 -0.198,0.163 -0.348,0.354 -0.445,0.564 -0.057,0.125 -0.047,0.248 -0.047,0.383 0,0.12 -0.262,0.266 -0.217,0.378 0.117,0.287 0.376,0.544 0.732,0.747 0.108,0.061 0.4,0.114 0.745,0.206 0.273,0.072 0.34,0.051 0.658,0.102 0.246,0.039 0.325,0.243 0.592,0.243 C -2.72,1.605 -2.477,1.502 -2.245,1.468 -1.301,1.327 -0.554,0.916 -0.283,0.393 -0.211,0.255 0,0.151 0,0" /></g><g
           transform="translate(99.8335,309.811)"
           id="g66"><path
             id="path68"
             style="fill:#a5b19b;fill-opacity:1;fill-rule:nonzero;stroke:none"
             d="m 0,0 c -1.317,0.205 -2.842,-0.754 -2.443,-0.187 0.431,0.611 2.15,0.958 2.48,0.805 C 0.366,0.464 1.667,0.391 1.967,0.184 2.268,-0.024 2.501,-0.543 2.384,-0.828 2.266,-1.112 1.672,-0.26 0,0" /></g><g
           transform="translate(88.9302,318.4482)"
           id="g70"><path
             id="path72"
             style="fill:#a5b19b;fill-opacity:1;fill-rule:nonzero;stroke:none"
             d="m 0,0 c 0.784,-1.894 0.713,-4.423 -2.293,-4.423 -3.004,0 -7.8,-0.431 -7.061,2.969 0.208,0.953 2.72,-0.932 5.724,-0.932 3.006,0 2.881,4.195 3.63,2.386" /></g><g
           transform="translate(89.6821,317.9058)"
           id="g74"><path
             id="path76"
             style="fill:#ffffff;fill-opacity:1;fill-rule:nonzero;stroke:none"
             d="m 0,0 c 0,-1.634 -2.161,2.044 -5.166,2.044 -3.005,0 -5.167,-3.168 -5.167,-1.534 0,0.656 0.305,1.254 0.862,1.735 0.441,0.381 1.179,0.481 1.912,0.687 0.653,0.181 1.546,0.583 2.393,0.583 1.059,0 1.773,-0.316 2.61,-0.675 C -1.021,2.18 0,1.058 0,0" /></g><g
           transform="translate(90.146,317.8799)"
           id="g78"><path
             id="path80"
             style="fill:#c4ccbf;fill-opacity:1;fill-rule:nonzero;stroke:none"
             d="m 0,0 c 0,-0.486 -0.464,-0.393 -0.577,-0.766 -0.257,-0.849 -0.654,-1.645 -1.763,-2.043 -0.838,-0.302 -2.621,-0.657 -4.532,-0.129 -1.683,0.463 -1.979,0.255 -2.833,0.956 -0.387,0.317 -0.676,0.688 -0.864,1.096 -0.112,0.243 -0.094,0.484 -0.094,0.746 0,0.233 -0.51,0.517 -0.421,0.735 0.228,0.558 0.73,1.058 1.424,1.452 0.21,0.12 0.778,0.224 1.449,0.401 0.53,0.14 0.662,0.1 1.281,0.199 0.477,0.076 0.631,0.473 1.152,0.473 0.487,10e-4 0.96,-0.199 1.411,-0.266 C -2.531,2.58 -1.078,1.782 -0.552,0.765 -0.412,0.496 0,0.294 0,0" /></g><g
           transform="translate(84.6021,319.0972)"
           id="g82"><path
             id="path84"
             style="fill:#a5b19b;fill-opacity:1;fill-rule:nonzero;stroke:none"
             d="M 0,0 C -2.562,0.398 -5.527,-1.466 -4.752,-0.365 -3.913,0.825 -0.569,1.5 0.071,1.202 0.713,0.903 3.242,0.761 3.826,0.357 4.411,-0.048 4.865,-1.058 4.637,-1.61 4.407,-2.162 3.251,-0.506 0,0" /></g><g
           transform="translate(99.0308,327.9609)"
           id="g86"><path
             id="path88"
             style="fill:#a5b19b;fill-opacity:1;fill-rule:nonzero;stroke:none"
             d="m 0,0 c 0.517,-1.248 0.47,-2.914 -1.509,-2.914 -1.979,0 -5.137,-0.283 -4.651,1.956 0.137,0.628 1.791,-0.613 3.77,-0.613 1.98,0 1.897,2.762 2.39,1.571" /></g><g
           transform="translate(99.5269,327.6035)"
           id="g90"><path
             id="path92"
             style="fill:#ffffff;fill-opacity:1;fill-rule:nonzero;stroke:none"
             d="m 0,0 c 0,-1.076 -1.424,1.346 -3.403,1.346 -1.979,0 -3.403,-2.086 -3.403,-1.01 0,0.432 0.202,0.826 0.568,1.143 0.29,0.25 0.776,0.317 1.259,0.452 0.429,0.119 1.018,0.384 1.576,0.384 0.698,0 1.168,-0.208 1.719,-0.444 C -0.673,1.436 0,0.697 0,0" /></g><g
           transform="translate(99.8315,327.5864)"
           id="g94"><path
             id="path96"
             style="fill:#c4ccbf;fill-opacity:1;fill-rule:nonzero;stroke:none"
             d="m 0,0 c 0,-0.32 -0.305,-0.258 -0.38,-0.504 -0.17,-0.559 -0.431,-1.083 -1.161,-1.346 -0.552,-0.198 -1.726,-0.433 -2.984,-0.086 -1.109,0.307 -1.303,0.169 -1.867,0.631 -0.254,0.209 -0.445,0.453 -0.569,0.722 -0.073,0.16 -0.06,0.319 -0.06,0.491 0,0.154 -0.336,0.341 -0.278,0.484 0.15,0.368 0.481,0.697 0.938,0.956 0.137,0.079 0.512,0.148 0.954,0.265 0.349,0.092 0.435,0.065 0.844,0.131 0.313,0.049 0.415,0.311 0.758,0.311 0.322,0 0.633,-0.131 0.929,-0.175 C -1.667,1.699 -0.71,1.174 -0.363,0.503 -0.271,0.327 0,0.194 0,0" /></g><g
           transform="translate(96.1802,328.3877)"
           id="g98"><path
             id="path100"
             style="fill:#a5b19b;fill-opacity:1;fill-rule:nonzero;stroke:none"
             d="M 0,0 C -1.687,0.263 -3.64,-0.965 -3.129,-0.24 -2.577,0.544 -0.375,0.988 0.048,0.792 0.47,0.595 2.136,0.501 2.521,0.235 2.905,-0.031 3.204,-0.696 3.054,-1.06 2.903,-1.423 2.142,-0.333 0,0" /></g><g
           transform="translate(78.9106,305.7144)"
           id="g102"><path
             id="path104"
             style="fill:#a5b19b;fill-opacity:1;fill-rule:nonzero;stroke:none"
             d="m 0,0 c 0.356,-0.862 0.324,-2.013 -1.043,-2.013 -1.368,0 -3.55,-0.196 -3.214,1.351 0.095,0.434 1.237,-0.423 2.605,-0.423 1.368,0 1.311,1.908 1.652,1.085" /></g><g
           transform="translate(79.2534,305.4678)"
           id="g106"><path
             id="path108"
             style="fill:#ffffff;fill-opacity:1;fill-rule:nonzero;stroke:none"
             d="m 0,0 c 0,-0.744 -0.984,0.93 -2.352,0.93 -1.368,0 -2.35,-1.442 -2.35,-0.698 0,0.298 0.138,0.57 0.391,0.789 0.201,0.174 0.537,0.22 0.871,0.313 0.295,0.083 0.703,0.265 1.088,0.265 0.483,0 0.807,-0.143 1.188,-0.307 C -0.465,0.992 0,0.481 0,0" /></g><g
           transform="translate(79.4634,305.4561)"
           id="g110"><path
             id="path112"
             style="fill:#c4ccbf;fill-opacity:1;fill-rule:nonzero;stroke:none"
             d="m 0,0 c 0,-0.221 -0.21,-0.179 -0.262,-0.349 -0.118,-0.386 -0.299,-0.748 -0.802,-0.93 -0.381,-0.137 -1.193,-0.299 -2.063,-0.059 -0.766,0.212 -0.9,0.117 -1.289,0.436 -0.176,0.144 -0.308,0.313 -0.394,0.499 -0.05,0.11 -0.042,0.22 -0.042,0.34 0,0.105 -0.232,0.235 -0.192,0.334 0.104,0.253 0.332,0.481 0.648,0.66 0.095,0.055 0.354,0.102 0.66,0.183 0.242,0.063 0.301,0.045 0.583,0.091 0.216,0.034 0.287,0.215 0.524,0.215 0.222,0 0.437,-0.091 0.642,-0.121 C -1.151,1.174 -0.49,0.811 -0.251,0.348 -0.187,0.226 0,0.133 0,0" /></g><g
           transform="translate(76.9409,306.0098)"
           id="g114"><path
             id="path116"
             style="fill:#a5b19b;fill-opacity:1;fill-rule:nonzero;stroke:none"
             d="M 0,0 C -1.166,0.181 -2.516,-0.667 -2.163,-0.166 -1.78,0.375 -0.26,0.683 0.032,0.547 0.324,0.411 1.476,0.346 1.741,0.162 2.008,-0.021 2.214,-0.481 2.11,-0.732 2.006,-0.984 1.479,-0.23 0,0" /></g></g></g><g
       id="g118"><g
         clip-path="url(#clipPath124)"
         id="g120"><g
           transform="translate(466.4097,303.3374)"
           id="g126"><path
             id="path128"
             style="fill:#ffffff;fill-opacity:1;fill-rule:nonzero;stroke:none"
             d="m 0,0 c 0,-0.681 -0.552,-1.232 -1.232,-1.232 -0.681,0 -1.233,0.551 -1.233,1.232 0,0.681 0.552,1.233 1.233,1.233 C -0.552,1.233 0,0.681 0,0" /></g><g
           transform="translate(462.7124,295.2217)"
           id="g130"><path
             id="path132"
             style="fill:#ffffff;fill-opacity:1;fill-rule:nonzero;stroke:none"
             d="m 0,0 c 0,-0.681 -0.552,-1.232 -1.232,-1.232 -0.681,0 -1.233,0.551 -1.233,1.232 0,0.681 0.552,1.232 1.233,1.232 C -0.552,1.232 0,0.681 0,0" /></g><g
           transform="translate(473.5229,290.9868)"
           id="g134"><path
             id="path136"
             style="fill:#ffffff;fill-opacity:1;fill-rule:nonzero;stroke:none"
             d="m 0,0 c 0,-0.681 -0.552,-1.232 -1.232,-1.232 -0.681,0 -1.233,0.551 -1.233,1.232 0,0.681 0.552,1.233 1.233,1.233 C -0.552,1.233 0,0.681 0,0" /></g><g
           transform="translate(474.7554,305.8027)"
           id="g138"><path
             id="path140"
             style="fill:#ffffff;fill-opacity:1;fill-rule:nonzero;stroke:none"
             d="m 0,0 c 0,-0.681 -0.552,-1.232 -1.232,-1.232 -0.681,0 -1.233,0.551 -1.233,1.232 0,0.681 0.552,1.232 1.233,1.232 C -0.552,1.232 0,0.681 0,0" /></g><g
           transform="translate(457.812,309.9951)"
           id="g142"><path
             id="path144"
             style="fill:#ffffff;fill-opacity:1;fill-rule:nonzero;stroke:none"
             d="m 0,0 c 0,-0.681 -0.552,-1.232 -1.232,-1.232 -0.681,0 -1.233,0.551 -1.233,1.232 0,0.68 0.552,1.232 1.233,1.232 C -0.552,1.232 0,0.68 0,0" /></g><g
           transform="translate(416.2974,152.1763)"
           id="g146"><path
             id="path148"
             style="fill:#ffffff;fill-opacity:1;fill-rule:nonzero;stroke:none"
             d="m 0,0 c 0,-0.681 -0.552,-1.232 -1.232,-1.232 -0.681,0 -1.233,0.551 -1.233,1.232 0,0.681 0.552,1.233 1.233,1.233 C -0.552,1.233 0,0.681 0,0" /></g><g
           transform="translate(411.3677,154.6416)"
           id="g150"><path
             id="path152"
             style="fill:#ffffff;fill-opacity:1;fill-rule:nonzero;stroke:none"
             d="m 0,0 c 0,-0.681 -0.552,-1.232 -1.232,-1.232 -0.681,0 -1.233,0.551 -1.233,1.232 0,0.681 0.552,1.232 1.233,1.232 C -0.552,1.232 0,0.681 0,0" /></g><g
           transform="translate(424.6431,160.1104)"
           id="g154"><path
             id="path156"
             style="fill:#ffffff;fill-opacity:1;fill-rule:nonzero;stroke:none"
             d="m 0,0 c 0,-0.681 -0.552,-1.232 -1.232,-1.232 -0.681,0 -1.233,0.551 -1.233,1.232 0,0.681 0.552,1.233 1.233,1.233 C -0.552,1.233 0,0.681 0,0" /></g><g
           transform="translate(425.2407,150.9438)"
           id="g158"><path
             id="path160"
             style="fill:#ffffff;fill-opacity:1;fill-rule:nonzero;stroke:none"
             d="m 0,0 c 0,-0.681 -0.552,-1.232 -1.232,-1.232 -0.681,0 -1.233,0.551 -1.233,1.232 0,0.681 0.552,1.232 1.233,1.232 C -0.552,1.232 0,0.681 0,0" /></g><g
           transform="translate(405.2349,149.7114)"
           id="g162"><path
             id="path164"
             style="fill:#ffffff;fill-opacity:1;fill-rule:nonzero;stroke:none"
             d="m 0,0 c 0,-0.681 -0.552,-1.232 -1.232,-1.232 -0.681,0 -1.233,0.551 -1.233,1.232 0,0.68 0.552,1.232 1.233,1.232 C -0.552,1.232 0,0.68 0,0" /></g><g
           transform="translate(253.1704,157.376)"
           id="g166"><path
             id="path168"
             style="fill:#ffffff;fill-opacity:1;fill-rule:nonzero;stroke:none"
             d="m 0,0 c 0,-0.681 -0.552,-1.232 -1.232,-1.232 -0.681,0 -1.233,0.551 -1.233,1.232 0,0.681 0.552,1.233 1.233,1.233 C -0.552,1.233 0,0.681 0,0" /></g><g
           transform="translate(248.1772,165.3101)"
           id="g170"><path
             id="path172"
             style="fill:#ffffff;fill-opacity:1;fill-rule:nonzero;stroke:none"
             d="m 0,0 c 0,-0.681 -0.552,-1.232 -1.232,-1.232 -0.681,0 -1.233,0.551 -1.233,1.232 0,0.681 0.552,1.232 1.233,1.232 C -0.552,1.232 0,0.681 0,0" /></g><g
           transform="translate(238.3472,166.5425)"
           id="g174"><path
             id="path176"
             style="fill:#ffffff;fill-opacity:1;fill-rule:nonzero;stroke:none"
             d="m 0,0 c 0,-0.681 -0.552,-1.232 -1.232,-1.232 -0.681,0 -1.233,0.551 -1.233,1.232 0,0.681 0.552,1.233 1.233,1.233 C -0.552,1.233 0,0.681 0,0" /></g><g
           transform="translate(268.6206,343.6055)"
           id="g178"><path
             id="path180"
             style="fill:#a5b19b;fill-opacity:1;fill-rule:nonzero;stroke:none"
             d="m 0,0 c -1.797,-0.994 -3.802,-1.253 -5.669,-0.878 -0.125,0.025 -0.007,-0.198 -0.483,-0.168 -0.455,0.028 -0.302,0.371 -0.446,0.415 -0.14,0.043 0.104,0.379 -0.793,0.677 -0.369,0.123 -0.222,-0.288 -0.567,-0.104 -1.373,0.732 -2.557,1.856 -3.365,3.319 -1.321,2.388 -1.344,5.142 -0.306,7.452 0.044,0.098 -0.344,0.03 -0.152,0.6 0.11,0.327 0.323,0.333 0.514,0.622 0.169,0.255 0.297,0.685 0.372,1.084 0.094,0.496 0.716,-0.097 0.845,0.038 0.567,0.592 1.232,1.11 1.988,1.527 0.987,0.546 2.038,0.871 3.094,0.99 0.297,0.033 0.292,0.416 0.522,0.44 1.564,0.156 0.883,-0.773 1.35,-0.742 0.199,0.013 0.564,0.209 0.76,0.178 1.704,-0.272 2.923,-0.997 4.178,-2.244 0.324,-0.322 0.468,0.169 0.73,-0.217 C 3.187,12.083 3.438,11.726 3.395,11.397 3.352,11.063 3.396,11.071 3.458,10.944 3.679,10.493 3.855,10.03 3.988,9.562 4.617,7.348 4.286,4.999 3.152,3.068 3.038,2.874 3.494,2.469 3.364,2.284 3.258,2.134 2.48,1.612 2.365,1.469 2.202,1.268 2.462,0.931 2.198,0.933 1.695,0.937 1.625,1.168 1.459,1.022 1.376,0.95 1.291,0.878 1.204,0.808 0.833,0.509 0.431,0.239 0,0" /></g><g
           transform="translate(258.3374,355.749)"
           id="g182"><path
             id="path184"
             style="fill:#c4ccbf;fill-opacity:1;fill-rule:nonzero;stroke:none"
             d="m 0,0 c 0,0 2.992,4.841 10.1,2.024 1.849,-0.732 2.366,-1.798 2.864,-3.339 0.499,-1.541 1.271,-3.739 0.361,-6.224 -0.978,-2.667 -1.665,-3.054 -3.832,-4.289 -4.23,-2.411 -9.073,2.629 -9.48,6.234 C -0.404,-1.897 6.537,-8.42 8.514,0.17 9.252,3.376 0,0 0,0" /></g><g
           transform="translate(325.3003,451.1919)"
           id="g186"><path
             id="path188"
             style="fill:#ffffff;fill-opacity:1;fill-rule:nonzero;stroke:none"
             d="m 0,0 c 0,-0.681 -0.552,-1.232 -1.232,-1.232 -0.681,0 -1.233,0.551 -1.233,1.232 0,0.681 0.552,1.233 1.233,1.233 C -0.552,1.233 0,0.681 0,0" /></g><g
           transform="translate(315.7222,457.2207)"
           id="g190"><path
             id="path192"
             style="fill:#ffffff;fill-opacity:1;fill-rule:nonzero;stroke:none"
             d="m 0,0 c 0,-0.681 -0.552,-1.232 -1.232,-1.232 -0.681,0 -1.233,0.551 -1.233,1.232 0,0.681 0.552,1.232 1.233,1.232 C -0.552,1.232 0,0.681 0,0" /></g><g
           transform="translate(324.0679,463.0488)"
           id="g194"><path
             id="path196"
             style="fill:#ffffff;fill-opacity:1;fill-rule:nonzero;stroke:none"
             d="m 0,0 c 0,-0.681 -0.552,-1.232 -1.232,-1.232 -0.681,0 -1.233,0.551 -1.233,1.232 0,0.681 0.552,1.233 1.233,1.233 C -0.552,1.233 0,0.681 0,0" /></g><g
           transform="translate(339.7466,448.1577)"
           id="g198"><path
             id="path200"
             style="fill:#ffffff;fill-opacity:1;fill-rule:nonzero;stroke:none"
             d="m 0,0 c 0,-0.681 -0.552,-1.232 -1.232,-1.232 -0.681,0 -1.233,0.551 -1.233,1.232 0,0.681 0.552,1.232 1.233,1.232 C -0.552,1.232 0,0.681 0,0" /></g><g
           transform="translate(307.1245,445.6929)"
           id="g202"><path
             id="path204"
             style="fill:#ffffff;fill-opacity:1;fill-rule:nonzero;stroke:none"
             d="m 0,0 c 0,-0.681 -0.552,-1.232 -1.232,-1.232 -0.681,0 -1.233,0.551 -1.233,1.232 0,0.68 0.552,1.232 1.233,1.232 C -0.552,1.232 0,0.68 0,0" /></g><g
           transform="translate(524.2886,142.7349)"
           id="g206"><path
             id="path208"
             style="fill:#ffffff;fill-opacity:1;fill-rule:nonzero;stroke:none"
             d="m 0,0 c 0,-0.681 -0.552,-1.232 -1.232,-1.232 -0.681,0 -1.233,0.551 -1.233,1.232 0,0.681 0.552,1.233 1.233,1.233 C -0.552,1.233 0,0.681 0,0" /></g><g
           transform="translate(513.5083,130.3784)"
           id="g210"><path
             id="path212"
             style="fill:#ffffff;fill-opacity:1;fill-rule:nonzero;stroke:none"
             d="m 0,0 c 0,-0.681 -0.552,-1.232 -1.232,-1.232 -0.681,0 -1.233,0.551 -1.233,1.232 0,0.681 0.552,1.232 1.233,1.232 C -0.552,1.232 0,0.681 0,0" /></g><g
           transform="translate(504.0601,139.3516)"
           id="g214"><path
             id="path216"
             style="fill:#ffffff;fill-opacity:1;fill-rule:nonzero;stroke:none"
             d="m 0,0 c 0,-0.681 -0.552,-1.232 -1.232,-1.232 -0.681,0 -1.233,0.551 -1.233,1.232 0,0.681 0.552,1.232 1.233,1.232 C -0.552,1.232 0,0.681 0,0" /></g><g
           transform="translate(499.2192,131.6108)"
           id="g218"><path
             id="path220"
             style="fill:#ffffff;fill-opacity:1;fill-rule:nonzero;stroke:none"
             d="m 0,0 c 0,-0.681 -0.552,-1.232 -1.232,-1.232 -0.681,0 -1.233,0.551 -1.233,1.232 0,0.681 0.552,1.232 1.233,1.232 C -0.552,1.232 0,0.681 0,0" /></g><g
           transform="translate(504.0601,124.2158)"
           id="g222"><path
             id="path224"
             style="fill:#ffffff;fill-opacity:1;fill-rule:nonzero;stroke:none"
             d="m 0,0 c 0,-0.681 -0.552,-1.232 -1.232,-1.232 -0.681,0 -1.233,0.551 -1.233,1.232 0,0.681 0.552,1.232 1.233,1.232 C -0.552,1.232 0,0.681 0,0" /></g></g></g><g
       id="g226"><g
         clip-path="url(#clipPath232)"
         id="g228"><g
           transform="translate(513.98,399.3657)"
           id="g234"><path
             id="path236"
             style="fill:#d3dace;fill-opacity:1;fill-rule:nonzero;stroke:none"
             d="m 0,0 c -1.947,-1.948 -4.434,-3.026 -6.979,-3.236 -0.17,-0.014 0.065,-0.257 -0.561,-0.396 -0.596,-0.132 -0.526,0.367 -0.729,0.37 -0.195,0.003 -0.005,0.527 -1.272,0.578 -0.522,0.022 -0.18,-0.453 -0.692,-0.344 -2.04,0.434 -3.984,1.443 -5.569,3.028 -2.587,2.586 -3.639,6.127 -3.159,9.489 0.021,0.142 -0.453,-0.091 -0.418,0.716 0.02,0.462 0.291,0.548 0.432,0.993 0.122,0.392 0.128,0.993 0.077,1.534 -0.064,0.675 0.957,0.141 1.073,0.362 0.512,0.974 1.178,1.888 1.996,2.707 1.07,1.07 2.302,1.878 3.618,2.423 0.371,0.154 0.223,0.645 0.512,0.76 1.955,0.783 1.424,-0.667 2.014,-0.454 0.252,0.091 0.649,0.479 0.913,0.511 2.297,0.282 4.137,-0.199 6.217,-1.341 0.536,-0.295 0.54,0.393 1.021,-0.008 1.128,-0.939 1.584,-1.306 1.652,-1.746 0.067,-0.447 0.122,-0.42 0.249,-0.56 0.452,-0.5 0.85,-1.03 1.194,-1.584 C 3.223,11.181 3.667,8.031 2.924,5.123 2.849,4.83 3.585,4.479 3.487,4.191 3.407,3.958 2.598,2.998 2.502,2.769 2.366,2.451 2.827,2.113 2.486,2.017 1.837,1.835 1.661,2.108 1.501,1.859 1.421,1.734 1.337,1.61 1.251,1.488 0.884,0.965 0.467,0.467 0,0" /></g><g
           transform="translate(499.0298,413.8862)"
           id="g238"><path
             id="path240"
             style="fill:#a5b19b;fill-opacity:1;fill-rule:nonzero;stroke:none"
             d="m 0,0 c -0.204,-0.606 -0.187,-1.416 0.596,-1.416 0.781,0 2.025,-0.138 1.835,0.951 C 2.375,-0.161 1.723,-0.763 0.943,-0.763 0.161,-0.763 0.194,0.579 0,0" /></g><g
           transform="translate(498.8325,413.7124)"
           id="g242"><path
             id="path244"
             style="fill:#ffffff;fill-opacity:1;fill-rule:nonzero;stroke:none"
             d="m 0,0 c 0,-0.523 0.564,0.654 1.343,0.654 0.782,0 1.343,-1.013 1.343,-0.491 0,0.211 -0.079,0.402 -0.224,0.556 C 2.349,0.84 2.155,0.873 1.965,0.938 1.797,0.997 1.563,1.125 1.343,1.125 1.068,1.125 0.883,1.024 0.666,0.909 0.267,0.698 0,0.339 0,0" /></g><g
           transform="translate(498.7134,413.7046)"
           id="g246"><path
             id="path248"
             style="fill:#c4ccbf;fill-opacity:1;fill-rule:nonzero;stroke:none"
             d="m 0,0 c 0,-0.156 0.119,-0.125 0.15,-0.246 0.067,-0.271 0.17,-0.526 0.458,-0.653 0.218,-0.097 0.68,-0.21 1.177,-0.042 0.438,0.149 0.515,0.083 0.736,0.306 0.101,0.102 0.176,0.22 0.226,0.351 0.029,0.078 0.024,0.155 0.024,0.239 C 2.771,0.03 2.902,0.12 2.88,0.19 2.821,0.369 2.691,0.529 2.51,0.655 2.456,0.693 2.308,0.727 2.133,0.783 1.995,0.828 1.961,0.815 1.801,0.847 1.676,0.872 1.636,0.998 1.501,0.998 1.374,0.999 1.252,0.935 1.135,0.913 0.657,0.825 0.279,0.57 0.144,0.245 0.107,0.158 0,0.094 0,0" /></g><g
           transform="translate(500.1548,414.0937)"
           id="g250"><path
             id="path252"
             style="fill:#a5b19b;fill-opacity:1;fill-rule:nonzero;stroke:none"
             d="M 0,0 C 0.664,0.127 1.435,-0.469 1.234,-0.117 1.016,0.264 0.146,0.48 -0.02,0.385 -0.187,0.289 -0.844,0.244 -0.995,0.114 -1.146,-0.015 -1.266,-0.338 -1.206,-0.515 -1.146,-0.692 -0.846,-0.162 0,0" /></g><g
           transform="translate(510.27,401.5986)"
           id="g254"><path
             id="path256"
             style="fill:#a5b19b;fill-opacity:1;fill-rule:nonzero;stroke:none"
             d="m 0,0 c -0.198,-0.423 -0.181,-0.987 0.576,-0.987 0.755,0 1.96,-0.096 1.775,0.662 C 2.298,-0.112 1.666,-0.533 0.911,-0.533 0.155,-0.533 0.187,0.403 0,0" /></g><g
           transform="translate(510.0806,401.4771)"
           id="g258"><path
             id="path260"
             style="fill:#ffffff;fill-opacity:1;fill-rule:nonzero;stroke:none"
             d="m 0,0 c 0,-0.365 0.543,0.456 1.299,0.456 0.756,0 1.298,-0.706 1.298,-0.342 0,0.146 -0.076,0.28 -0.217,0.387 C 2.27,0.586 2.084,0.608 1.899,0.654 1.736,0.695 1.511,0.784 1.299,0.784 1.032,0.784 0.853,0.714 0.642,0.634 0.257,0.486 0,0.236 0,0" /></g><g
           transform="translate(509.9634,401.4712)"
           id="g262"><path
             id="path264"
             style="fill:#c4ccbf;fill-opacity:1;fill-rule:nonzero;stroke:none"
             d="m 0,0 c 0,-0.108 0.117,-0.087 0.145,-0.171 0.065,-0.189 0.166,-0.366 0.443,-0.455 0.211,-0.068 0.66,-0.147 1.14,-0.029 0.423,0.103 0.497,0.056 0.712,0.213 0.097,0.07 0.169,0.153 0.217,0.245 0.029,0.054 0.023,0.108 0.023,0.166 0,0.052 0.129,0.115 0.107,0.164 C 2.729,0.257 2.602,0.369 2.429,0.457 2.376,0.483 2.233,0.507 2.064,0.546 1.931,0.578 1.897,0.569 1.742,0.591 1.622,0.608 1.584,0.696 1.453,0.696 1.33,0.697 1.211,0.652 1.099,0.637 0.637,0.576 0.271,0.398 0.139,0.17 0.104,0.111 0,0.066 0,0" /></g><g
           transform="translate(511.3569,401.7427)"
           id="g266"><path
             id="path268"
             style="fill:#a5b19b;fill-opacity:1;fill-rule:nonzero;stroke:none"
             d="M 0,0 C 0.645,0.089 1.389,-0.327 1.194,-0.081 0.983,0.184 0.144,0.335 -0.018,0.269 -0.179,0.202 -0.814,0.17 -0.961,0.08 -1.108,-0.01 -1.223,-0.235 -1.165,-0.359 -1.107,-0.482 -0.817,-0.113 0,0" /></g><g
           transform="translate(502.4155,408.7861)"
           id="g270"><path
             id="path272"
             style="fill:#a5b19b;fill-opacity:1;fill-rule:nonzero;stroke:none"
             d="m 0,0 c -0.378,-1.063 -0.346,-2.482 1.113,-2.482 1.457,0 3.783,-0.242 3.426,1.666 C 4.436,-0.282 3.22,-1.34 1.762,-1.34 0.305,-1.34 0.364,1.014 0,0" /></g><g
           transform="translate(502.0513,408.4814)"
           id="g274"><path
             id="path276"
             style="fill:#ffffff;fill-opacity:1;fill-rule:nonzero;stroke:none"
             d="M 0,0 C 0,-0.917 1.048,1.147 2.506,1.147 3.963,1.147 5.013,-0.63 5.013,0.286 5.013,0.654 4.865,0.99 4.594,1.26 4.382,1.473 4.023,1.529 3.667,1.645 3.352,1.747 2.917,1.972 2.506,1.972 1.993,1.972 1.646,1.795 1.24,1.594 0.496,1.223 0,0.594 0,0" /></g><g
           transform="translate(501.8267,408.4668)"
           id="g278"><path
             id="path280"
             style="fill:#c4ccbf;fill-opacity:1;fill-rule:nonzero;stroke:none"
             d="m 0,0 c 0,-0.273 0.225,-0.22 0.279,-0.43 0.126,-0.476 0.318,-0.922 0.856,-1.146 0.407,-0.169 1.271,-0.369 2.198,-0.073 0.816,0.261 0.96,0.144 1.375,0.537 0.188,0.177 0.327,0.386 0.42,0.615 0.052,0.137 0.044,0.272 0.044,0.419 0,0.131 0.247,0.289 0.204,0.412 C 5.266,0.647 5.021,0.927 4.686,1.148 4.584,1.216 4.309,1.274 3.982,1.374 3.726,1.452 3.66,1.43 3.36,1.485 3.13,1.528 3.056,1.751 2.803,1.751 2.565,1.751 2.337,1.639 2.117,1.602 1.228,1.448 0.523,1 0.268,0.429 0.2,0.278 0,0.165 0,0" /></g><g
           transform="translate(504.5151,409.1494)"
           id="g282"><path
             id="path284"
             style="fill:#a5b19b;fill-opacity:1;fill-rule:nonzero;stroke:none"
             d="M 0,0 C 1.243,0.224 2.682,-0.822 2.306,-0.205 1.898,0.464 0.276,0.842 -0.033,0.674 -0.345,0.507 -1.572,0.427 -1.854,0.201 -2.139,-0.026 -2.359,-0.593 -2.248,-0.903 -2.137,-1.213 -1.575,-0.283 0,0" /></g><g
           transform="translate(514.4976,410.0156)"
           id="g286"><path
             id="path288"
             style="fill:#a5b19b;fill-opacity:1;fill-rule:nonzero;stroke:none"
             d="m 0,0 c 0.101,-0.732 -0.156,-1.608 -1.204,-1.333 -1.048,0.275 -2.761,0.563 -2.192,1.683 0.16,0.313 0.863,-0.575 1.913,-0.85 C -0.436,-0.775 -0.096,0.7 0,0" /></g><g
           transform="translate(514.7104,409.7573)"
           id="g290"><path
             id="path292"
             style="fill:#ffffff;fill-opacity:1;fill-rule:nonzero;stroke:none"
             d="m 0,0 c -0.149,-0.569 -0.566,0.912 -1.615,1.187 -1.049,0.275 -2.093,-0.633 -1.944,-0.062 0.061,0.229 0.223,0.409 0.46,0.526 0.188,0.092 0.455,0.06 0.73,0.064 C -2.124,1.719 -1.776,1.777 -1.48,1.7 -1.11,1.603 -0.891,1.427 -0.632,1.226 -0.157,0.854 0.097,0.369 0,0" /></g><g
           transform="translate(514.8706,409.7065)"
           id="g294"><path
             id="path296"
             style="fill:#c4ccbf;fill-opacity:1;fill-rule:nonzero;stroke:none"
             d="m 0,0 c -0.045,-0.17 -0.198,-0.095 -0.271,-0.214 -0.168,-0.273 -0.379,-0.514 -0.803,-0.552 -0.321,-0.028 -0.975,0.011 -1.593,0.37 -0.544,0.316 -0.666,0.271 -0.9,0.593 -0.107,0.146 -0.173,0.302 -0.203,0.462 -0.015,0.094 0.014,0.177 0.037,0.268 0.022,0.082 -0.13,0.227 -0.08,0.295 0.13,0.174 0.352,0.302 0.629,0.376 C -3.1,1.621 -2.891,1.605 -2.64,1.606 -2.442,1.605 -2.401,1.58 -2.175,1.558 -2.002,1.541 -1.912,1.666 -1.73,1.617 -1.56,1.573 -1.413,1.46 -1.263,1.395 -0.647,1.132 -0.214,0.721 -0.123,0.317 -0.099,0.21 0.026,0.103 0,0" /></g><g
           transform="translate(513.0474,410.6382)"
           id="g298"><path
             id="path300"
             style="fill:#a5b19b;fill-opacity:1;fill-rule:nonzero;stroke:none"
             d="M 0,0 C -0.856,0.374 -2.063,-0.005 -1.691,0.308 -1.29,0.647 -0.062,0.576 0.135,0.413 0.331,0.25 1.201,-0.031 1.368,-0.225 1.534,-0.42 1.601,-0.814 1.471,-0.986 1.34,-1.157 1.088,-0.474 0,0" /></g><g
           transform="translate(500.7007,403.0557)"
           id="g302"><path
             id="path304"
             style="fill:#a5b19b;fill-opacity:1;fill-rule:nonzero;stroke:none"
             d="m 0,0 c 0.129,-0.582 0.117,-1.357 -0.381,-1.357 -0.5,0 -1.295,-0.133 -1.174,0.911 0.035,0.292 0.452,-0.286 0.951,-0.286 0.5,0 0.479,1.287 0.604,0.732" /></g><g
           transform="translate(500.8257,402.8892)"
           id="g306"><path
             id="path308"
             style="fill:#ffffff;fill-opacity:1;fill-rule:nonzero;stroke:none"
             d="m 0,0 c 0,-0.501 -0.359,0.627 -0.858,0.627 -0.5,0 -0.858,-0.972 -0.858,-0.471 0,0.201 0.05,0.385 0.143,0.532 0.072,0.117 0.195,0.148 0.317,0.211 0.108,0.057 0.257,0.179 0.398,0.179 0.176,0 0.294,-0.097 0.433,-0.207 C -0.17,0.668 0,0.324 0,0" /></g><g
           transform="translate(500.9019,402.8813)"
           id="g310"><path
             id="path312"
             style="fill:#c4ccbf;fill-opacity:1;fill-rule:nonzero;stroke:none"
             d="m 0,0 c 0,-0.15 -0.076,-0.121 -0.096,-0.235 -0.043,-0.261 -0.108,-0.505 -0.293,-0.627 -0.138,-0.093 -0.434,-0.201 -0.752,-0.04 -0.279,0.143 -0.329,0.078 -0.47,0.294 -0.065,0.096 -0.113,0.211 -0.145,0.336 -0.016,0.074 -0.015,0.148 -0.015,0.23 0,0.07 -0.084,0.157 -0.07,0.224 0.038,0.172 0.121,0.324 0.237,0.445 0.035,0.037 0.128,0.069 0.241,0.123 0.088,0.043 0.109,0.031 0.212,0.062 0.08,0.023 0.105,0.145 0.192,0.145 0.081,0 0.159,-0.061 0.234,-0.082 C -0.421,0.791 -0.179,0.546 -0.091,0.234 -0.067,0.152 0,0.089 0,0" /></g><g
           transform="translate(499.9819,403.2549)"
           id="g314"><path
             id="path316"
             style="fill:#a5b19b;fill-opacity:1;fill-rule:nonzero;stroke:none"
             d="M 0,0 C -0.426,0.121 -0.919,-0.45 -0.79,-0.113 -0.65,0.252 -0.095,0.459 0.011,0.368 0.117,0.277 0.538,0.232 0.635,0.109 0.732,-0.015 0.807,-0.325 0.77,-0.495 0.731,-0.664 0.539,-0.156 0,0" /></g></g></g><g
       id="g318"><g
         clip-path="url(#clipPath324)"
         id="g320"><g
           transform="translate(143.8799,268.3564)"
           id="g326"><path
             id="path328"
             style="fill:#edb54b;fill-opacity:1;fill-rule:nonzero;stroke:none"
             d="m 0,0 h -8.403 c 0,0 0.081,-8.152 1.232,-14.311 1.586,-8.483 5.288,-15.145 7.171,-16.614 1.883,1.469 5.585,8.131 7.171,16.614 C 8.322,-8.152 8.404,0 8.404,0 Z" /></g><g
           transform="translate(143.6924,268.3569)"
           id="g330"><path
             id="path332"
             style="fill:#fecc61;fill-opacity:1;fill-rule:nonzero;stroke:none"
             d="m 0,0 h -5.804 c 0,0 0.113,-9.235 0.926,-14.124 1.12,-6.734 3.735,-12.022 5.066,-13.188 1.332,1.166 3.947,6.454 5.067,13.188 C 6.068,-9.235 6.181,0 6.181,0 Z" /></g><g
           transform="translate(157.9229,267.9727)"
           id="g334"><path
             id="path336"
             style="fill:#ffffff;fill-opacity:1;fill-rule:nonzero;stroke:none"
             d="m 0,0 -5.638,3.604 v -3.22 h -16.809 v 3.22 L -28.085,0 l 4.314,-12.409 -0.233,10.226 0.465,0.162 -0.008,-0.019 h 19.008 l -0.008,0.019 0.466,-0.162 -0.233,-10.226 z" /></g><g
           transform="translate(152.2842,268.3564)"
           id="g338"><path
             id="path340"
             style="fill:#67b0df;fill-opacity:1;fill-rule:nonzero;stroke:none"
             d="m 0,0 h -16.808 v 21.694 c 0,0 -0.31,7.571 8.405,7.571 C 0.312,29.265 0,21.694 0,21.694 Z" /></g><g
           transform="translate(143.7451,296.7656)"
           id="g342"><path
             id="path344"
             style="fill:#80cbf1;fill-opacity:1;fill-rule:nonzero;stroke:none"
             d="m 0,0 c -0.216,0.013 -0.419,0.036 -0.65,0.036 -6.954,0 -6.706,-6.83 -6.706,-6.83 v -21.615 h 1.299 v 21.615 c 0,0 -0.211,6.419 6.057,6.794" /></g><g
           transform="translate(147.4375,288.5933)"
           id="g346"><path
             id="path348"
             style="fill:#292929;fill-opacity:1;fill-rule:nonzero;stroke:none"
             d="m 0,0 c 0,-1.965 -1.592,-3.557 -3.557,-3.557 -1.964,0 -3.556,1.592 -3.556,3.557 0,1.964 1.592,3.557 3.556,3.557 C -1.592,3.557 0,1.964 0,0" /></g></g></g><g
       id="g350"><g
         clip-path="url(#clipPath356)"
         id="g352"><g
           transform="translate(441.687,267.2432)"
           id="g358"><path
             id="path360"
             style="fill:#fecc61;fill-opacity:1;fill-rule:nonzero;stroke:none"
             d="m 0,0 c 0.131,-7.357 4.598,-16.027 5.124,-22.202 0.301,-3.534 -3.073,-1.532 -3.241,-3.199 -3.731,-36.713 -28.265,-67.273 -61.628,-79.707 -1.485,-0.554 2.623,-3.072 0.617,-5.846 -1.326,-1.834 -15.537,-1.701 -25.58,-1.799 -12.438,-0.123 -19.802,-3.98 -21.412,-3.505 -4.887,1.437 -2.18,6.371 -3.403,6.584 -16.07,2.791 -30.761,9.602 -42.999,19.359 -3.074,2.45 -9.25,6.252 -8.782,10.477 0.442,3.974 -8.559,-0.373 -10.984,2.816 -2.059,2.709 1.878,5.539 -3.567,8.262 -1.378,0.689 -0.414,4.843 -1.662,5.755 -2.196,1.602 -0.311,3.426 -0.644,4.078 -6.621,12.993 -10.356,27.702 -10.356,43.285 0,21.186 6.904,40.761 18.583,56.597 0.742,1.003 -5.337,4.437 -2.823,6.753 5.338,4.919 10.981,7.992 15.492,11.096 3.407,2.342 3.414,6.846 7.223,7.432 2.723,0.418 5.205,-3.119 6.7,-3.036 1.884,0.105 1.844,2.152 2.617,2.617 0.983,0.591 0.507,1.556 1.513,2.113 13.676,7.566 29.404,11.874 46.141,11.874 5.209,0 7.16,0.037 12.141,-0.765 1.915,-0.309 -0.242,1.946 1.74,2.715 1.07,0.415 3.08,-1.528 4.8,-2.122 2.13,-0.736 7.931,-2.499 9.482,-2.973 1.356,-0.415 3.159,-1.154 5.392,-1.451 2.721,-0.364 3.671,0.376 5.177,-0.66 2.724,-1.872 -0.872,-2.519 1.162,-3.456 22.81,-10.509 40.766,-29.751 49.584,-53.44 0.403,-1.083 4.303,5.803 4.38,-0.443 C 0.849,12.212 -0.187,10.433 0,0" /></g><g
           transform="translate(335.5669,150.9849)"
           id="g362"><path
             id="path364"
             style="fill:#edb54b;fill-opacity:1;fill-rule:nonzero;stroke:none"
             d="m 0,0 c 1.61,-0.475 8.974,3.382 21.412,3.505 10.043,0.099 24.254,-0.034 25.58,1.8 2.006,2.773 -2.102,5.292 -0.617,5.845 33.363,12.434 57.897,42.995 61.628,79.707 0.168,1.667 3.542,-0.335 3.241,3.2 -0.526,6.174 -4.993,14.844 -5.124,22.201 -0.187,10.433 0.849,12.212 0.787,17.21 -0.077,6.245 -3.977,-0.64 -4.38,0.442 -8.818,23.689 -26.774,42.931 -49.584,53.44 -2.034,0.937 1.562,1.585 -1.162,3.457 -1.506,1.035 -2.456,0.296 -5.177,0.659 -2.233,0.297 -4.036,1.036 -5.392,1.451 -1.551,0.474 -7.352,2.238 -9.482,2.973 -1.72,0.594 -3.73,2.538 -4.799,2.123 -1.983,-0.77 0.174,-3.025 -1.741,-2.716 -2.396,0.386 -4.091,0.577 -5.785,0.672 1.822,-1.187 3.669,-2.438 5.533,-3.754 3.766,-2.659 10.507,-4.903 14.332,-8.113 6.611,-5.55 10.287,-12.631 16.455,-19.966 4.693,-5.581 16.862,-10.208 20.626,-16.895 4.797,-8.527 0.33,-5.334 2.851,-15.798 3.518,-14.589 4.72,-12.381 2.194,-28.193 C 79.496,91.354 84.707,59.773 59.913,33.225 47.468,19.896 8.324,12.414 -14.168,9.11 -10.66,8.068 -7.067,7.221 -3.403,6.584 -2.18,6.371 -4.887,1.437 0,0" /></g><g
           transform="translate(315.061,237.918)"
           id="g366"><path
             id="path368"
             style="fill:#bd923e;fill-opacity:1;fill-rule:nonzero;stroke:none"
             d="m 0,0 44.223,13.286 c 0,0 0.885,-12.235 -5.833,-18.634 -1.409,-1.341 -4.092,-3.357 -6.242,-4.298 -2.388,-1.046 -3.036,-2.18 -6.543,-2.422 -2.599,-0.18 -10.803,0.086 -12.964,0.648 C 2.115,-8.688 0,0 0,0" /></g><g
           transform="translate(334.1675,272.9429)"
           id="g370"><path
             id="path372"
             style="fill:#ffda91;fill-opacity:1;fill-rule:nonzero;stroke:none"
             d="m 0,0 c 12.381,0 22.515,-9.586 23.401,-21.74 0.042,0.573 1.688,0.944 1.819,1.512 1.218,5.306 -0.753,12.04 -4.491,15.918 -3.568,3.703 -9.268,5.216 -14.437,6.437 -2.022,0.478 -6.793,1.336 -8.873,1.336 -12.963,0 -20.527,-12.62 -20.527,-25.584 0,-0.583 2.568,0.954 2.609,0.381 C -19.612,-9.586 -12.38,0 0,0" /></g><g
           transform="translate(360.1587,251.2026)"
           id="g374"><path
             id="path376"
             style="fill:#edb54b;fill-opacity:1;fill-rule:nonzero;stroke:none"
             d="m 0,0 c 0,-8.833 -5.002,-15.915 -12.912,-20.062 -1.631,-0.856 -3.404,-2.96 -5.165,-3.474 -2.28,-0.666 -5.554,-0.409 -7.914,-0.41 -13.015,0 -23.566,10.551 -23.566,23.566 0,13.015 10.551,23.566 23.566,23.566 C -12.977,23.186 0,13.015 0,0" /></g><g
           transform="translate(332.2798,269.209)"
           id="g378"><path
             id="path380"
             style="fill:#bd923e;fill-opacity:1;fill-rule:nonzero;stroke:none"
             d="m 0,0 c 2.783,0.722 10.5,0.216 13.879,-2.158 4.99,-3.503 8.888,-3.379 11.431,-10.413 -0.096,0.503 -0.491,2.05 -0.656,2.543 C 21.605,-0.936 8.258,6.36 -3.801,3.046 c -12.057,-3.315 -19.347,-15.045 -16.281,-26.2 0.139,-0.502 0.301,-0.991 0.475,-1.472 -0.918,4.788 -0.577,10.001 2.388,13.767 0.832,1.057 3.5,3.827 4.49,4.746 1.293,1.203 4.393,1.599 5.825,2.517 C -4.632,-2.138 -2.14,-0.555 0,0" /></g><g
           transform="translate(331.2173,231.9863)"
           id="g382"><path
             id="path384"
             style="fill:#fecc61;fill-opacity:1;fill-rule:nonzero;stroke:none"
             d="m 0,0 c -8.069,0.742 -15.528,7.018 -15.317,6.709 3.467,-5.068 9.233,-9.331 18.391,-9.74 1.156,-0.052 5.796,-0.508 6.959,-0.167 1.791,0.525 2.854,1.957 3.429,2.315 2.987,1.861 5.372,2.871 6.941,4.383 3.593,3.463 4.342,8.103 4.665,13.206 0.025,0.372 -2.761,-6.31 -7.316,-9.094 C 14.717,0.174 7.196,-0.661 0,0" /></g><g
           transform="translate(378.5454,190.6274)"
           id="g386"><path
             id="path388"
             style="fill:#bd923e;fill-opacity:1;fill-rule:nonzero;stroke:none"
             d="m 0,0 23.755,7.137 c 0,0 0.475,-6.573 -3.134,-10.01 -0.756,-0.721 -2.196,-1.804 -3.351,-2.309 -1.284,-0.562 -1.631,-1.171 -3.515,-1.3 C 12.358,-6.579 7.951,-6.437 6.79,-6.135 1.138,-4.666 0,0 0,0" /></g><g
           transform="translate(388.8081,209.4419)"
           id="g390"><path
             id="path392"
             style="fill:#ffda91;fill-opacity:1;fill-rule:nonzero;stroke:none"
             d="m 0,0 c 6.651,0 12.096,-5.15 12.571,-11.679 0.023,0.308 0.908,0.507 0.978,0.814 0.653,2.849 -0.405,6.467 -2.413,8.55 -1.917,1.989 -4.979,2.801 -7.755,3.458 -1.087,0.255 -3.65,0.716 -4.767,0.716 -6.963,0 -11.027,-6.779 -11.027,-13.742 0,-0.312 1.38,0.512 1.402,0.204 C -10.534,-5.15 -6.649,0 0,0" /></g><g
           transform="translate(402.77,197.7632)"
           id="g394"><path
             id="path396"
             style="fill:#edb54b;fill-opacity:1;fill-rule:nonzero;stroke:none"
             d="m 0,0 c 0,-4.745 -2.686,-8.55 -6.936,-10.776 -0.875,-0.459 -1.828,-1.59 -2.773,-1.867 -1.226,-0.358 -2.984,-0.219 -4.253,-0.219 -6.99,0 -12.657,5.667 -12.657,12.658 0,6.992 5.667,12.659 12.657,12.659 C -6.97,12.455 0,6.991 0,0" /></g><g
           transform="translate(387.7944,207.436)"
           id="g398"><path
             id="path400"
             style="fill:#bd923e;fill-opacity:1;fill-rule:nonzero;stroke:none"
             d="m 0,0 c 1.495,0.389 5.641,0.115 7.456,-1.158 2.68,-1.883 4.773,-1.817 6.141,-5.596 -0.052,0.272 -0.265,1.102 -0.353,1.367 -1.638,4.884 -8.807,8.803 -15.285,7.024 -6.477,-1.782 -10.394,-8.082 -8.746,-14.075 0.074,-0.269 0.162,-0.533 0.256,-0.791 -0.493,2.573 -0.311,5.373 1.282,7.395 0.447,0.568 1.881,2.057 2.412,2.551 0.695,0.645 2.359,0.859 3.129,1.351 C -2.486,-1.148 -1.149,-0.299 0,0" /></g><g
           transform="translate(387.2241,187.4419)"
           id="g402"><path
             id="path404"
             style="fill:#fecc61;fill-opacity:1;fill-rule:nonzero;stroke:none"
             d="m 0,0 c -4.335,0.398 -8.342,3.769 -8.228,3.603 1.862,-2.722 4.959,-5.013 9.88,-5.232 0.62,-0.027 3.113,-0.273 3.737,-0.09 0.963,0.282 1.533,1.051 1.842,1.244 1.605,0.998 2.886,1.541 3.729,2.354 1.93,1.861 2.332,4.352 2.507,7.094 C 13.479,9.172 11.982,5.584 9.536,4.088 7.905,0.092 3.866,-0.355 0,0" /></g><g
           transform="translate(392.7163,256.9287)"
           id="g406"><path
             id="path408"
             style="fill:#bd923e;fill-opacity:1;fill-rule:nonzero;stroke:none"
             d="m 0,0 29.902,5.698 c 0,0 0.539,-7.455 -3.554,-11.355 C 25.489,-6.475 23.855,-7.703 22.545,-8.276 21.09,-8.913 20.696,-9.604 18.559,-9.752 16.975,-9.861 11.06,-9.416 9.741,-9.074 3.328,-7.409 0,0 0,0" /></g><g
           transform="translate(407.313,275.8745)"
           id="g410"><path
             id="path412"
             style="fill:#ffda91;fill-opacity:1;fill-rule:nonzero;stroke:none"
             d="m 0,0 c 7.546,0 13.721,-5.842 14.261,-13.249 0.026,0.35 -0.068,1.789 0.013,2.136 0.742,3.233 -2.847,6.522 -4.468,8.691 C 7.653,0.46 4.848,0.909 1.699,1.653 0.465,1.944 -2.553,1.152 -3.79,0.88 c -7.208,-1.582 -12.529,-6.229 -12.529,-14.128 0,-0.356 3.802,0.349 3.829,-0.001 C -11.95,-5.842 -7.543,0 0,0" /></g><g
           transform="translate(423.1528,262.626)"
           id="g414"><path
             id="path416"
             style="fill:#edb54b;fill-opacity:1;fill-rule:nonzero;stroke:none"
             d="m 0,0 c 0,-5.383 -3.049,-9.698 -7.868,-12.226 -0.993,-0.521 -2.075,-1.803 -3.148,-2.117 -1.39,-0.406 -3.384,-0.249 -4.824,-0.249 -7.93,0 -16.324,6.414 -16.324,14.345 0,7.932 8.394,14.376 16.324,14.376 C -7.907,14.129 0,7.931 0,0" /></g><g
           transform="translate(406.1636,273.5986)"
           id="g418"><path
             id="path420"
             style="fill:#bd923e;fill-opacity:1;fill-rule:nonzero;stroke:none"
             d="m 0,0 c 1.695,0.44 6.398,0.132 8.458,-1.314 3.04,-2.135 3.166,1.413 4.717,-2.873 -0.059,0.306 1.949,-2.224 1.849,-1.923 -1.858,5.54 -9.992,9.986 -17.339,7.966 -7.348,-2.019 -15.739,-10.327 -9.922,-15.965 0.227,-0.221 -0.636,3.681 -0.53,3.387 -0.559,2.918 1.351,4.354 3.159,6.648 0.505,0.644 1.945,1.063 2.546,1.623 0.789,0.733 2.95,1.273 3.823,1.832 C -1.854,0.27 -1.304,-0.338 0,0" /></g><g
           transform="translate(415.5688,253.6797)"
           id="g422"><path
             id="path424"
             style="fill:#fecc61;fill-opacity:1;fill-rule:nonzero;stroke:none"
             d="M 0,0 C 3.934,2.885 5.843,8.483 5.827,8.254 5.606,4.525 3.951,0.507 -0.647,-2.541 -1.229,-2.925 -3.479,-4.6 -4.186,-4.78 c -1.085,-0.28 -2.076,0.144 -2.484,0.153 -2.115,0.052 -3.658,-0.156 -4.935,0.152 -2.924,0.704 -4.748,2.905 -6.492,5.482 -0.13,0.186 3.376,-2.455 6.585,-2.507 C -7.644,-4.461 -3.506,-2.572 0,0" /></g><g
           transform="translate(272.9233,252.6997)"
           id="g426"><path
             id="path428"
             style="fill:#bd923e;fill-opacity:1;fill-rule:nonzero;stroke:none"
             d="m 0,0 17.034,5.118 c 0,0 0.342,-4.713 -2.246,-7.178 C 14.245,-2.577 13.212,-3.354 12.384,-3.716 11.464,-4.119 11.215,-4.555 9.863,-4.649 8.862,-4.718 5.701,-4.616 4.868,-4.399 0.814,-3.347 0,0 0,0" /></g><g
           transform="translate(280.2817,266.1914)"
           id="g430"><path
             id="path432"
             style="fill:#ffda91;fill-opacity:1;fill-rule:nonzero;stroke:none"
             d="m 0,0 c 4.771,0 8.674,-3.692 9.016,-8.375 0.016,0.221 0.65,0.364 0.701,0.583 0.469,2.044 -0.291,4.638 -1.731,6.132 -1.375,1.427 -3.57,2.009 -5.56,2.48 -0.78,0.184 -2.617,0.514 -3.419,0.514 -4.993,0 -7.907,-4.861 -7.907,-9.855 0,-0.224 0.988,0.367 1.005,0.146 C -7.554,-3.692 -4.768,0 0,0" /></g><g
           transform="translate(290.2954,257.8169)"
           id="g434"><path
             id="path436"
             style="fill:#edb54b;fill-opacity:1;fill-rule:nonzero;stroke:none"
             d="m 0,0 c 0,-3.402 -1.927,-6.131 -4.975,-7.729 -0.628,-0.329 -1.31,-1.14 -1.989,-1.337 -0.878,-0.257 -2.14,-0.158 -3.05,-0.158 -5.011,0 -9.076,4.064 -9.076,9.078 0,5.013 4.065,9.077 9.076,9.077 C -4.998,8.931 0,5.014 0,0" /></g><g
           transform="translate(279.5552,264.7534)"
           id="g438"><path
             id="path440"
             style="fill:#bd923e;fill-opacity:1;fill-rule:nonzero;stroke:none"
             d="M 0,0 C 1.072,0.278 4.045,0.083 5.347,-0.832 7.27,-2.181 8.77,-2.133 9.75,-4.843 9.714,-4.649 9.562,-4.053 9.498,-3.863 8.323,-0.36 3.182,2.45 -1.463,1.173 -6.108,-0.104 -8.916,-4.622 -7.735,-8.919 c 0.053,-0.194 0.116,-0.382 0.182,-0.568 -0.353,1.845 -0.222,3.853 0.921,5.303 0.32,0.408 1.349,1.475 1.729,1.829 0.499,0.463 1.692,0.616 2.244,0.97 C -1.783,-0.824 -0.824,-0.214 0,0" /></g><g
           transform="translate(279.146,250.4146)"
           id="g442"><path
             id="path444"
             style="fill:#fecc61;fill-opacity:1;fill-rule:nonzero;stroke:none"
             d="m 0,0 c -3.108,0.286 -5.981,2.703 -5.899,2.584 1.335,-1.952 3.555,-3.594 7.084,-3.751 0.445,-0.02 2.232,-0.197 2.679,-0.065 0.692,0.202 1.1,0.754 1.322,0.892 1.151,0.716 2.07,1.106 2.674,1.689 1.383,1.333 1.672,3.12 1.798,5.087 C 9.667,6.579 8.593,4.004 6.839,2.932 5.67,0.067 2.772,-0.254 0,0" /></g><g
           transform="translate(288.0532,301.9258)"
           id="g446"><path
             id="path448"
             style="fill:#bd923e;fill-opacity:1;fill-rule:nonzero;stroke:none"
             d="m 0,0 23.446,4.322 c 0,0 0.47,-3.981 -3.092,-6.062 -0.747,-0.437 -2.168,-1.093 -3.309,-1.399 -1.266,-0.34 -1.609,-0.709 -3.469,-0.788 C 12.198,-3.985 7.848,-3.898 6.701,-3.716 1.121,-2.827 0,0 0,0" /></g><g
           transform="translate(298.1821,313.3203)"
           id="g450"><path
             id="path452"
             style="fill:#ffda91;fill-opacity:1;fill-rule:nonzero;stroke:none"
             d="m 0,0 c 6.564,0 11.939,-3.119 12.408,-7.073 0.024,0.187 0.896,0.307 0.965,0.492 0.646,1.727 -0.399,3.917 -2.382,5.179 C 9.1,-0.197 6.078,0.295 3.337,0.693 2.265,0.848 -0.265,1.127 -1.367,1.127 c -6.873,0 -10.884,-4.106 -10.884,-8.323 0,-0.191 1.361,0.31 1.384,0.123 C -10.396,-3.119 -6.562,0 0,0" /></g><g
           transform="translate(311.9644,306.2471)"
           id="g454"><path
             id="path456"
             style="fill:#edb54b;fill-opacity:1;fill-rule:nonzero;stroke:none"
             d="m 0,0 c 0,-2.873 -2.653,-5.178 -6.847,-6.527 -0.863,-0.278 -1.804,-0.963 -2.738,-1.13 -1.209,-0.217 -2.945,-0.133 -4.197,-0.133 -6.899,0 -12.493,3.433 -12.493,7.667 0,4.234 5.594,7.667 12.493,7.667 C -6.88,7.544 0,4.235 0,0" /></g><g
           transform="translate(297.1821,312.1055)"
           id="g458"><path
             id="path460"
             style="fill:#bd923e;fill-opacity:1;fill-rule:nonzero;stroke:none"
             d="m 0,0 c 1.476,0.235 5.567,0.07 7.359,-0.701 2.645,-1.141 4.712,-1.1 6.061,-3.389 -0.051,0.164 -0.26,0.667 -0.348,0.828 -1.617,2.958 -8.693,5.332 -15.086,4.253 -6.393,-1.078 -10.259,-4.894 -8.633,-8.524 0.073,-0.163 0.16,-0.322 0.252,-0.479 -0.488,1.558 -0.306,3.254 1.266,4.479 0.441,0.344 1.857,1.245 2.38,1.545 0.687,0.391 2.33,0.52 3.089,0.819 C -2.455,-0.695 -1.134,-0.18 0,0" /></g><g
           transform="translate(296.6187,299.9956)"
           id="g462"><path
             id="path464"
             style="fill:#fecc61;fill-opacity:1;fill-rule:nonzero;stroke:none"
             d="m 0,0 c -4.278,0.241 -8.232,2.283 -8.12,2.183 1.838,-1.649 4.894,-3.036 9.751,-3.169 0.612,-0.017 3.073,-0.165 3.688,-0.055 0.95,0.171 1.514,0.637 1.819,0.754 1.584,0.605 2.848,0.934 3.68,1.426 1.906,1.126 2.303,2.636 2.474,4.296 C 13.306,5.556 11.827,3.382 9.413,2.476 7.804,0.057 3.816,-0.215 0,0" /></g><g
           transform="translate(365.7056,310.6768)"
           id="g466"><path
             id="path468"
             style="fill:#bd923e;fill-opacity:1;fill-rule:nonzero;stroke:none"
             d="m 0,0 26.696,3.349 c 0,0 -2.378,-9.314 -12.856,-9.481 C 4.628,-6.279 0,0 0,0" /></g><g
           transform="translate(389.1401,309.2837)"
           id="g470"><path
             id="path472"
             style="fill:#bd923e;fill-opacity:1;fill-rule:nonzero;stroke:none"
             d="m 0,0 -8.817,17.737 c 0,0 10.697,1.135 12.897,-6.174 C 6.014,5.14 0,0 0,0" /></g><g
           transform="translate(376.4907,327.8403)"
           id="g474"><path
             id="path476"
             style="fill:#ffda91;fill-opacity:1;fill-rule:nonzero;stroke:none"
             d="m 0,0 c 6.828,0 12.418,-4.757 12.908,-10.789 0.023,0.284 1.344,0.912 1.344,1.201 0,5.362 -4.35,9.285 -10.133,10.562 -1.155,0.255 -4.062,1.011 -5.253,1.011 -2.725,0 -4.919,-2.013 -7.005,-3.308 -3.385,-2.1 -4.807,-4.626 -4.807,-8.607 0,-0.289 0.015,-0.575 0.039,-0.859 C -12.418,-4.757 -6.828,0 0,0" /></g><g
           transform="translate(393.3335,317.0513)"
           id="g478"><path
             id="path480"
             style="fill:#edb54b;fill-opacity:1;fill-rule:nonzero;stroke:none"
             d="m 0,0 c 0,-6.459 -7.815,-11.884 -15.653,-11.884 -7.838,0 -14.192,5.236 -14.192,11.696 0,4.844 3.017,8.794 8.112,10.569 0.787,0.275 2.121,0.161 2.974,0.316 0.986,0.178 2.057,0.809 3.106,0.809 C -7.815,11.506 0,6.459 0,0" /></g><g
           transform="translate(374.7349,325.1558)"
           id="g482"><path
             id="path484"
             style="fill:#bd923e;fill-opacity:1;fill-rule:nonzero;stroke:none"
             d="M 0,0 C 1.272,0.274 2.581,0.912 4.125,0.895 8.754,0.846 14.51,-1.446 16.07,-4.963 16.017,-4.732 15.796,-4.023 15.703,-3.796 14.256,-0.273 8.602,2.633 2.724,2.498 1.649,2.473 0.715,1.916 -0.351,1.673 -1.349,1.446 -2.434,1.569 -3.309,1.194 c -5.17,-2.222 -8.031,-6.82 -6.563,-11.196 0.078,-0.23 0.17,-0.454 0.267,-0.675 -0.608,2.622 0.484,5.624 2.794,7.525 C -4.801,-1.498 -2.176,-0.468 0,0" /></g><g
           transform="translate(384.9185,309.5273)"
           id="g486"><path
             id="path488"
             style="fill:#fecc61;fill-opacity:1;fill-rule:nonzero;stroke:none"
             d="M 0,0 C 4.464,2.131 7.561,6.68 7.496,6.491 6.32,2.989 1.695,-2.057 -4.736,-3.039 c -6.433,-0.982 -9.267,0.09 -12.765,4.244 -0.121,0.144 3.264,-2.74 5.983,-1.625 C -8.42,-3.181 -3.98,-1.9 0,0" /></g><g
           transform="translate(309.981,192.4722)"
           id="g490"><path
             id="path492"
             style="fill:#bd923e;fill-opacity:1;fill-rule:nonzero;stroke:none"
             d="m 0,0 21.482,2.694 c 0,0 -1.913,-7.494 -10.345,-7.629 C 3.725,-5.052 0,0 0,0" /></g><g
           transform="translate(328.8384,191.3521)"
           id="g494"><path
             id="path496"
             style="fill:#bd923e;fill-opacity:1;fill-rule:nonzero;stroke:none"
             d="m 0,0 -7.096,14.271 c 0,0 8.61,0.915 10.379,-4.966 C 4.84,4.135 0,0 0,0" /></g><g
           transform="translate(318.6597,206.2837)"
           id="g498"><path
             id="path500"
             style="fill:#ffda91;fill-opacity:1;fill-rule:nonzero;stroke:none"
             d="m 0,0 c 5.495,0 9.992,-3.828 10.388,-8.682 0.017,0.229 1.081,0.733 1.081,0.967 0,4.315 -3.501,7.471 -8.154,8.498 -0.929,0.205 -3.269,0.815 -4.227,0.815 -2.193,0 -3.958,-1.621 -5.637,-2.662 -2.724,-1.691 -3.868,-3.723 -3.868,-6.926 0,-0.234 0.013,-0.463 0.031,-0.692 C -9.993,-3.828 -5.495,0 0,0" /></g><g
           transform="translate(332.2134,197.6021)"
           id="g502"><path
             id="path504"
             style="fill:#edb54b;fill-opacity:1;fill-rule:nonzero;stroke:none"
             d="m 0,0 c 0,-5.197 -6.289,-9.563 -12.596,-9.563 -6.307,0 -11.42,4.213 -11.42,9.411 0,3.898 2.427,7.076 6.527,8.506 0.634,0.22 1.708,0.129 2.393,0.253 0.793,0.144 1.656,0.652 2.5,0.652 C -6.289,9.259 0,5.197 0,0" /></g><g
           transform="translate(317.2466,204.1235)"
           id="g506"><path
             id="path508"
             style="fill:#bd923e;fill-opacity:1;fill-rule:nonzero;stroke:none"
             d="m 0,0 c 1.023,0.221 2.078,0.732 3.32,0.721 3.725,-0.039 8.358,-1.885 9.612,-4.715 -0.043,0.185 -0.22,0.757 -0.295,0.939 C 11.473,-0.22 6.922,2.119 2.192,2.01 1.328,1.99 0.574,1.541 -0.281,1.347 -1.084,1.164 -1.958,1.262 -2.662,0.96 c -4.161,-1.787 -6.461,-5.487 -5.281,-9.009 0.062,-0.185 0.135,-0.365 0.214,-0.543 -0.488,2.11 0.389,4.526 2.249,6.055 1.618,1.332 3.729,2.16 5.48,2.537" /></g><g
           transform="translate(325.4419,191.5474)"
           id="g510"><path
             id="path512"
             style="fill:#fecc61;fill-opacity:1;fill-rule:nonzero;stroke:none"
             d="m 0,0 c 3.592,1.715 6.084,5.375 6.033,5.224 -0.947,-2.82 -4.668,-6.88 -9.845,-7.669 -5.176,-0.79 -7.456,0.072 -10.271,3.414 -0.097,0.116 2.626,-2.205 4.814,-1.307 C -6.775,-2.561 -3.203,-1.529 0,0" /></g></g></g></g></svg>