<?xml version="1.0" encoding="utf-8"?>
<!-- Generator: Adobe Illustrator 19.2.1, SVG Export Plug-In . SVG Version: 6.00 Build 0)  -->
<svg version="1.1" xmlns="http://www.w3.org/2000/svg" xmlns:xlink="http://www.w3.org/1999/xlink" x="0px" y="0px" id='rocketsvg'
	 viewBox="0 0 700 500" enable-background="new 0 0 700 500" xml:space="preserve">
<g id="Layer_11">
	<!-- <ellipse id="Orbit" fill="#FFFFFF" cx="425.552" cy="250" rx="178.484" ry="170.645"/> -->
	<path id='orbit' 
			d="
			M 250, 250
			m -75, 0
			a 100,100 0 1,0 200,0
			a 100,100 0 1,0 -200,0
			"
	/>
	<rect x="-704.86" y="-533.878" fill="#353251" width="2358.598" height="1542.154"/>
</g>
<g id="Layer_19">
	<g id="Layer_18">
		<path fill="#D2D9CC" d="M185.205,199.329c0,5.422-1.96,10.385-5.212,14.22c-0.218,0.256,0.448,0.268-0.229,1.331
			c-0.646,1.015-1.243,0.223-1.529,0.499c-0.276,0.267-0.741-0.725-2.577,0.966c-0.756,0.695,0.381,0.882-0.483,1.444
			c-3.444,2.237-7.553,3.537-11.967,3.537c-7.203,0-13.598-3.462-17.609-8.813c-0.17-0.226-0.506,0.758-1.579-0.413
			c-0.615-0.672-0.357-1.171-0.781-1.984c-0.373-0.717-1.203-1.561-2.027-2.244c-1.028-0.851,1.137-1.528,0.99-1.999
			c-0.644-2.068-0.99-4.266-0.99-6.545c0-2.98,0.592-5.82,1.665-8.412c0.303-0.73-0.589-1.208-0.349-1.77
			c1.635-3.812,2.913-1.054,3.438-2.171c0.224-0.476,0.236-1.57,0.559-1.983c2.805-3.589,6.037-5.481,10.523-6.787
			c1.155-0.336,0.204-1.298,1.433-1.411c2.877-0.264,4.024-0.387,4.728,0.132c0.717,0.528,0.755,0.414,1.128,0.433
			c1.324,0.067,2.618,0.251,3.869,0.542c5.921,1.376,10.925,5.142,13.938,10.226c0.304,0.512,1.818-0.024,2.08,0.513
			c0.213,0.436,0.424,2.899,0.608,3.35c0.256,0.631,1.368,0.461,1.026,1.069c-0.651,1.158-1.275,1.022-1.151,1.591
			c0.062,0.287,0.118,0.575,0.169,0.866C185.092,196.754,185.205,198.028,185.205,199.329z"/>
	</g>
	<g id="Layer_13">
		<path fill="#A3AE98" d="M159.385,183.691c0.494,1.193,0.449,2.788-1.444,2.788c-1.892,0-4.915,0.271-4.449-1.872
			c0.131-0.6,1.714,0.587,3.606,0.587C158.992,185.195,158.913,182.552,159.385,183.691z"/>
		<path fill="#FFFFFF" d="M159.859,184.034c0,1.029-1.362-1.289-3.256-1.289c-1.894,0-3.255,1.997-3.255,0.967
			c0-0.413,0.191-0.79,0.543-1.093c0.277-0.24,0.742-0.303,1.205-0.433c0.41-0.115,0.974-0.368,1.507-0.368
			c0.668,0,1.118,0.199,1.645,0.425C159.216,182.66,159.859,183.367,159.859,184.034z"/>
		<path fill="#C3CBBD" d="M160.151,184.05c0,0.306-0.292,0.247-0.363,0.482c-0.162,0.535-0.413,1.037-1.111,1.288
			c-0.528,0.19-1.651,0.414-2.855,0.082c-1.061-0.293-1.247-0.162-1.785-0.603c-0.244-0.2-0.427-0.434-0.545-0.691
			c-0.07-0.153-0.059-0.305-0.059-0.47c0-0.147-0.321-0.326-0.266-0.463c0.144-0.351,0.46-0.666,0.898-0.914
			c0.132-0.075,0.49-0.141,0.913-0.253c0.334-0.088,0.417-0.063,0.808-0.126c0.3-0.048,0.396-0.298,0.726-0.298
			c0.307-0.001,0.604,0.125,0.889,0.167c1.156,0.173,2.072,0.676,2.404,1.317C159.891,183.737,160.151,183.865,160.151,184.05z"/>
		<path fill="#A3AE98" d="M156.658,183.283c-1.614-0.251-3.483,0.924-2.995,0.23c0.529-0.75,2.636-1.175,3.04-0.987
			s1.998,0.278,2.366,0.532c0.368,0.255,0.654,0.892,0.511,1.239C159.434,184.645,158.707,183.601,156.658,183.283z"/>
	</g>
	<g id="Layer_14">
		<path fill="#A3AE98" d="M177.61,207.653c0.403,0.974,0.367,2.274-1.179,2.274c-1.544,0-4.01,0.222-3.63-1.527
			c0.106-0.49,1.398,0.48,2.943,0.48C177.29,208.88,177.225,206.723,177.61,207.653z"/>
		<path fill="#FFFFFF" d="M177.998,207.932c0,0.84-1.112-1.051-2.657-1.051c-1.545,0-2.656,1.629-2.656,0.789
			c0-0.337,0.156-0.645,0.443-0.892c0.227-0.196,0.607-0.248,0.983-0.354c0.335-0.093,0.795-0.3,1.229-0.3
			c0.545,0,0.912,0.162,1.343,0.347C177.473,206.811,177.998,207.388,177.998,207.932z"/>
		<path fill="#C3CBBD" d="M178.235,207.945c0,0.249-0.237,0.202-0.296,0.394c-0.132,0.436-0.337,0.846-0.906,1.05
			c-0.431,0.155-1.349,0.338-2.331,0.067c-0.865-0.239-1.017-0.131-1.456-0.492c-0.198-0.163-0.348-0.354-0.444-0.564
			c-0.058-0.125-0.048-0.249-0.048-0.383c0-0.12-0.262-0.266-0.217-0.378c0.117-0.287,0.376-0.544,0.732-0.747
			c0.107-0.061,0.399-0.115,0.745-0.206c0.272-0.072,0.34-0.051,0.658-0.102c0.245-0.039,0.324-0.243,0.592-0.243
			c0.251,0,0.494,0.102,0.725,0.137c0.944,0.141,1.691,0.552,1.962,1.075C178.024,207.69,178.235,207.794,178.235,207.945z"/>
		<path fill="#A3AE98" d="M175.386,207.319c-1.317-0.205-2.842,0.754-2.443,0.188c0.432-0.612,2.15-0.959,2.481-0.805
			c0.329,0.153,1.63,0.227,1.93,0.434c0.301,0.208,0.534,0.727,0.417,1.011C177.651,208.431,177.057,207.58,175.386,207.319z"/>
	</g>
	<g id="Layer_15">
		<path fill="#A3AE98" d="M164.482,198.682c0.784,1.894,0.713,4.423-2.293,4.423c-3.004,0-7.8,0.431-7.061-2.969
			c0.207-0.953,2.72,0.932,5.724,0.932C163.858,201.068,163.733,196.874,164.482,198.682z"/>
		<path fill="#FFFFFF" d="M165.234,199.225c0,1.634-2.161-2.044-5.166-2.044c-3.005,0-5.167,3.167-5.167,1.534
			c0-0.656,0.305-1.254,0.862-1.735c0.44-0.381,1.179-0.481,1.912-0.687c0.652-0.182,1.546-0.583,2.393-0.583
			c1.059,0,1.773,0.315,2.61,0.674C164.214,197.045,165.234,198.167,165.234,199.225z"/>
		<path fill="#C3CBBD" d="M165.698,199.251c0,0.486-0.464,0.393-0.577,0.766c-0.257,0.849-0.654,1.645-1.763,2.043
			c-0.838,0.302-2.621,0.657-4.532,0.129c-1.683-0.464-1.979-0.256-2.833-0.956c-0.387-0.317-0.676-0.688-0.864-1.097
			c-0.111-0.243-0.094-0.484-0.094-0.746c0-0.233-0.51-0.517-0.421-0.735c0.228-0.558,0.73-1.058,1.424-1.452
			c0.21-0.12,0.778-0.224,1.449-0.401c0.53-0.14,0.662-0.1,1.281-0.199c0.477-0.076,0.631-0.473,1.151-0.473
			c0.487,0,0.96,0.199,1.411,0.266c1.836,0.274,3.289,1.073,3.815,2.09C165.286,198.755,165.698,198.957,165.698,199.251z"/>
		<path fill="#A3AE98" d="M160.154,198.033c-2.562-0.398-5.527,1.466-4.752,0.365c0.839-1.191,4.183-1.865,4.823-1.567
			c0.642,0.298,3.171,0.441,3.755,0.845c0.585,0.405,1.039,1.415,0.81,1.967C164.561,200.195,163.405,198.539,160.154,198.033z"/>
	</g>
	<g id="Layer_16">
		<path fill="#A3AE98" d="M174.583,189.17c0.517,1.247,0.47,2.913-1.509,2.913c-1.979,0-5.138,0.284-4.651-1.956
			c0.137-0.628,1.791,0.614,3.77,0.614C174.173,190.741,174.09,187.979,174.583,189.17z"/>
		<path fill="#FFFFFF" d="M175.079,189.527c0,1.076-1.424-1.346-3.403-1.346c-1.979,0-3.402,2.086-3.402,1.01
			c0-0.432,0.201-0.826,0.567-1.143c0.29-0.25,0.776-0.317,1.26-0.452c0.429-0.12,1.018-0.384,1.575-0.384
			c0.698,0,1.168,0.208,1.72,0.444C174.406,188.091,175.079,188.83,175.079,189.527z"/>
		<path fill="#C3CBBD" d="M175.384,189.544c0,0.32-0.305,0.258-0.38,0.504c-0.17,0.559-0.431,1.083-1.161,1.346
			c-0.552,0.198-1.726,0.433-2.984,0.085c-1.108-0.306-1.303-0.169-1.866-0.63c-0.254-0.209-0.445-0.453-0.569-0.722
			c-0.073-0.16-0.061-0.319-0.061-0.491c0-0.153-0.336-0.34-0.277-0.484c0.149-0.368,0.48-0.697,0.938-0.956
			c0.138-0.079,0.513-0.147,0.954-0.265c0.35-0.092,0.436-0.066,0.844-0.131c0.313-0.05,0.415-0.312,0.759-0.312
			c0.321,0,0.633,0.131,0.929,0.175c1.209,0.181,2.166,0.706,2.513,1.376C175.113,189.217,175.384,189.35,175.384,189.544z"/>
		<path fill="#A3AE98" d="M171.732,188.743c-1.687-0.263-3.64,0.965-3.129,0.24c0.552-0.784,2.754-1.229,3.177-1.032
			c0.422,0.196,2.088,0.29,2.473,0.556c0.385,0.266,0.684,0.931,0.533,1.295C174.636,190.166,173.874,189.075,171.732,188.743z"/>
	</g>
	<g id="Layer_17">
		<path fill="#A3AE98" d="M154.463,211.416c0.356,0.862,0.324,2.013-1.043,2.013c-1.368,0-3.55,0.196-3.214-1.352
			c0.095-0.434,1.237,0.424,2.605,0.424C154.179,212.502,154.122,210.593,154.463,211.416z"/>
		<path fill="#FFFFFF" d="M154.806,211.663c0,0.744-0.984-0.93-2.352-0.93c-1.368,0-2.351,1.442-2.351,0.698
			c0-0.298,0.138-0.57,0.392-0.79c0.2-0.173,0.536-0.219,0.87-0.312c0.296-0.083,0.703-0.265,1.089-0.265
			c0.482,0,0.807,0.143,1.188,0.307C154.341,210.67,154.806,211.182,154.806,211.663z"/>
		<path fill="#C3CBBD" d="M155.016,211.674c0,0.221-0.21,0.179-0.262,0.349c-0.118,0.387-0.299,0.749-0.803,0.93
			c-0.381,0.137-1.192,0.299-2.062,0.059c-0.766-0.211-0.9-0.117-1.289-0.436c-0.176-0.144-0.308-0.313-0.394-0.499
			c-0.051-0.11-0.042-0.22-0.042-0.34c0-0.105-0.232-0.235-0.192-0.334c0.104-0.254,0.332-0.481,0.648-0.661
			c0.095-0.055,0.354-0.102,0.659-0.183c0.242-0.064,0.302-0.045,0.583-0.091c0.217-0.035,0.287-0.215,0.524-0.215
			c0.222,0,0.437,0.091,0.642,0.121c0.836,0.125,1.497,0.488,1.736,0.951C154.829,211.449,155.016,211.541,155.016,211.674z"/>
		<path fill="#A3AE98" d="M152.493,211.121c-1.166-0.181-2.516,0.667-2.163,0.166c0.383-0.542,1.903-0.849,2.195-0.713
			c0.292,0.136,1.443,0.201,1.709,0.385c0.267,0.184,0.473,0.644,0.369,0.895C154.499,212.105,153.973,211.351,152.493,211.121z"/>
	</g>
</g>
<g id="Layer_27">
	<circle fill="#FFFFFF" cx="540.729" cy="213.793" r="1.233"/>
	<circle fill="#FFFFFF" cx="537.032" cy="221.909" r="1.232"/>
	<circle fill="#FFFFFF" cx="547.843" cy="226.143" r="1.233"/>
	<circle fill="#FFFFFF" cx="549.075" cy="211.328" r="1.232"/>
	<circle fill="#FFFFFF" cx="532.132" cy="207.135" r="1.232"/>
	<circle fill="#FFFFFF" cx="490.617" cy="364.954" r="1.233"/>
	<circle fill="#FFFFFF" cx="485.687" cy="362.489" r="1.232"/>
	<circle fill="#FFFFFF" cx="498.963" cy="357.02" r="1.233"/>
	<circle fill="#FFFFFF" cx="499.56" cy="366.187" r="1.232"/>
	<circle fill="#FFFFFF" cx="479.555" cy="367.419" r="1.232"/>
	<circle fill="#FFFFFF" cx="327.49" cy="359.754" r="1.233"/>
	<circle fill="#FFFFFF" cx="322.497" cy="351.82" r="1.232"/>
	<circle fill="#FFFFFF" cx="312.667" cy="350.588" r="1.233"/>
	<path fill="#A3AE98" d="M344.173,173.525c-1.797,0.994-3.802,1.253-5.669,0.878c-0.125-0.025-0.007,0.198-0.483,0.168
		c-0.455-0.028-0.302-0.372-0.446-0.415c-0.14-0.043,0.104-0.378-0.792-0.677c-0.369-0.123-0.223,0.288-0.567,0.104
		c-1.373-0.732-2.557-1.855-3.365-3.319c-1.32-2.388-1.344-5.142-0.306-7.452c0.044-0.098-0.344-0.029-0.152-0.6
		c0.11-0.327,0.323-0.333,0.514-0.622c0.169-0.255,0.297-0.685,0.372-1.083c0.094-0.497,0.715,0.097,0.844-0.038
		c0.567-0.592,1.232-1.11,1.988-1.528c0.987-0.546,2.038-0.87,3.094-0.989c0.297-0.033,0.292-0.416,0.522-0.44
		c1.563-0.157,0.883,0.773,1.35,0.742c0.199-0.013,0.564-0.21,0.76-0.178c1.704,0.272,2.923,0.997,4.178,2.244
		c0.323,0.321,0.467-0.17,0.73,0.217c0.615,0.905,0.866,1.263,0.823,1.591c-0.043,0.334,0.001,0.326,0.064,0.454
		c0.221,0.451,0.396,0.914,0.529,1.382c0.629,2.214,0.298,4.564-0.835,6.494c-0.114,0.194,0.341,0.599,0.211,0.784
		c-0.105,0.15-0.884,0.672-0.999,0.816c-0.163,0.201,0.098,0.538-0.167,0.536c-0.503-0.004-0.572-0.235-0.738-0.09
		c-0.083,0.073-0.169,0.145-0.256,0.214C345.005,173.016,344.604,173.286,344.173,173.525z"/>
	<path fill="#C3CBBD" d="M333.89,161.381c0,0,2.992-4.841,10.1-2.024c1.849,0.732,2.366,1.798,2.864,3.339
		c0.499,1.541,1.271,3.739,0.36,6.224c-0.978,2.667-1.665,3.054-3.832,4.289c-4.23,2.411-9.073-2.629-9.48-6.233
		c-0.417-3.697,6.524,2.826,8.501-5.765C343.141,158.005,333.89,161.381,333.89,161.381z"/>
	<circle fill="#FFFFFF" cx="399.62" cy="65.938" r="1.233"/>
	<circle fill="#FFFFFF" cx="390.042" cy="59.91" r="1.232"/>
	<circle fill="#FFFFFF" cx="398.388" cy="54.081" r="1.233"/>
	<circle fill="#FFFFFF" cx="414.066" cy="68.973" r="1.232"/>
	<circle fill="#FFFFFF" cx="381.444" cy="71.438" r="1.232"/>
	<circle fill="#FFFFFF" cx="598.608" cy="374.395" r="1.233"/>
	<circle fill="#FFFFFF" cx="587.828" cy="386.752" r="1.232"/>
	<circle fill="#FFFFFF" cx="578.38" cy="377.779" r="1.232"/>
	<circle fill="#FFFFFF" cx="573.539" cy="385.52" r="1.232"/>
	<circle fill="#FFFFFF" cx="578.38" cy="392.915" r="1.232"/>
</g>
<g id="Layer_19_copy">
	<g id="Layer_18_copy">
		<path fill="#D2D9CC" d="M589.532,117.765c-1.947,1.948-4.434,3.026-6.979,3.236c-0.17,0.014,0.065,0.257-0.561,0.396
			c-0.596,0.132-0.526-0.367-0.728-0.37c-0.195-0.003-0.006-0.527-1.273-0.578c-0.521-0.022-0.18,0.454-0.692,0.344
			c-2.04-0.434-3.983-1.442-5.568-3.028c-2.587-2.587-3.64-6.127-3.159-9.489c0.021-0.142-0.453,0.091-0.418-0.715
			c0.02-0.462,0.291-0.549,0.432-0.993c0.122-0.392,0.128-0.993,0.077-1.534c-0.063-0.675,0.957-0.141,1.073-0.362
			c0.512-0.974,1.178-1.888,1.996-2.707c1.069-1.07,2.302-1.878,3.618-2.423c0.371-0.154,0.223-0.645,0.512-0.76
			c1.955-0.783,1.424,0.668,2.014,0.455c0.252-0.091,0.649-0.479,0.913-0.511c2.297-0.282,4.137,0.199,6.217,1.341
			c0.536,0.294,0.54-0.393,1.022,0.008c1.128,0.938,1.584,1.306,1.651,1.746c0.067,0.447,0.122,0.42,0.249,0.561
			c0.452,0.5,0.851,1.03,1.194,1.584c1.634,2.621,2.078,5.771,1.335,8.679c-0.075,0.293,0.661,0.644,0.563,0.931
			c-0.08,0.233-0.89,1.193-0.985,1.422c-0.136,0.318,0.325,0.656-0.016,0.753c-0.65,0.181-0.825-0.091-0.985,0.157
			c-0.08,0.126-0.164,0.249-0.25,0.372C590.416,116.8,589.999,117.298,589.532,117.765z"/>
	</g>
	<g id="Layer_13_copy">
		<path fill="#A3AE98" d="M574.582,103.244c-0.204,0.606-0.187,1.416,0.596,1.416c0.781,0,2.025,0.138,1.835-0.951
			c-0.056-0.305-0.708,0.298-1.487,0.298C574.743,104.007,574.776,102.665,574.582,103.244z"/>
		<path fill="#FFFFFF" d="M574.385,103.418c0,0.523,0.564-0.654,1.343-0.654c0.782,0,1.343,1.014,1.343,0.491
			c0-0.21-0.078-0.402-0.224-0.556c-0.113-0.122-0.307-0.154-0.497-0.22c-0.168-0.058-0.401-0.187-0.622-0.187
			c-0.274,0-0.46,0.101-0.677,0.216C574.651,102.72,574.385,103.079,574.385,103.418z"/>
		<path fill="#C3CBBD" d="M574.266,103.426c0,0.156,0.119,0.126,0.15,0.246c0.066,0.271,0.17,0.526,0.458,0.654
			c0.218,0.096,0.68,0.21,1.177,0.041c0.438-0.148,0.515-0.082,0.735-0.306c0.102-0.102,0.177-0.22,0.227-0.351
			c0.029-0.078,0.023-0.155,0.023-0.239c0-0.075,0.132-0.165,0.109-0.235c-0.059-0.179-0.188-0.338-0.37-0.464
			c-0.054-0.038-0.202-0.072-0.377-0.128c-0.138-0.045-0.172-0.032-0.332-0.063c-0.125-0.025-0.165-0.151-0.3-0.151
			c-0.127-0.001-0.249,0.063-0.366,0.085c-0.477,0.088-0.855,0.343-0.991,0.668C574.373,103.268,574.266,103.332,574.266,103.426z"
			/>
		<path fill="#A3AE98" d="M575.707,103.037c0.664-0.127,1.435,0.469,1.234,0.117c-0.219-0.381-1.088-0.597-1.254-0.501
			c-0.168,0.096-0.824,0.141-0.976,0.271c-0.151,0.129-0.271,0.453-0.211,0.629C574.561,103.729,574.861,103.198,575.707,103.037z"
			/>
	</g>
	<g id="Layer_14_copy">
		<path fill="#A3AE98" d="M585.822,115.532c-0.198,0.423-0.181,0.987,0.576,0.987c0.755,0,1.96,0.096,1.774-0.663
			c-0.053-0.212-0.685,0.209-1.44,0.209C585.977,116.065,586.01,115.129,585.822,115.532z"/>
		<path fill="#FFFFFF" d="M585.633,115.653c0,0.365,0.543-0.456,1.299-0.456c0.756,0,1.298,0.707,1.298,0.342
			c0-0.146-0.076-0.28-0.217-0.387c-0.11-0.085-0.296-0.107-0.48-0.153c-0.163-0.041-0.389-0.13-0.601-0.13
			c-0.267,0-0.446,0.07-0.657,0.15C585.89,115.167,585.633,115.418,585.633,115.653z"/>
		<path fill="#C3CBBD" d="M585.516,115.659c0,0.108,0.117,0.087,0.145,0.171c0.065,0.189,0.166,0.366,0.443,0.456
			c0.211,0.067,0.66,0.146,1.14,0.029c0.424-0.104,0.497-0.057,0.713-0.213c0.097-0.071,0.169-0.154,0.217-0.245
			c0.028-0.054,0.022-0.108,0.022-0.166c0-0.052,0.129-0.116,0.107-0.164c-0.058-0.124-0.186-0.236-0.358-0.324
			c-0.053-0.026-0.195-0.05-0.364-0.089c-0.134-0.031-0.167-0.022-0.322-0.044c-0.12-0.017-0.158-0.105-0.289-0.105
			c-0.123,0-0.242,0.044-0.354,0.059c-0.462,0.061-0.828,0.239-0.96,0.467C585.619,115.548,585.516,115.593,585.516,115.659z"/>
		<path fill="#A3AE98" d="M586.909,115.388c0.645-0.089,1.389,0.327,1.194,0.081c-0.211-0.265-1.051-0.416-1.212-0.35
			c-0.161,0.067-0.797,0.099-0.943,0.188c-0.148,0.09-0.262,0.315-0.204,0.439C585.802,115.87,586.092,115.501,586.909,115.388z"/>
	</g>
	<g id="Layer_15_copy">
		<path fill="#A3AE98" d="M577.968,108.344c-0.378,1.063-0.346,2.482,1.113,2.482c1.457,0,3.783,0.241,3.426-1.666
			c-0.104-0.534-1.319,0.524-2.777,0.524C578.272,109.684,578.332,107.33,577.968,108.344z"/>
		<path fill="#FFFFFF" d="M577.603,108.649c0,0.917,1.048-1.147,2.506-1.147c1.457,0,2.507,1.777,2.507,0.861
			c0-0.368-0.147-0.704-0.419-0.974c-0.212-0.213-0.57-0.27-0.927-0.385c-0.315-0.102-0.75-0.327-1.161-0.327
			c-0.513,0-0.86,0.177-1.266,0.378C578.099,107.426,577.603,108.055,577.603,108.649z"/>
		<path fill="#C3CBBD" d="M577.379,108.664c0,0.273,0.225,0.22,0.279,0.43c0.126,0.477,0.317,0.922,0.856,1.146
			c0.407,0.169,1.271,0.369,2.198,0.073c0.816-0.261,0.96-0.144,1.375-0.537c0.188-0.177,0.327-0.386,0.42-0.615
			c0.052-0.136,0.044-0.271,0.044-0.419c0-0.131,0.247-0.289,0.204-0.412c-0.11-0.313-0.354-0.593-0.69-0.814
			c-0.102-0.067-0.377-0.126-0.703-0.226c-0.257-0.078-0.322-0.056-0.622-0.111c-0.231-0.043-0.305-0.266-0.558-0.266
			c-0.237,0-0.466,0.112-0.686,0.149c-0.89,0.154-1.594,0.602-1.85,1.173C577.579,108.386,577.379,108.499,577.379,108.664z"/>
		<path fill="#A3AE98" d="M580.067,107.981c1.243-0.224,2.682,0.822,2.306,0.205c-0.407-0.669-2.029-1.047-2.339-0.879
			c-0.312,0.167-1.539,0.247-1.821,0.474c-0.284,0.227-0.505,0.794-0.394,1.104C577.931,109.194,578.492,108.264,580.067,107.981z"
			/>
	</g>
	<g id="Layer_16_copy">
		<path fill="#A3AE98" d="M590.05,107.115c0.101,0.732-0.156,1.608-1.204,1.334c-1.048-0.275-2.761-0.564-2.192-1.683
			c0.16-0.313,0.863,0.574,1.913,0.849C589.614,107.89,589.954,106.415,590.05,107.115z"/>
		<path fill="#FFFFFF" d="M590.263,107.373c-0.149,0.569-0.566-0.912-1.615-1.187c-1.049-0.275-2.093,0.633-1.943,0.062
			c0.061-0.229,0.223-0.409,0.46-0.526c0.188-0.092,0.455-0.061,0.729-0.064c0.245-0.003,0.593-0.062,0.889,0.016
			c0.37,0.097,0.59,0.272,0.849,0.474C590.105,106.519,590.359,107.004,590.263,107.373z"/>
		<path fill="#C3CBBD" d="M590.423,107.424c-0.045,0.17-0.198,0.095-0.271,0.214c-0.168,0.273-0.379,0.514-0.803,0.552
			c-0.32,0.028-0.975-0.011-1.593-0.37c-0.544-0.316-0.666-0.271-0.9-0.593c-0.107-0.146-0.173-0.302-0.202-0.461
			c-0.016-0.095,0.014-0.178,0.036-0.269c0.022-0.081-0.13-0.227-0.079-0.295c0.13-0.174,0.352-0.302,0.629-0.376
			c0.084-0.022,0.293-0.007,0.544-0.008c0.197,0,0.238,0.026,0.465,0.048c0.173,0.017,0.263-0.108,0.444-0.06
			c0.171,0.044,0.317,0.157,0.468,0.222c0.615,0.263,1.049,0.674,1.14,1.078C590.324,107.213,590.449,107.321,590.423,107.424z"/>
		<path fill="#A3AE98" d="M588.599,106.492c-0.856-0.374-2.062,0.005-1.691-0.308c0.401-0.339,1.63-0.268,1.826-0.105
			c0.196,0.163,1.066,0.444,1.233,0.638c0.166,0.195,0.232,0.589,0.102,0.761C589.939,107.649,589.687,106.966,588.599,106.492z"/>
	</g>
	<g id="Layer_17_copy">
		<path fill="#A3AE98" d="M576.253,114.075c0.129,0.582,0.117,1.357-0.381,1.357c-0.5,0-1.295,0.132-1.174-0.911
			c0.035-0.292,0.452,0.286,0.951,0.286S576.128,113.52,576.253,114.075z"/>
		<path fill="#FFFFFF" d="M576.378,114.241c0,0.501-0.359-0.627-0.858-0.627c-0.5,0-0.857,0.972-0.857,0.471
			c0-0.201,0.05-0.384,0.143-0.532c0.072-0.117,0.195-0.148,0.317-0.211c0.107-0.056,0.257-0.179,0.397-0.179
			c0.177,0,0.294,0.097,0.434,0.207C576.208,113.573,576.378,113.918,576.378,114.241z"/>
		<path fill="#C3CBBD" d="M576.454,114.249c0,0.15-0.076,0.121-0.096,0.235c-0.043,0.261-0.108,0.505-0.293,0.627
			c-0.139,0.092-0.435,0.201-0.752,0.04c-0.279-0.143-0.329-0.078-0.471-0.294c-0.065-0.097-0.112-0.211-0.145-0.336
			c-0.017-0.074-0.015-0.148-0.015-0.229c0-0.07-0.085-0.158-0.07-0.225c0.038-0.171,0.121-0.324,0.237-0.445
			c0.034-0.037,0.128-0.069,0.24-0.123c0.088-0.042,0.109-0.031,0.212-0.062c0.08-0.023,0.105-0.144,0.192-0.144
			c0.081,0,0.159,0.061,0.234,0.081c0.304,0.085,0.546,0.329,0.634,0.641C576.387,114.097,576.454,114.16,576.454,114.249z"/>
		<path fill="#A3AE98" d="M575.534,113.876c-0.426-0.121-0.919,0.45-0.79,0.113c0.14-0.365,0.695-0.572,0.801-0.481
			c0.107,0.091,0.527,0.136,0.624,0.259c0.098,0.124,0.172,0.434,0.135,0.604C576.266,114.54,576.073,114.032,575.534,113.876z"/>
	</g>
</g>
<g id="Rocket">
	<g id="thruster">
		<path fill="#ECB33E" d="M238.191,277.059h-8.403c0,0,0.081,8.152,1.232,14.311c1.586,8.483,5.288,15.145,7.171,16.614
			c1.883-1.47,5.585-8.131,7.171-16.614c1.151-6.159,1.233-14.311,1.233-14.311H238.191z"/>
		<path fill="#FECB58" d="M238.003,277.058l-5.804,0c0,0,0.112,9.235,0.926,14.124c1.12,6.734,3.735,12.022,5.066,13.188
			c1.331-1.166,3.946-6.454,5.066-13.188c0.813-4.889,0.926-14.124,0.926-14.124L238.003,277.058z"/>
	</g>

	<polygon fill="#FFFFFF" points="252.234,277.442 246.596,273.838 246.596,277.058 229.786,277.058 229.786,273.838
		224.149,277.442 228.463,289.851 228.23,279.626 228.695,279.464 228.687,279.482 247.694,279.482 247.686,279.463
		248.153,279.626 247.919,289.851 	"/>
	<path fill="#5FAEDF" d="M246.595,277.059h-16.808v-21.694c0,0-0.311-7.571,8.404-7.571c8.715,0,8.403,7.571,8.403,7.571V277.059z"
		/>
	<path fill="#7ACAF1" d="M238.056,248.65c-0.216-0.013-0.419-0.036-0.65-0.036c-6.954,0-6.706,6.83-6.706,6.83v21.615h1.3v-21.615
		C231.999,255.443,231.788,249.025,238.056,248.65z"/>
	<circle cx="238.192" cy="256.822" r="3.557"/>
</g>
<g id="moon">
	<g id="Layer_4">
		<path fill="#FECB58" d="M517.239,249.887c0.131,7.357,4.598,16.027,5.124,22.202c0.301,3.534-3.073,1.532-3.241,3.199
			c-3.731,36.713-28.265,67.273-61.628,79.707c-1.485,0.554,2.623,3.072,0.617,5.846c-1.326,1.834-15.537,1.701-25.58,1.8
			c-12.439,0.123-19.802,3.979-21.412,3.505c-4.887-1.438-2.18-6.371-3.403-6.584c-16.069-2.791-30.761-9.603-42.999-19.359
			c-3.073-2.45-9.25-6.252-8.781-10.477c0.441-3.975-8.56,0.373-10.984-2.816c-2.059-2.709,1.878-5.539-3.567-8.262
			c-1.378-0.69-0.413-4.844-1.661-5.755c-2.196-1.602-0.312-3.427-0.645-4.078c-6.621-12.993-10.355-27.703-10.355-43.285
			c0-21.187,6.903-40.761,18.583-56.597c0.741-1.003-5.337-4.437-2.823-6.753c5.338-4.919,10.98-7.993,15.492-11.096
			c3.406-2.342,3.414-6.846,7.223-7.432c2.723-0.419,5.205,3.119,6.7,3.036c1.884-0.105,1.844-2.151,2.617-2.617
			c0.982-0.591,0.507-1.556,1.513-2.113c13.676-7.566,29.404-11.874,46.141-11.874c5.209,0,7.16-0.038,12.142,0.765
			c1.915,0.309-0.242-1.946,1.739-2.716c1.07-0.415,3.08,1.528,4.801,2.123c2.13,0.735,7.931,2.499,9.482,2.973
			c1.356,0.416,3.159,1.154,5.392,1.452c2.721,0.363,3.671-0.376,5.177,0.659c2.724,1.872-0.872,2.52,1.162,3.456
			c22.81,10.509,40.766,29.751,49.584,53.44c0.402,1.082,4.303-5.803,4.38,0.442C518.088,237.675,517.052,239.454,517.239,249.887z"
			/>
		<path fill="#ECB33E" d="M411.119,366.146c1.61,0.475,8.974-3.382,21.412-3.505c10.043-0.099,24.254,0.034,25.58-1.8
			c2.006-2.773-2.103-5.292-0.617-5.846c33.363-12.434,57.897-42.994,61.628-79.707c0.168-1.667,3.542,0.335,3.241-3.199
			c-0.526-6.174-4.993-14.845-5.124-22.202c-0.188-10.433,0.849-12.212,0.787-17.209c-0.077-6.245-3.978,0.64-4.38-0.442
			c-8.818-23.689-26.774-42.931-49.584-53.44c-2.034-0.937,1.561-1.584-1.162-3.456c-1.506-1.036-2.456-0.296-5.177-0.659
			c-2.233-0.297-4.036-1.036-5.392-1.452c-1.551-0.474-7.352-2.237-9.482-2.973c-1.721-0.594-3.73-2.538-4.8-2.123
			c-1.982,0.77,0.175,3.024-1.74,2.716c-2.396-0.386-4.092-0.577-5.785-0.672c1.821,1.187,3.669,2.438,5.533,3.753
			c3.766,2.659,10.507,4.903,14.331,8.113c6.611,5.55,10.287,12.631,16.455,19.966c4.693,5.581,16.862,10.208,20.626,16.895
			c4.798,8.527,0.33,5.334,2.852,15.798c3.518,14.589,4.72,12.382,2.194,28.194c-1.9,11.895,3.311,43.476-21.483,70.025
			c-12.445,13.328-51.589,20.811-74.081,24.114c3.508,1.042,7.101,1.89,10.765,2.526
			C408.939,359.774,406.232,364.708,411.119,366.146z"/>
	</g>
	<g id="Layer_2">
		<path fill="#BB8E2E" d="M390.613,279.212l44.223-13.286c0,0,0.886,12.234-5.833,18.633c-1.408,1.341-4.092,3.357-6.241,4.298
			c-2.389,1.046-3.036,2.18-6.543,2.422c-2.6,0.18-10.804-0.086-12.965-0.648C392.728,287.9,390.613,279.212,390.613,279.212z"/>
		<path fill="#FFD98D" d="M409.72,244.188c12.381,0,22.515,9.586,23.401,21.74c0.042-0.573,1.688-0.944,1.818-1.512
			c1.219-5.306-0.753-12.04-4.49-15.918c-3.568-3.703-9.268-5.216-14.438-6.437c-2.022-0.478-6.793-1.335-8.873-1.335
			c-12.963,0-20.527,12.62-20.527,25.584c0,0.583,2.568-0.953,2.609-0.38C390.107,253.774,397.34,244.188,409.72,244.188z"/>
		<path fill="#ECB33E" d="M435.711,265.928c0,8.833-5.002,15.915-12.912,20.062c-1.631,0.856-3.404,2.96-5.165,3.474
			c-2.28,0.666-5.554,0.409-7.914,0.41c-13.015,0-23.565-10.551-23.565-23.566c0-13.016,10.551-23.566,23.565-23.566
			C422.734,242.742,435.711,252.913,435.711,265.928z"/>
		<path fill="#BB8E2E" d="M407.832,247.921c2.783-0.722,10.5-0.216,13.879,2.158c4.99,3.503,8.888,3.379,11.431,10.414
			c-0.096-0.503-0.49-2.05-0.655-2.544c-3.049-9.092-16.396-16.388-28.455-13.074c-12.058,3.315-19.348,15.045-16.281,26.2
			c0.139,0.503,0.301,0.991,0.475,1.472c-0.918-4.788-0.576-10.001,2.389-13.767c0.832-1.057,3.5-3.827,4.489-4.747
			c1.294-1.203,4.394-1.599,5.825-2.517C403.2,250.059,405.692,248.476,407.832,247.921z"/>
		<path fill="#FECB58" d="M406.769,285.144c-8.069-0.742-15.528-7.018-15.317-6.709c3.468,5.068,9.233,9.331,18.392,9.74
			c1.156,0.052,5.796,0.508,6.959,0.167c1.791-0.525,2.854-1.957,3.429-2.315c2.987-1.86,5.372-2.871,6.941-4.383
			c3.593-3.462,4.342-8.102,4.665-13.206c0.024-0.372-2.762,6.31-7.316,9.094C421.486,284.97,413.966,285.805,406.769,285.144z"/>
	</g>
	<g id="Layer_5">
		<path fill="#BB8E2E" d="M454.098,326.503l23.755-7.137c0,0,0.476,6.572-3.134,10.01c-0.756,0.721-2.196,1.804-3.352,2.309
			c-1.283,0.562-1.631,1.171-3.515,1.301c-1.396,0.097-5.804-0.046-6.965-0.348C455.235,331.169,454.098,326.503,454.098,326.503z"
			/>
		<path fill="#FFD98D" d="M464.36,307.689c6.651,0,12.096,5.15,12.571,11.679c0.022-0.308,0.907-0.507,0.978-0.814
			c0.653-2.85-0.405-6.467-2.413-8.55c-1.917-1.989-4.979-2.802-7.755-3.458c-1.087-0.256-3.649-0.717-4.767-0.717
			c-6.963,0-11.027,6.779-11.027,13.742c0,0.312,1.38-0.512,1.402-0.204C453.826,312.839,457.711,307.689,464.36,307.689z"/>
		<path fill="#ECB33E" d="M478.322,319.367c0,4.745-2.686,8.55-6.936,10.776c-0.875,0.459-1.828,1.59-2.773,1.866
			c-1.226,0.358-2.984,0.22-4.253,0.22c-6.99,0-12.657-5.667-12.657-12.658c0-6.992,5.667-12.659,12.657-12.659
			C471.352,306.912,478.322,312.376,478.322,319.367z"/>
		<path fill="#BB8E2E" d="M463.347,309.694c1.495-0.389,5.641-0.115,7.456,1.158c2.68,1.883,4.773,1.816,6.141,5.596
			c-0.052-0.272-0.265-1.102-0.353-1.367c-1.638-4.884-8.808-8.803-15.285-7.023c-6.477,1.781-10.394,8.082-8.746,14.074
			c0.074,0.27,0.162,0.533,0.256,0.791c-0.493-2.572-0.31-5.372,1.282-7.395c0.447-0.568,1.881-2.057,2.412-2.551
			c0.695-0.646,2.359-0.859,3.129-1.352C460.86,310.843,462.197,309.993,463.347,309.694z"/>
		<path fill="#FECB58" d="M462.776,329.689c-4.335-0.398-8.342-3.769-8.228-3.603c1.861,2.722,4.959,5.013,9.88,5.231
			c0.62,0.027,3.112,0.273,3.736,0.09c0.963-0.281,1.533-1.051,1.843-1.244c1.604-0.998,2.886-1.541,3.729-2.353
			c1.93-1.861,2.332-4.353,2.507-7.094c0.013-0.199-1.484,3.389-3.931,4.885C470.681,329.597,466.642,330.044,462.776,329.689z"/>
	</g>
	<g id="Layer_5_copy_2">
		<path fill="#BB8E2E" d="M468.268,260.202l29.902-5.698c0,0,0.539,7.455-3.555,11.355c-0.858,0.817-2.492,2.046-3.803,2.619
			c-1.455,0.637-1.849,1.327-3.986,1.476c-1.584,0.109-7.499-0.336-8.817-0.678C471.597,267.61,468.268,260.202,468.268,260.202z"/>
		<path fill="#FFD98D" d="M482.865,241.256c7.546,0,13.721,5.842,14.261,13.249c0.026-0.349-0.067-1.788,0.014-2.136
			c0.741-3.233-2.848-6.522-4.469-8.691c-2.152-2.882-4.958-3.331-8.106-4.075c-1.234-0.291-4.252,0.5-5.489,0.772
			c-7.208,1.583-12.529,6.229-12.529,14.128c0,0.356,3.803-0.349,3.829,0.001C470.915,247.098,475.322,241.256,482.865,241.256z"/>
		<path fill="#ECB33E" d="M498.705,254.504c0,5.383-3.049,9.698-7.868,12.226c-0.993,0.522-2.075,1.804-3.147,2.117
			c-1.391,0.406-3.385,0.249-4.824,0.249c-7.93,0-16.324-6.414-16.324-14.345c0-7.932,8.395-14.376,16.324-14.376
			C490.798,240.376,498.705,246.574,498.705,254.504z"/>
		<path fill="#BB8E2E" d="M481.716,243.532c1.695-0.441,6.398-0.132,8.458,1.314c3.04,2.135,3.166-1.414,4.717,2.873
			c-0.059-0.307,1.949,2.224,1.85,1.923c-1.858-5.54-9.992-9.986-17.34-7.966c-7.348,2.019-15.738,10.327-9.922,15.965
			c0.228,0.221-0.636-3.682-0.529-3.388c-0.56-2.918,1.351-4.354,3.158-6.648c0.506-0.644,1.945-1.062,2.547-1.623
			c0.788-0.733,2.949-1.273,3.822-1.833C479.861,243.262,480.412,243.87,481.716,243.532z"/>
		<path fill="#FECB58" d="M491.121,263.451c3.934-2.885,5.843-8.483,5.827-8.254c-0.221,3.729-1.876,7.747-6.475,10.795
			c-0.581,0.384-2.832,2.059-3.538,2.239c-1.086,0.279-2.076-0.144-2.484-0.153c-2.115-0.052-3.658,0.156-4.936-0.152
			c-2.924-0.705-4.747-2.905-6.491-5.482c-0.13-0.187,3.376,2.455,6.585,2.506C483.477,267.912,487.615,266.023,491.121,263.451z"/>
	</g>
	<g id="Layer_6">
		<path fill="#BB8E2E" d="M348.475,264.431l17.034-5.118c0,0,0.342,4.713-2.246,7.178c-0.543,0.517-1.576,1.293-2.404,1.656
			c-0.92,0.402-1.169,0.839-2.52,0.933c-1.001,0.069-4.162-0.033-4.995-0.25C349.29,267.778,348.475,264.431,348.475,264.431z"/>
		<path fill="#FFD98D" d="M355.834,250.939c4.771,0,8.674,3.692,9.016,8.375c0.017-0.221,0.65-0.364,0.701-0.583
			c0.469-2.044-0.291-4.638-1.73-6.132c-1.375-1.427-3.57-2.009-5.56-2.48c-0.78-0.184-2.617-0.515-3.419-0.515
			c-4.993,0-7.907,4.862-7.907,9.855c0,0.224,0.988-0.367,1.006-0.146C348.28,254.631,351.066,250.939,355.834,250.939z"/>
		<path fill="#ECB33E" d="M365.848,259.314c0,3.402-1.927,6.131-4.975,7.728c-0.628,0.33-1.311,1.14-1.989,1.338
			c-0.878,0.257-2.14,0.158-3.05,0.158c-5.012,0-9.076-4.064-9.076-9.078c0-5.014,4.065-9.078,9.076-9.078
			C360.849,250.382,365.848,254.3,365.848,259.314z"/>
		<path fill="#BB8E2E" d="M355.107,252.377c1.072-0.278,4.045-0.083,5.347,0.831c1.923,1.349,3.423,1.302,4.403,4.012
			c-0.036-0.194-0.188-0.79-0.252-0.98c-1.175-3.503-6.316-6.313-10.961-5.036c-4.646,1.277-7.453,5.795-6.272,10.093
			c0.054,0.193,0.116,0.382,0.183,0.567c-0.354-1.845-0.223-3.853,0.921-5.303c0.319-0.408,1.349-1.474,1.728-1.829
			c0.499-0.463,1.692-0.616,2.244-0.97C353.324,253.201,354.283,252.591,355.107,252.377z"/>
		<path fill="#FECB58" d="M354.698,266.716c-3.108-0.286-5.981-2.703-5.899-2.584c1.335,1.953,3.556,3.595,7.084,3.752
			c0.445,0.02,2.232,0.196,2.68,0.064c0.691-0.202,1.1-0.754,1.321-0.892c1.151-0.716,2.07-1.106,2.675-1.689
			c1.383-1.333,1.672-3.121,1.798-5.087c0.009-0.143-1.066,2.432-2.819,3.504C360.368,266.649,357.471,266.97,354.698,266.716z"/>
	</g>
	<g id="Layer_5_copy">
		<path fill="#BB8E2E" d="M363.605,215.205l23.446-4.322c0,0,0.47,3.981-3.092,6.062c-0.747,0.437-2.169,1.093-3.31,1.398
			c-1.266,0.34-1.609,0.709-3.469,0.788c-1.378,0.058-5.728-0.028-6.875-0.211C364.727,218.032,363.605,215.205,363.605,215.205z"/>
		<path fill="#FFD98D" d="M373.734,203.81c6.564,0,11.939,3.119,12.408,7.073c0.023-0.187,0.896-0.308,0.965-0.492
			c0.646-1.727-0.399-3.917-2.382-5.179c-1.892-1.205-4.913-1.697-7.654-2.095c-1.072-0.155-3.602-0.434-4.704-0.434
			c-6.873,0-10.884,4.106-10.884,8.323c0,0.19,1.361-0.31,1.384-0.123C363.338,206.929,367.172,203.81,373.734,203.81z"/>
		<path fill="#ECB33E" d="M387.516,210.883c0,2.873-2.653,5.178-6.847,6.527c-0.863,0.278-1.805,0.963-2.738,1.13
			c-1.209,0.217-2.945,0.133-4.197,0.133c-6.898,0-12.493-3.433-12.493-7.667c0-4.234,5.595-7.667,12.493-7.667
			C380.637,203.339,387.516,206.649,387.516,210.883z"/>
		<path fill="#BB8E2E" d="M372.734,205.025c1.476-0.235,5.567-0.07,7.359,0.701c2.645,1.141,4.712,1.1,6.061,3.389
			c-0.051-0.164-0.26-0.667-0.348-0.828c-1.617-2.958-8.693-5.332-15.086-4.253c-6.393,1.079-10.26,4.895-8.634,8.524
			c0.073,0.163,0.16,0.322,0.253,0.479c-0.488-1.558-0.307-3.254,1.266-4.48c0.441-0.344,1.856-1.245,2.38-1.544
			c0.686-0.391,2.33-0.52,3.089-0.819C370.279,205.72,371.6,205.205,372.734,205.025z"/>
		<path fill="#FECB58" d="M372.171,217.135c-4.278-0.241-8.232-2.283-8.12-2.183c1.838,1.649,4.895,3.036,9.751,3.169
			c0.612,0.017,3.073,0.165,3.688,0.054c0.949-0.171,1.514-0.637,1.818-0.754c1.584-0.604,2.849-0.934,3.681-1.426
			c1.905-1.126,2.303-2.636,2.474-4.296c0.014-0.121-1.465,2.053-3.879,2.959C379.974,217.078,375.987,217.35,372.171,217.135z"/>
	</g>
	<g id="Layer_3_copy">
		<path fill="#BB8E2E" d="M441.258,206.454l26.696-3.349c0,0-2.378,9.314-12.856,9.481
			C445.886,212.732,441.258,206.454,441.258,206.454z"/>
		<path fill="#BB8E2E" d="M464.692,207.847l-8.817-17.737c0,0,10.697-1.135,12.898,6.173
			C470.706,202.707,464.692,207.847,464.692,207.847z"/>
		<path fill="#FFD98D" d="M452.043,189.29c6.828,0,12.418,4.757,12.908,10.789c0.022-0.284,1.344-0.912,1.344-1.201
			c0-5.362-4.35-9.285-10.133-10.562c-1.155-0.255-4.062-1.011-5.253-1.011c-2.726,0-4.919,2.013-7.005,3.308
			c-3.386,2.101-4.808,4.626-4.808,8.607c0,0.289,0.016,0.575,0.039,0.859C439.625,194.047,445.215,189.29,452.043,189.29z"/>
		<path fill="#ECB33E" d="M468.886,200.079c0,6.46-7.815,11.884-15.653,11.884s-14.191-5.236-14.191-11.695
			c0-4.844,3.017-8.794,8.111-10.569c0.787-0.275,2.121-0.162,2.975-0.316c0.985-0.178,2.057-0.809,3.105-0.809
			C461.07,188.573,468.886,193.62,468.886,200.079z"/>
		<path fill="#BB8E2E" d="M450.287,191.975c1.272-0.274,2.581-0.912,4.125-0.895c4.629,0.048,10.385,2.341,11.945,5.858
			c-0.054-0.231-0.274-0.94-0.367-1.167c-1.447-3.523-7.102-6.43-12.979-6.294c-1.074,0.025-2.009,0.583-3.074,0.825
			c-0.998,0.227-2.083,0.104-2.958,0.48c-5.17,2.222-8.031,6.82-6.564,11.196c0.078,0.23,0.17,0.454,0.267,0.675
			c-0.607-2.622,0.484-5.624,2.795-7.525C445.486,193.473,448.111,192.443,450.287,191.975z"/>
		<path fill="#FECB58" d="M460.471,207.603c4.464-2.131,7.561-6.68,7.496-6.491c-1.176,3.503-5.801,8.548-12.232,9.53
			c-6.433,0.982-9.267-0.09-12.765-4.243c-0.121-0.144,3.264,2.74,5.983,1.625C452.051,210.784,456.49,209.503,460.471,207.603z"/>
	</g>
	<g id="Layer_3">
		<path fill="#BB8E2E" d="M385.533,324.658l21.482-2.694c0,0-1.913,7.494-10.346,7.629
			C389.258,329.71,385.533,324.658,385.533,324.658z"/>
		<path fill="#BB8E2E" d="M404.391,325.778l-7.096-14.271c0,0,8.609-0.914,10.379,4.967
			C409.23,321.644,404.391,325.778,404.391,325.778z"/>
		<path fill="#FFD98D" d="M394.212,310.847c5.495,0,9.992,3.828,10.388,8.682c0.018-0.228,1.081-0.732,1.081-0.967
			c0-4.314-3.501-7.471-8.153-8.498c-0.93-0.205-3.27-0.815-4.228-0.815c-2.193,0-3.958,1.621-5.637,2.662
			c-2.725,1.69-3.868,3.723-3.868,6.926c0,0.233,0.013,0.463,0.031,0.691C384.219,314.675,388.717,310.847,394.212,310.847z"/>
		<path fill="#ECB33E" d="M407.766,319.528c0,5.197-6.289,9.562-12.596,9.562c-6.308,0-11.42-4.213-11.42-9.41
			c0-3.898,2.427-7.076,6.526-8.506c0.634-0.221,1.708-0.13,2.393-0.254c0.793-0.143,1.655-0.651,2.5-0.651
			C401.477,310.27,407.766,314.331,407.766,319.528z"/>
		<path fill="#BB8E2E" d="M392.799,313.007c1.023-0.221,2.078-0.733,3.32-0.721c3.725,0.039,8.358,1.885,9.611,4.715
			c-0.043-0.186-0.22-0.757-0.295-0.94c-1.164-2.835-5.715-5.174-10.444-5.064c-0.864,0.02-1.618,0.469-2.474,0.663
			c-0.803,0.183-1.677,0.085-2.381,0.387c-4.161,1.787-6.461,5.487-5.281,9.009c0.062,0.185,0.136,0.365,0.215,0.543
			c-0.488-2.109,0.389-4.525,2.248-6.055C388.936,314.212,391.048,313.384,392.799,313.007z"/>
		<path fill="#FECB58" d="M400.994,325.583c3.592-1.715,6.084-5.375,6.033-5.224c-0.947,2.819-4.668,6.88-9.845,7.669
			c-5.177,0.79-7.456-0.072-10.272-3.414c-0.097-0.116,2.626,2.205,4.815,1.307C394.219,328.144,397.791,327.112,400.994,325.583z"
			/>
	</g>
</g>
</svg>
