<?xml version="1.0" encoding="utf-8"?>
<!-- Generator: Adobe Illustrator 19.2.1, SVG Export Plug-In . SVG Version: 6.00 Build 0)  -->
<svg version="1.1"
	 id="svg2" xmlns:cc="http://creativecommons.org/ns#" xmlns:dc="http://purl.org/dc/elements/1.1/" xmlns:rdf="http://www.w3.org/1999/02/22-rdf-syntax-ns#" xmlns:svg="http://www.w3.org/2000/svg"
	 xmlns="http://www.w3.org/2000/svg" xmlns:xlink="http://www.w3.org/1999/xlink" x="0px" y="0px" viewBox="0 0 933.3 666.7"
	 style="enable-background:new 0 0 933.3 666.7;" xml:space="preserve">
<style type="text/css">
	.st0{fill:#D3DACE;}
	.st1{fill:#A5B19B;}
	.st2{fill:#FFFFFF;}
	.st3{fill:#C4CCBF;}
	.st4{fill:#EDB54B;}
	.st5{fill:#FECC61;}
	.st6{fill:#67B0DF;}
	.st7{fill:#80CBF1;}
	.st8{fill:#292929;}
	.st9{fill:#BD923E;}
	.st10{fill:#FFDA91;}
</style>
<g id="g10" transform="matrix(1.3333333,0,0,-1.3333333,0,666.66667)">
	<g id="small_x5F_moon_x5F_3">
		<g>
			<g>
				<g id="g28">
					<g id="g34" transform="translate(109.6528,317.8018)">
						<path id="path36" class="st0" d="M261.5-205.2c0-4-1.5-7.7-3.9-10.6c-0.2-0.2,0.3-0.2-0.2-1c-0.5-0.8-0.9-0.2-1.1-0.4
							c-0.2-0.2-0.6,0.5-1.9-0.7c-0.6-0.5,0.3-0.7-0.4-1.1c-2.6-1.7-5.6-2.6-8.9-2.6c-5.4,0-10.1,2.6-13.1,6.6
							c-0.1,0.2-0.4-0.6-1.2,0.3c-0.5,0.5-0.3,0.9-0.6,1.5c-0.3,0.5-0.9,1.2-1.5,1.7c-0.8,0.6,0.8,1.1,0.7,1.5
							c-0.5,1.5-0.7,3.2-0.7,4.9c0,2.2,0.4,4.3,1.2,6.3c0.2,0.5-0.4,0.9-0.3,1.3c1.2,2.8,2.2,0.8,2.6,1.6c0.2,0.4,0.2,1.2,0.4,1.5
							c2.1,2.7,4.5,4.1,7.8,5.1c0.9,0.3,0.2,1,1.1,1.1c2.1,0.2,3,0.3,3.5-0.1c0.5-0.4,0.6-0.3,0.8-0.3c1,0,2-0.2,2.9-0.4
							c4.4-1,8.1-3.8,10.4-7.6c0.2-0.4,1.4,0,1.6-0.4c0.2-0.3,0.3-2.2,0.5-2.5c0.2-0.5,1-0.3,0.8-0.8c-0.5-0.9-0.9-0.8-0.9-1.2
							c0-0.2,0.1-0.4,0.1-0.6C261.5-203.3,261.5-204.3,261.5-205.2"/>
					</g>
					<g id="g38" transform="translate(83.8325,333.439)">
						<path id="path40" class="st1" d="M268.1-209.2c0.4-0.9,0.3-2.1-1.1-2.1c-1.4,0-3.7-0.2-3.3,1.4c0.1,0.4,1.3-0.4,2.7-0.4
							C267.8-210.4,267.8-208.4,268.1-209.2"/>
					</g>
					<g id="g42" transform="translate(84.3071,333.0967)">
						<path id="path44" class="st2" d="M268-209.1c0-0.8-1,1-2.4,1c-1.4,0-2.4-1.5-2.4-0.7c0,0.3,0.1,0.6,0.4,0.8
							c0.2,0.2,0.6,0.2,0.9,0.3c0.3,0.1,0.7,0.3,1.1,0.3c0.5,0,0.8-0.1,1.2-0.3C267.5-208.1,268-208.6,268-209.1"/>
					</g>
					<g id="g46" transform="translate(84.5991,333.0806)">
						<path id="path48" class="st3" d="M267.9-209.1c0-0.2-0.2-0.2-0.3-0.4c-0.1-0.4-0.3-0.8-0.8-1c-0.4-0.1-1.2-0.3-2.1-0.1
							c-0.8,0.2-0.9,0.1-1.3,0.4c-0.2,0.1-0.3,0.3-0.4,0.5c-0.1,0.1,0,0.2,0,0.4c0,0.1-0.2,0.2-0.2,0.3c0.1,0.3,0.3,0.5,0.7,0.7
							c0.1,0.1,0.4,0.1,0.7,0.2c0.2,0.1,0.3,0,0.6,0.1c0.2,0,0.3,0.2,0.5,0.2c0.2,0,0.5-0.1,0.7-0.1c0.9-0.1,1.5-0.5,1.8-1
							C267.7-208.9,267.9-209,267.9-209.1"/>
					</g>
					<g id="g50" transform="translate(81.106,333.8477)">
						<path id="path52" class="st1" d="M268.8-209.3c-1.2,0.2-2.6-0.7-2.2-0.2c0.4,0.6,2,0.9,2.3,0.7s1.5-0.2,1.8-0.4
							c0.3-0.2,0.5-0.7,0.4-0.9C270.9-210.4,270.3-209.6,268.8-209.3"/>
					</g>
					<g id="g54" transform="translate(102.0581,309.4775)">
						<path id="path56" class="st1" d="M263.5-203.1c0.3-0.7,0.3-1.7-0.9-1.7c-1.2,0-3-0.2-2.7,1.1c0.1,0.4,1-0.4,2.2-0.4
							S263.2-202.4,263.5-203.1"/>
					</g>
					<g id="g58" transform="translate(102.4458,309.1987)">
						<path id="path60" class="st2" d="M263.4-203.1c0-0.6-0.8,0.8-2,0.8c-1.2,0-2-1.2-2-0.6c0,0.3,0.1,0.5,0.3,0.7
							c0.2,0.1,0.5,0.2,0.7,0.3c0.2,0.1,0.6,0.2,0.9,0.2c0.4,0,0.7-0.1,1-0.3C263-202.2,263.4-202.6,263.4-203.1"/>
					</g>
					<g id="g62" transform="translate(102.6831,309.1851)">
						<path id="path64" class="st3" d="M263.3-203.1c0-0.2-0.2-0.2-0.2-0.3c-0.1-0.3-0.3-0.6-0.7-0.8c-0.3-0.1-1-0.3-1.7,0
							c-0.6,0.2-0.8,0.1-1.1,0.4c-0.1,0.1-0.3,0.3-0.3,0.4c0,0.1,0,0.2,0,0.3c0,0.1-0.2,0.2-0.2,0.3c0.1,0.2,0.3,0.4,0.5,0.6
							c0.1,0,0.3,0.1,0.6,0.2c0.2,0.1,0.3,0,0.5,0.1c0.2,0,0.2,0.2,0.4,0.2c0.2,0,0.4-0.1,0.5-0.1c0.7-0.1,1.3-0.4,1.5-0.8
							C263.2-202.9,263.3-202.9,263.3-203.1"/>
					</g>
					<g id="g66" transform="translate(99.8335,309.811)">
						<path id="path68" class="st1" d="M264-203.2c-1,0.2-2.1-0.6-1.8-0.1c0.3,0.5,1.6,0.7,1.8,0.6c0.2-0.1,1.2-0.2,1.4-0.3
							c0.2-0.2,0.4-0.5,0.3-0.8C265.7-204,265.3-203.4,264-203.2"/>
					</g>
					<g id="g70" transform="translate(88.9302,318.4482)">
						<path id="path72" class="st1" d="M266.8-205.4c0.6-1.4,0.5-3.3-1.7-3.3c-2.2,0-5.8-0.3-5.3,2.2c0.2,0.7,2-0.7,4.3-0.7
							C266.4-207.2,266.3-204.1,266.8-205.4"/>
					</g>
					<g id="g74" transform="translate(89.6821,317.9058)">
						<path id="path76" class="st2" d="M266.6-205.3c0-1.2-1.6,1.5-3.8,1.5s-3.8-2.4-3.8-1.1c0,0.5,0.2,0.9,0.6,1.3
							c0.3,0.3,0.9,0.4,1.4,0.5c0.5,0.1,1.2,0.4,1.8,0.4c0.8,0,1.3-0.2,1.9-0.5C265.9-203.6,266.6-204.5,266.6-205.3"/>
					</g>
					<g id="g78" transform="translate(90.146,317.8799)">
						<path id="path80" class="st3" d="M266.5-205.3c0-0.4-0.3-0.3-0.4-0.6c-0.2-0.6-0.5-1.2-1.3-1.5c-0.6-0.2-2-0.5-3.4-0.1
							c-1.3,0.3-1.5,0.2-2.1,0.7c-0.3,0.2-0.5,0.5-0.6,0.8c-0.1,0.2-0.1,0.4-0.1,0.6c0,0.2-0.4,0.4-0.3,0.5c0.2,0.4,0.5,0.8,1.1,1.1
							c0.2,0.1,0.6,0.2,1.1,0.3c0.4,0.1,0.5,0.1,1,0.1c0.4,0.1,0.5,0.4,0.9,0.4c0.4,0,0.7-0.1,1.1-0.2c1.4-0.2,2.5-0.8,2.8-1.6
							C266.2-204.9,266.5-205,266.5-205.3"/>
					</g>
					<g id="g82" transform="translate(84.6021,319.0972)">
						<path id="path84" class="st1" d="M267.9-205.6c-1.9,0.3-4.1-1.1-3.5-0.3c0.6,0.9,3.1,1.4,3.6,1.2c0.5-0.2,2.4-0.3,2.8-0.6
							c0.4-0.3,0.8-1.1,0.6-1.5C271.2-207.2,270.4-206,267.9-205.6"/>
					</g>
					<g id="g86" transform="translate(99.0308,327.9609)">
						<path id="path88" class="st1" d="M264.3-207.8c0.4-0.9,0.4-2.2-1.1-2.2s-3.8-0.2-3.5,1.5c0.1,0.5,1.3-0.5,2.8-0.5
							C263.9-209,263.9-206.9,264.3-207.8"/>
					</g>
					<g id="g90" transform="translate(99.5269,327.6035)">
						<path id="path92" class="st2" d="M264.1-207.7c0-0.8-1.1,1-2.5,1s-2.5-1.6-2.5-0.8c0,0.3,0.2,0.6,0.4,0.9
							c0.2,0.2,0.6,0.2,0.9,0.3c0.3,0.1,0.8,0.3,1.2,0.3c0.5,0,0.9-0.2,1.3-0.3C263.6-206.7,264.1-207.2,264.1-207.7"/>
					</g>
					<g id="g94" transform="translate(99.8315,327.5864)">
						<path id="path96" class="st3" d="M264-207.7c0-0.2-0.2-0.2-0.3-0.4c-0.1-0.4-0.3-0.8-0.9-1c-0.4-0.1-1.3-0.3-2.2-0.1
							c-0.8,0.2-1,0.1-1.4,0.5c-0.2,0.2-0.3,0.3-0.4,0.5c-0.1,0.1,0,0.2,0,0.4c0,0.1-0.3,0.3-0.2,0.4c0.1,0.3,0.4,0.5,0.7,0.7
							c0.1,0.1,0.4,0.1,0.7,0.2c0.3,0.1,0.3,0,0.6,0.1c0.2,0,0.3,0.2,0.6,0.2c0.2,0,0.5-0.1,0.7-0.1c0.9-0.1,1.6-0.5,1.9-1
							C263.8-207.5,264-207.6,264-207.7"/>
					</g>
					<g id="g98" transform="translate(96.1802,328.3877)">
						<path id="path100" class="st1" d="M265-207.9c-1.3,0.2-2.7-0.7-2.3-0.2c0.4,0.6,2.1,0.9,2.4,0.8c0.3-0.1,1.6-0.2,1.8-0.4
							c0.3-0.2,0.5-0.7,0.4-1C267.1-209,266.6-208.2,265-207.9"/>
					</g>
					<g id="g102" transform="translate(78.9106,305.7144)">
						<path id="path104" class="st1" d="M269.4-202.2c0.3-0.6,0.2-1.5-0.8-1.5c-1,0-2.6-0.1-2.4,1c0.1,0.3,0.9-0.3,1.9-0.3
							C269.2-203,269.1-201.6,269.4-202.2"/>
					</g>
					<g id="g106" transform="translate(79.2534,305.4678)">
						<path id="path108" class="st2" d="M269.3-202.1c0-0.6-0.7,0.7-1.8,0.7c-1,0-1.8-1.1-1.8-0.5c0,0.2,0.1,0.4,0.3,0.6
							c0.1,0.1,0.4,0.2,0.6,0.2c0.2,0.1,0.5,0.2,0.8,0.2c0.4,0,0.6-0.1,0.9-0.2C268.9-201.4,269.3-201.7,269.3-202.1"/>
					</g>
					<g id="g110" transform="translate(79.4634,305.4561)">
						<path id="path112" class="st3" d="M269.2-202.1c0-0.2-0.2-0.1-0.2-0.3c-0.1-0.3-0.2-0.6-0.6-0.7c-0.3-0.1-0.9-0.2-1.5,0
							c-0.6,0.2-0.7,0.1-1,0.3c-0.1,0.1-0.2,0.2-0.3,0.4c0,0.1,0,0.2,0,0.3c0,0.1-0.2,0.2-0.1,0.2c0.1,0.2,0.2,0.4,0.5,0.5
							c0.1,0,0.3,0.1,0.5,0.1c0.2,0,0.2,0,0.4,0.1c0.2,0,0.2,0.2,0.4,0.2c0.2,0,0.3-0.1,0.5-0.1c0.6-0.1,1.1-0.4,1.3-0.7
							C269.1-201.9,269.2-202,269.2-202.1"/>
					</g>
					<g id="g114" transform="translate(76.9409,306.0098)">
						<path id="path116" class="st1" d="M269.9-202.2c-0.9,0.1-1.9-0.5-1.6-0.1c0.3,0.4,1.4,0.6,1.6,0.5s1.1-0.1,1.3-0.3
							c0.2-0.1,0.4-0.5,0.3-0.7C271.4-203,271-202.4,269.9-202.2"/>
					</g>
				</g>
			</g>
		</g>
	</g>
	<g id="small_x5F_moon_x5F_2">
		<g>
			<g>
				<g id="g120">
					<g id="g126" transform="translate(466.4097,303.3374)">
						<path id="path128" class="st2" d="M-56.8-46.8c0-0.5-0.4-0.9-0.9-0.9c-0.5,0-0.9,0.4-0.9,0.9s0.4,0.9,0.9,0.9
							C-57.2-45.9-56.8-46.3-56.8-46.8"/>
					</g>
					<g id="g130" transform="translate(462.7124,295.2217)">
						<path id="path132" class="st2" d="M-55.9-44.7c0-0.5-0.4-0.9-0.9-0.9c-0.5,0-0.9,0.4-0.9,0.9s0.4,0.9,0.9,0.9
							C-56.3-43.8-55.9-44.2-55.9-44.7"/>
					</g>
					<g id="g134" transform="translate(473.5229,290.9868)">
						<path id="path136" class="st2" d="M-58.6-43.6c0-0.5-0.4-0.9-0.9-0.9c-0.5,0-0.9,0.4-0.9,0.9s0.4,0.9,0.9,0.9
							C-59.1-42.7-58.6-43.1-58.6-43.6"/>
					</g>
					<g id="g138" transform="translate(474.7554,305.8027)">
						<path id="path140" class="st2" d="M-59-47.4c0-0.5-0.4-0.9-0.9-0.9c-0.5,0-0.9,0.4-0.9,0.9s0.4,0.9,0.9,0.9
							C-59.4-46.5-59-46.9-59-47.4"/>
					</g>
					<g id="g142" transform="translate(457.812,309.9951)">
						<path id="path144" class="st2" d="M-54.6-48.5c0-0.5-0.4-0.9-0.9-0.9c-0.5,0-0.9,0.4-0.9,0.9c0,0.5,0.4,0.9,0.9,0.9
							C-55.1-47.5-54.6-48-54.6-48.5"/>
					</g>
					<g id="g146" transform="translate(416.2974,152.1763)">
						<path id="path148" class="st2" d="M-44.1-8.2c0-0.5-0.4-0.9-0.9-0.9c-0.5,0-0.9,0.4-0.9,0.9s0.4,0.9,0.9,0.9
							C-44.5-7.3-44.1-7.7-44.1-8.2"/>
					</g>
					<g id="g150" transform="translate(411.3677,154.6416)">
						<path id="path152" class="st2" d="M-42.8-8.9c0-0.5-0.4-0.9-0.9-0.9c-0.5,0-0.9,0.4-0.9,0.9c0,0.5,0.4,0.9,0.9,0.9
							C-43.2-7.9-42.8-8.4-42.8-8.9"/>
					</g>
					<g id="g154" transform="translate(424.6431,160.1104)">
						<path id="path156" class="st2" d="M-46.2-10.3c0-0.5-0.4-0.9-0.9-0.9c-0.5,0-0.9,0.4-0.9,0.9c0,0.5,0.4,0.9,0.9,0.9
							C-46.6-9.3-46.2-9.8-46.2-10.3"/>
					</g>
					<g id="g158" transform="translate(425.2407,150.9438)">
						<path id="path160" class="st2" d="M-46.3-7.9c0-0.5-0.4-0.9-0.9-0.9c-0.5,0-0.9,0.4-0.9,0.9S-47.8-7-47.3-7
							C-46.8-7-46.3-7.4-46.3-7.9"/>
					</g>
					<g id="g162" transform="translate(405.2349,149.7114)">
						<path id="path164" class="st2" d="M-41.2-7.6c0-0.5-0.4-0.9-0.9-0.9c-0.5,0-0.9,0.4-0.9,0.9c0,0.5,0.4,0.9,0.9,0.9
							C-41.7-6.7-41.2-7.1-41.2-7.6"/>
					</g>
					<g id="g166" transform="translate(253.1704,157.376)">
						<path id="path168" class="st2" d="M-2.5-9.6c0-0.5-0.4-0.9-0.9-0.9c-0.5,0-0.9,0.4-0.9,0.9c0,0.5,0.4,0.9,0.9,0.9
							C-2.9-8.6-2.5-9.1-2.5-9.6"/>
					</g>
					<g id="g170" transform="translate(248.1772,165.3101)">
						<path id="path172" class="st2" d="M-1.2-11.6c0-0.5-0.4-0.9-0.9-0.9c-0.5,0-0.9,0.4-0.9,0.9c0,0.5,0.4,0.9,0.9,0.9
							C-1.6-10.7-1.2-11.1-1.2-11.6"/>
					</g>
					<g id="g174" transform="translate(238.3472,166.5425)">
						<path id="path176" class="st2" d="M1.3-11.9c0-0.5-0.4-0.9-0.9-0.9c-0.5,0-0.9,0.4-0.9,0.9c0,0.5,0.4,0.9,0.9,0.9
							C0.9-11,1.3-11.4,1.3-11.9"/>
					</g>
					<g id="g178" transform="translate(268.6206,343.6055)">
						<path id="path180" class="st1" d="M-6.4-57c-1.3-0.7-2.8-0.9-4.2-0.7c-0.1,0,0-0.1-0.4-0.1c-0.3,0-0.2,0.3-0.3,0.3
							c-0.1,0,0.1,0.3-0.6,0.5c-0.3,0.1-0.2-0.2-0.4-0.1c-1,0.5-1.9,1.4-2.5,2.5c-1,1.8-1,3.8-0.2,5.6c0,0.1-0.3,0-0.1,0.4
							c0.1,0.2,0.2,0.2,0.4,0.5c0.1,0.2,0.2,0.5,0.3,0.8c0.1,0.4,0.5-0.1,0.6,0c0.4,0.4,0.9,0.8,1.5,1.1c0.7,0.4,1.5,0.6,2.3,0.7
							c0.2,0,0.2,0.3,0.4,0.3c1.2,0.1,0.7-0.6,1-0.6c0.1,0,0.4,0.2,0.6,0.1c1.3-0.2,2.2-0.7,3.1-1.7c0.2-0.2,0.3,0.1,0.5-0.2
							c0.5-0.7,0.6-0.9,0.6-1.2c0-0.2,0-0.2,0-0.3c0.2-0.3,0.3-0.7,0.4-1c0.5-1.6,0.2-3.4-0.6-4.8c-0.1-0.1,0.3-0.4,0.2-0.6
							c-0.1-0.1-0.7-0.5-0.7-0.6c-0.1-0.1,0.1-0.4-0.1-0.4c-0.4,0-0.4,0.2-0.6,0.1c-0.1-0.1-0.1-0.1-0.2-0.2
							C-5.8-56.7-6.1-56.9-6.4-57"/>
					</g>
					<g id="g182" transform="translate(258.3374,355.749)">
						<path id="path184" class="st3" d="M-3.8-60.1c0,0,2.2,3.6,7.5,1.5c1.4-0.5,1.8-1.3,2.1-2.5c0.4-1.1,0.9-2.8,0.3-4.6
							c-0.7-2-1.2-2.3-2.9-3.2c-3.2-1.8-6.8,2-7.1,4.6c-0.3,2.8,4.9-2.1,6.3,4.3C3.1-57.6-3.8-60.1-3.8-60.1"/>
					</g>
					<g id="g186" transform="translate(325.3003,451.1919)">
						<path id="path188" class="st2" d="M-20.9-84.5c0-0.5-0.4-0.9-0.9-0.9c-0.5,0-0.9,0.4-0.9,0.9s0.4,0.9,0.9,0.9
							C-21.3-83.5-20.9-84-20.9-84.5"/>
					</g>
					<g id="g190" transform="translate(315.7222,457.2207)">
						<path id="path192" class="st2" d="M-18.4-86c0-0.5-0.4-0.9-0.9-0.9c-0.5,0-0.9,0.4-0.9,0.9c0,0.5,0.4,0.9,0.9,0.9
							C-18.8-85.1-18.4-85.5-18.4-86"/>
					</g>
					<g id="g194" transform="translate(324.0679,463.0488)">
						<path id="path196" class="st2" d="M-20.5-87.5c0-0.5-0.4-0.9-0.9-0.9c-0.5,0-0.9,0.4-0.9,0.9s0.4,0.9,0.9,0.9
							C-21-86.6-20.5-87-20.5-87.5"/>
					</g>
					<g id="g198" transform="translate(339.7466,448.1577)">
						<path id="path200" class="st2" d="M-24.5-83.7c0-0.5-0.4-0.9-0.9-0.9c-0.5,0-0.9,0.4-0.9,0.9s0.4,0.9,0.9,0.9
							C-25-82.8-24.5-83.2-24.5-83.7"/>
					</g>
					<g id="g202" transform="translate(307.1245,445.6929)">
						<path id="path204" class="st2" d="M-16.2-83.1c0-0.5-0.4-0.9-0.9-0.9c-0.5,0-0.9,0.4-0.9,0.9c0,0.5,0.4,0.9,0.9,0.9
							C-16.6-82.1-16.2-82.6-16.2-83.1"/>
					</g>
					<g id="g206" transform="translate(524.2886,142.7349)">
						<path id="path208" class="st2" d="M-71.6-5.8c0-0.5-0.4-0.9-0.9-0.9c-0.5,0-0.9,0.4-0.9,0.9s0.4,0.9,0.9,0.9
							C-72-4.9-71.6-5.3-71.6-5.8"/>
					</g>
					<g id="g210" transform="translate(513.5083,130.3784)">
						<path id="path212" class="st2" d="M-68.8-2.7c0-0.5-0.4-0.9-0.9-0.9c-0.5,0-0.9,0.4-0.9,0.9s0.4,0.9,0.9,0.9
							C-69.3-1.8-68.8-2.2-68.8-2.7"/>
					</g>
					<g id="g214" transform="translate(504.0601,139.3516)">
						<path id="path216" class="st2" d="M-66.4-5c0-0.5-0.4-0.9-0.9-0.9c-0.5,0-0.9,0.4-0.9,0.9S-67.9-4-67.3-4
							C-66.8-4-66.4-4.5-66.4-5"/>
					</g>
					<g id="g218" transform="translate(499.2192,131.6108)">
						<path id="path220" class="st2" d="M-65.2-3c0-0.5-0.4-0.9-0.9-0.9C-66.6-3.9-67-3.5-67-3s0.4,0.9,0.9,0.9
							C-65.6-2.1-65.2-2.5-65.2-3"/>
					</g>
					<g id="g222" transform="translate(504.0601,124.2158)">
						<path id="path224" class="st2" d="M-66.4-1.1c0-0.5-0.4-0.9-0.9-0.9c-0.5,0-0.9,0.4-0.9,0.9s0.4,0.9,0.9,0.9
							C-66.8-0.2-66.4-0.6-66.4-1.1"/>
					</g>
				</g>
			</g>
		</g>
	</g>
	<g id="small_x5F_moon_x5F_1">
		<g>
			<g>
				<g id="g228">
					<g id="g234" transform="translate(513.98,399.3657)">
						<path id="path236" class="st0" d="M-64.2-89.6c-1.5-1.5-3.3-2.3-5.2-2.4c-0.1,0,0-0.2-0.4-0.3c-0.4-0.1-0.4,0.3-0.5,0.3
							c-0.1,0,0,0.4-0.9,0.4c-0.4,0-0.1-0.3-0.5-0.3c-1.5,0.3-3,1.1-4.1,2.3c-1.9,1.9-2.7,4.6-2.4,7.1c0,0.1-0.3-0.1-0.3,0.5
							c0,0.3,0.2,0.4,0.3,0.7c0.1,0.3,0.1,0.7,0.1,1.1c0,0.5,0.7,0.1,0.8,0.3c0.4,0.7,0.9,1.4,1.5,2c0.8,0.8,1.7,1.4,2.7,1.8
							c0.3,0.1,0.2,0.5,0.4,0.6c1.5,0.6,1.1-0.5,1.5-0.3c0.2,0.1,0.5,0.4,0.7,0.4c1.7,0.2,3.1-0.1,4.6-1c0.4-0.2,0.4,0.3,0.8,0
							c0.8-0.7,1.2-1,1.2-1.3c0-0.3,0.1-0.3,0.2-0.4c0.3-0.4,0.6-0.8,0.9-1.2c1.2-2,1.5-4.3,1-6.5c-0.1-0.2,0.5-0.5,0.4-0.7
							c-0.1-0.2-0.7-0.9-0.7-1.1c-0.1-0.2,0.2-0.5,0-0.6c-0.5-0.1-0.6,0.1-0.7-0.1c-0.1-0.1-0.1-0.2-0.2-0.3
							C-63.6-88.8-63.9-89.2-64.2-89.6"/>
					</g>
					<g id="g238" transform="translate(499.0298,413.8862)">
						<path id="path240" class="st1" d="M-60.4-93.3c-0.2-0.5-0.1-1.1,0.4-1.1c0.6,0,1.5-0.1,1.4,0.7c0,0.2-0.5-0.2-1.1-0.2
							C-60.3-93.8-60.3-92.8-60.4-93.3"/>
					</g>
					<g id="g242" transform="translate(498.8325,413.7124)">
						<path id="path244" class="st2" d="M-60.4-93.2c0-0.4,0.4,0.5,1,0.5c0.6,0,1-0.8,1-0.4c0,0.2-0.1,0.3-0.2,0.4
							c-0.1,0.1-0.2,0.1-0.4,0.2c-0.1,0-0.3,0.1-0.5,0.1c-0.2,0-0.3-0.1-0.5-0.2C-60.2-92.7-60.4-93-60.4-93.2"/>
					</g>
					<g id="g246" transform="translate(498.7134,413.7046)">
						<path id="path248" class="st3" d="M-60.3-93.2c0-0.1,0.1-0.1,0.1-0.2c0-0.2,0.1-0.4,0.3-0.5c0.2-0.1,0.5-0.2,0.9,0
							c0.3,0.1,0.4,0.1,0.5,0.2c0.1,0.1,0.1,0.2,0.2,0.3c0,0.1,0,0.1,0,0.2c0,0.1,0.1,0.1,0.1,0.2c0,0.1-0.1,0.3-0.3,0.3
							c0,0-0.2,0.1-0.3,0.1c-0.1,0-0.1,0-0.2,0c-0.1,0-0.1,0.1-0.2,0.1c-0.1,0-0.2,0-0.3-0.1c-0.4-0.1-0.6-0.3-0.7-0.5
							C-60.3-93.1-60.3-93.1-60.3-93.2"/>
					</g>
					<g id="g250" transform="translate(500.1548,414.0937)">
						<path id="path252" class="st1" d="M-60.7-93.3c0.5,0.1,1.1-0.3,0.9-0.1c-0.2,0.3-0.8,0.4-0.9,0.4c-0.1-0.1-0.6-0.1-0.7-0.2
							c-0.1-0.1-0.2-0.3-0.2-0.5S-61.3-93.4-60.7-93.3"/>
					</g>
					<g id="g254" transform="translate(510.27,401.5986)">
						<path id="path256" class="st1" d="M-63.3-90.1c-0.1-0.3-0.1-0.7,0.4-0.7c0.6,0,1.5-0.1,1.3,0.5c0,0.2-0.5-0.2-1.1-0.2
							C-63.2-90.5-63.2-89.8-63.3-90.1"/>
					</g>
					<g id="g258" transform="translate(510.0806,401.4771)">
						<path id="path260" class="st2" d="M-63.2-90.1c0-0.3,0.4,0.3,1,0.3s1-0.5,1-0.3c0,0.1-0.1,0.2-0.2,0.3
							c-0.1,0.1-0.2,0.1-0.4,0.1c-0.1,0-0.3,0.1-0.4,0.1c-0.2,0-0.3-0.1-0.5-0.1C-63.1-89.7-63.2-89.9-63.2-90.1"/>
					</g>
					<g id="g262" transform="translate(509.9634,401.4712)">
						<path id="path264" class="st3" d="M-63.2-90.1c0-0.1,0.1-0.1,0.1-0.1c0-0.1,0.1-0.3,0.3-0.3c0.2-0.1,0.5-0.1,0.8,0
							c0.3,0.1,0.4,0,0.5,0.2c0.1,0.1,0.1,0.1,0.2,0.2c0,0,0,0.1,0,0.1c0,0,0.1,0.1,0.1,0.1c0,0.1-0.1,0.2-0.3,0.2
							c0,0-0.1,0-0.3,0.1c-0.1,0-0.1,0-0.2,0c-0.1,0-0.1,0.1-0.2,0.1c-0.1,0-0.2,0-0.3,0c-0.3,0-0.6-0.2-0.7-0.3
							C-63.1-90-63.2-90-63.2-90.1"/>
					</g>
					<g id="g266" transform="translate(511.3569,401.7427)">
						<path id="path268" class="st1" d="M-63.6-90.2c0.5,0.1,1-0.2,0.9-0.1c-0.2,0.2-0.8,0.3-0.9,0.3c-0.1,0-0.6-0.1-0.7-0.1
							c-0.1-0.1-0.2-0.2-0.2-0.3C-64.4-90.5-64.2-90.2-63.6-90.2"/>
					</g>
					<g id="g270" transform="translate(502.4155,408.7861)">
						<path id="path272" class="st1" d="M-61.3-92c-0.3-0.8-0.3-1.8,0.8-1.8c1.1,0,2.8-0.2,2.6,1.2c-0.1,0.4-1-0.4-2.1-0.4
							C-61.1-93-61-91.2-61.3-92"/>
					</g>
					<g id="g274" transform="translate(502.0513,408.4814)">
						<path id="path276" class="st2" d="M-61.2-91.9c0-0.7,0.8,0.9,1.9,0.9c1.1,0,1.9-1.3,1.9-0.6c0,0.3-0.1,0.5-0.3,0.7
							c-0.2,0.2-0.4,0.2-0.7,0.3c-0.2,0.1-0.6,0.2-0.9,0.2c-0.4,0-0.6-0.1-0.9-0.3C-60.8-91-61.2-91.4-61.2-91.9"/>
					</g>
					<g id="g278" transform="translate(501.8267,408.4668)">
						<path id="path280" class="st3" d="M-61.1-91.9c0-0.2,0.2-0.2,0.2-0.3c0.1-0.4,0.2-0.7,0.6-0.9c0.3-0.1,0.9-0.3,1.6-0.1
							c0.6,0.2,0.7,0.1,1,0.4c0.1,0.1,0.2,0.3,0.3,0.5c0,0.1,0,0.2,0,0.3c0,0.1,0.2,0.2,0.2,0.3c-0.1,0.2-0.3,0.4-0.5,0.6
							c-0.1,0.1-0.3,0.1-0.5,0.2c-0.2,0.1-0.2,0-0.5,0.1c-0.2,0-0.2,0.2-0.4,0.2c-0.2,0-0.3-0.1-0.5-0.1c-0.7-0.1-1.2-0.4-1.4-0.9
							C-61-91.7-61.1-91.8-61.1-91.9"/>
					</g>
					<g id="g282" transform="translate(504.5151,409.1494)">
						<path id="path284" class="st1" d="M-61.8-92c0.9,0.2,2-0.6,1.7-0.2c-0.3,0.5-1.5,0.8-1.7,0.7c-0.2-0.1-1.1-0.2-1.4-0.4
							c-0.2-0.2-0.4-0.6-0.3-0.8C-63.4-93-63-92.3-61.8-92"/>
					</g>
					<g id="g286" transform="translate(514.4976,410.0156)">
						<path id="path288" class="st1" d="M-64.4-92.3c0.1-0.5-0.1-1.2-0.9-1s-2.1,0.4-1.6,1.3c0.1,0.2,0.6-0.4,1.4-0.6
							C-64.7-92.8-64.4-91.7-64.4-92.3"/>
					</g>
					<g id="g290" transform="translate(514.7104,409.7573)">
						<path id="path292" class="st2" d="M-64.4-92.2c-0.1-0.4-0.4,0.7-1.2,0.9c-0.8,0.2-1.6-0.5-1.4,0c0,0.2,0.2,0.3,0.3,0.4
							c0.1,0.1,0.3,0,0.5,0c0.2,0,0.4,0,0.7,0c0.3-0.1,0.4-0.2,0.6-0.4C-64.5-91.6-64.4-91.9-64.4-92.2"/>
					</g>
					<g id="g294" transform="translate(514.8706,409.7065)">
						<path id="path296" class="st3" d="M-64.5-92.2c0-0.1-0.1-0.1-0.2-0.2c-0.1-0.2-0.3-0.4-0.6-0.4c-0.2,0-0.7,0-1.2,0.3
							c-0.4,0.2-0.5,0.2-0.7,0.4c-0.1,0.1-0.1,0.2-0.2,0.3c0,0.1,0,0.1,0,0.2c0,0.1-0.1,0.2-0.1,0.2c0.1,0.1,0.3,0.2,0.5,0.3
							c0.1,0,0.2,0,0.4,0c0.1,0,0.2,0,0.3,0c0.1,0,0.2,0.1,0.3,0c0.1,0,0.2-0.1,0.3-0.2c0.5-0.2,0.8-0.5,0.8-0.8
							C-64.5-92-64.4-92.1-64.5-92.2"/>
					</g>
					<g id="g298" transform="translate(513.0474,410.6382)">
						<path id="path300" class="st1" d="M-64-92.4c-0.6,0.3-1.5,0-1.3,0.2c0.3,0.3,1.2,0.2,1.4,0.1c0.1-0.1,0.8-0.3,0.9-0.5
							c0.1-0.1,0.2-0.4,0.1-0.6C-63-93.3-63.2-92.8-64-92.4"/>
					</g>
					<g id="g302" transform="translate(500.7007,403.0557)">
						<path id="path304" class="st1" d="M-60.9-90.5c0.1-0.4,0.1-1-0.3-1c-0.4,0-1-0.1-0.9,0.7c0,0.2,0.3-0.2,0.7-0.2
							C-60.9-91-60.9-90.1-60.9-90.5"/>
					</g>
					<g id="g306" transform="translate(500.8257,402.8892)">
						<path id="path308" class="st2" d="M-60.9-90.5c0-0.4-0.3,0.5-0.6,0.5c-0.4,0-0.6-0.7-0.6-0.4c0,0.1,0,0.3,0.1,0.4
							c0.1,0.1,0.1,0.1,0.2,0.2c0.1,0,0.2,0.1,0.3,0.1c0.1,0,0.2-0.1,0.3-0.2C-61-90-60.9-90.2-60.9-90.5"/>
					</g>
					<g id="g310" transform="translate(500.9019,402.8813)">
						<path id="path312" class="st3" d="M-60.9-90.5c0-0.1-0.1-0.1-0.1-0.2c0-0.2-0.1-0.4-0.2-0.5c-0.1-0.1-0.3-0.1-0.6,0
							c-0.2,0.1-0.2,0.1-0.4,0.2c0,0.1-0.1,0.2-0.1,0.3c0,0.1,0,0.1,0,0.2c0,0.1-0.1,0.1-0.1,0.2c0,0.1,0.1,0.2,0.2,0.3
							c0,0,0.1,0.1,0.2,0.1c0.1,0,0.1,0,0.2,0c0.1,0,0.1,0.1,0.1,0.1c0.1,0,0.1,0,0.2-0.1c0.2-0.1,0.4-0.2,0.5-0.5
							C-61-90.3-60.9-90.4-60.9-90.5"/>
					</g>
					<g id="g314" transform="translate(499.9819,403.2549)">
						<path id="path316" class="st1" d="M-60.7-90.5c-0.3,0.1-0.7-0.3-0.6-0.1c0.1,0.3,0.5,0.4,0.6,0.4c0.1-0.1,0.4-0.1,0.5-0.2
							c0.1-0.1,0.1-0.3,0.1-0.5C-60.1-91-60.3-90.7-60.7-90.5"/>
					</g>
				</g>
			</g>
		</g>
	</g>
	<g id="rocket">
		<g>
			<g>
				<g id="g320">
					<g id="thruster">
						<g id="g326" transform="translate(143.8799,268.3564)">
							<path id="path328" class="st4" d="M53.5-60l-6.3-0.1c0,0,0.2-6.1,1.1-10.6c1.3-6.3,4.2-11.2,5.6-12.3c1.4,1.1,4,6.1,5.1,12.5
								c0.8,4.6,0.7,10.7,0.7,10.7S53.5-60,53.5-60z"/>
						</g>
						<g id="g330" transform="translate(143.6924,268.3569)">
							<path id="path332" class="st5" d="M53.5-60l-4.3-0.1c0,0,0.2-6.9,0.9-10.5c0.9-5,3-8.9,4-9.8c1,0.9,2.8,4.9,3.6,9.9
								c0.5,3.7,0.5,10.5,0.5,10.5S53.5-60,53.5-60z"/>
						</g>
					</g>
					<g id="g334" transform="translate(157.9229,267.9727)">
						<path id="path336" class="st2" d="M49.9-59.7l-4.3,2.6l0-2.4l-12.5-0.2l0,2.4L29-60.1l3.4-9.2L32-61.6l0.3,0.1l0,0l14.2,0.3
							l0,0l0.3-0.1l0-7.6L49.9-59.7z"/>
					</g>
					<g id="g338" transform="translate(152.2842,268.3564)">
						<path id="path340" class="st6" d="M51.3-59.8l-12.5-0.2l-0.3,16.2c0,0-0.3,5.6,6.2,5.8c6.5,0.1,6.4-5.5,6.4-5.5L51.3-59.8z"/>
					</g>
					<g id="g342" transform="translate(143.7451,296.7656)">
						<path id="path344" class="st7" d="M53.1-67.2c-0.2,0-0.3,0-0.5,0c-5.2-0.1-4.9-5.2-4.9-5.2L48-88.5l1,0l-0.3,16.1
							C48.7-72.4,48.4-67.6,53.1-67.2"/>
					</g>
					<g id="g346" transform="translate(147.4375,288.5933)">
						<path id="path348" class="st8" d="M52.3-65.1c0-1.5-1.1-2.7-2.6-2.7c-1.5,0-2.7,1.1-2.7,2.6c0,1.5,1.1,2.7,2.6,2.7
							C51-62.4,52.2-63.6,52.3-65.1"/>
					</g>
				</g>
			</g>
		</g>
	</g>
	<g id="big_x5F_moon">
		<g>
			<g>
				<g id="g352">
					<g id="g358" transform="translate(441.687,267.2432)">
						<path id="path360" class="st5" d="M-23.5-13.5c0.1-5.5,3.4-11.9,3.8-16.5c0.2-2.6-2.3-1.1-2.4-2.4
							C-24.8-59.7-43.1-82.5-68-91.8c-1.1-0.4,2-2.3,0.5-4.4c-1-1.4-11.6-1.3-19.1-1.3c-9.3-0.1-14.8-3-16-2.6
							c-3.6,1.1-1.6,4.7-2.5,4.9c-12,2.1-22.9,7.2-32,14.4c-2.3,1.8-6.9,4.7-6.5,7.8c0.3,3-6.4-0.3-8.2,2.1c-1.5,2,1.4,4.1-2.7,6.2
							c-1,0.5-0.3,3.6-1.2,4.3c-1.6,1.2-0.2,2.6-0.5,3c-4.9,9.7-7.7,20.6-7.7,32.3c0,15.8,5.1,30.4,13.8,42.2c0.6,0.7-4,3.3-2.1,5
							c4,3.7,8.2,6,11.5,8.3c2.5,1.7,2.5,5.1,5.4,5.5c2,0.3,3.9-2.3,5-2.3c1.4,0.1,1.4,1.6,1.9,1.9c0.7,0.4,0.4,1.2,1.1,1.6
							c10.2,5.6,21.9,8.8,34.4,8.8c3.9,0,5.3,0,9-0.6c1.4-0.2-0.2,1.4,1.3,2c0.8,0.3,2.3-1.1,3.6-1.6c1.6-0.5,5.9-1.9,7.1-2.2
							c1-0.3,2.4-0.9,4-1.1c2-0.3,2.7,0.3,3.9-0.5c2-1.4-0.6-1.9,0.9-2.6c17-7.8,30.4-22.2,36.9-39.8c0.3-0.8,3.2,4.3,3.3-0.3
							C-22.8-4.4-23.6-5.7-23.5-13.5"/>
					</g>
					<g id="g362" transform="translate(335.5669,150.9849)">
						<path id="path364" class="st4" d="M3.6,16.2c1.2-0.4,6.7,2.5,16,2.6c7.5,0.1,18.1,0,19.1,1.3c1.5,2.1-1.6,3.9-0.5,4.4
							c24.9,9.3,43.1,32,45.9,59.4c0.1,1.2,2.6-0.2,2.4,2.4c-0.4,4.6-3.7,11.1-3.8,16.5c-0.1,7.8,0.6,9.1,0.6,12.8
							c-0.1,4.7-3-0.5-3.3,0.3c-6.6,17.7-19.9,32-36.9,39.8c-1.5,0.7,1.2,1.2-0.9,2.6c-1.1,0.8-1.8,0.2-3.9,0.5
							c-1.7,0.2-3,0.8-4,1.1c-1.2,0.4-5.5,1.7-7.1,2.2c-1.3,0.4-2.8,1.9-3.6,1.6c-1.5-0.6,0.1-2.3-1.3-2c-1.8,0.3-3,0.4-4.3,0.5
							c1.4-0.9,2.7-1.8,4.1-2.8c2.8-2,7.8-3.7,10.7-6c4.9-4.1,7.7-9.4,12.3-14.9c3.5-4.2,12.6-7.6,15.4-12.6c3.6-6.4,0.2-4,2.1-11.8
							c2.6-10.9,3.5-9.2,1.6-21c-1.4-8.9,2.5-32.4-16-52.2C39,31,9.8,25.4-7,23c2.6-0.8,5.3-1.4,8-1.9C2,20.9-0.1,17.2,3.6,16.2"/>
					</g>
					<g id="g366" transform="translate(315.061,237.918)">
						<path id="path368" class="st9" d="M8.8-6l32.9,9.9c0,0,0.7-9.1-4.3-13.9c-1-1-3-2.5-4.7-3.2C31-14,30.5-14.8,27.9-15
							c-1.9-0.1-8,0.1-9.7,0.5C10.4-12.5,8.8-6,8.8-6"/>
					</g>
					<g id="g370" transform="translate(334.1675,272.9429)">
						<path id="path372" class="st10" d="M3.9-14.9c9.2,0,16.8-7.1,17.4-16.2c0,0.4,1.3,0.7,1.4,1.1c0.9,4-0.6,9-3.3,11.9
							c-2.7,2.8-6.9,3.9-10.8,4.8c-1.5,0.4-5.1,1-6.6,1c-9.7,0-15.3-9.4-15.3-19.1c0-0.4,1.9,0.7,1.9,0.3
							C-10.7-22.1-5.3-14.9,3.9-14.9"/>
					</g>
					<g id="g374" transform="translate(360.1587,251.2026)">
						<path id="path376" class="st4" d="M-2.7-9.4c0-6.6-3.7-11.9-9.6-14.9c-1.2-0.6-2.5-2.2-3.8-2.6c-1.7-0.5-4.1-0.3-5.9-0.3
							c-9.7,0-17.6,7.9-17.6,17.6S-31.7,7.9-22,7.9C-12.4,7.9-2.7,0.3-2.7-9.4"/>
					</g>
					<g id="g378" transform="translate(332.2798,269.209)">
						<path id="path380" class="st9" d="M4.4-14c2.1,0.5,7.8,0.2,10.3-1.6c3.7-2.6,6.6-2.5,8.5-7.8c-0.1,0.4-0.4,1.5-0.5,1.9
							c-2.3,6.8-12.2,12.2-21.2,9.7c-9-2.5-14.4-11.2-12.1-19.5c0.1-0.4,0.2-0.7,0.4-1.1c-0.7,3.6-0.4,7.5,1.8,10.3
							c0.6,0.8,2.6,2.9,3.3,3.5c1,0.9,3.3,1.2,4.3,1.9C1-15.6,2.8-14.4,4.4-14"/>
					</g>
					<g id="g382" transform="translate(331.2173,231.9863)">
						<path id="path384" class="st5" d="M4.7-4.5c-6,0.6-11.6,5.2-11.4,5c2.6-3.8,6.9-7,13.7-7.3c0.9,0,4.3-0.4,5.2-0.1
							c1.3,0.4,2.1,1.5,2.6,1.7c2.2,1.4,4,2.1,5.2,3.3c2.7,2.6,3.2,6,3.5,9.8c0,0.3-2.1-4.7-5.5-6.8C15.7-4.3,10.1-5,4.7-4.5"/>
					</g>
					<g id="g386" transform="translate(378.5454,190.6274)">
						<path id="path388" class="st9" d="M-7.4,6.1l17.7,5.3c0,0,0.4-4.9-2.3-7.5C7.4,3.4,6.4,2.6,5.5,2.2c-1-0.4-1.2-0.9-2.6-1
							c-1-0.1-4.3,0-5.2,0.3C-6.5,2.6-7.4,6.1-7.4,6.1"/>
					</g>
					<g id="g390" transform="translate(388.8081,209.4419)">
						<path id="path392" class="st10" d="M-10,1.3c5,0,9-3.8,9.4-8.7c0,0.2,0.7,0.4,0.7,0.6C0.6-4.7-0.2-2-1.7-0.5
							C-3.1,1-5.4,1.6-7.5,2.1c-0.8,0.2-2.7,0.5-3.6,0.5c-5.2,0-8.2-5.1-8.2-10.2c0-0.2,1,0.4,1,0.2C-17.8-2.6-14.9,1.3-10,1.3"/>
					</g>
					<g id="g394" transform="translate(402.77,197.7632)">
						<path id="path396" class="st4" d="M-13.5,4.2c0-3.5-2-6.4-5.2-8c-0.7-0.3-1.4-1.2-2.1-1.4c-0.9-0.3-2.2-0.2-3.2-0.2
							c-5.2,0-9.4,4.2-9.4,9.4c0,5.2,4.2,9.4,9.4,9.4C-18.7,13.5-13.5,9.5-13.5,4.2"/>
					</g>
					<g id="g398" transform="translate(387.7944,207.436)">
						<path id="path400" class="st9" d="M-9.7,1.8c1.1,0.3,4.2,0.1,5.6-0.9c2-1.4,3.6-1.4,4.6-4.2c0,0.2-0.2,0.8-0.3,1
							C-1.1,1.4-6.4,4.3-11.2,3c-4.8-1.3-7.7-6-6.5-10.5c0.1-0.2,0.1-0.4,0.2-0.6c-0.4,1.9-0.2,4,1,5.5c0.3,0.4,1.4,1.5,1.8,1.9
							c0.5,0.5,1.8,0.6,2.3,1C-11.6,0.9-10.6,1.6-9.7,1.8"/>
					</g>
					<g id="g402" transform="translate(387.2241,187.4419)">
						<path id="path404" class="st5" d="M-9.6,6.9c-3.2,0.3-6.2,2.8-6.1,2.7c1.4-2,3.7-3.7,7.4-3.9c0.5,0,2.3-0.2,2.8-0.1
							c0.7,0.2,1.1,0.8,1.4,0.9C-3,7.3-2,7.7-1.4,8.3c1.4,1.4,1.7,3.2,1.9,5.3c0,0.1-1.1-2.5-2.9-3.6C-3.7,6.9-6.7,6.6-9.6,6.9"/>
					</g>
					<g id="g406" transform="translate(392.7163,256.9287)">
						<path id="path408" class="st9" d="M-11-10.8l22.3,4.2c0,0,0.4-5.6-2.6-8.5c-0.6-0.6-1.9-1.5-2.8-2c-1.1-0.5-1.4-1-3-1.1
							c-1.2-0.1-5.6,0.3-6.6,0.5C-8.5-16.4-11-10.8-11-10.8"/>
					</g>
					<g id="g410" transform="translate(407.313,275.8745)">
						<path id="path412" class="st10" d="M-14.7-15.7c5.6,0,10.2-4.4,10.6-9.9c0,0.3-0.1,1.3,0,1.6c0.6,2.4-2.1,4.9-3.3,6.5
							c-1.6,2.1-3.7,2.5-6,3c-0.9,0.2-3.2-0.4-4.1-0.6c-5.4-1.2-9.3-4.6-9.3-10.5c0-0.3,2.8,0.3,2.9,0C-23.6-20-20.3-15.7-14.7-15.7
							"/>
					</g>
					<g id="g414" transform="translate(423.1528,262.626)">
						<path id="path416" class="st4" d="M-18.7-12.3c0-4-2.3-7.2-5.9-9.1c-0.7-0.4-1.5-1.3-2.3-1.6c-1-0.3-2.5-0.2-3.6-0.2
							c-5.9,0-12.2,4.8-12.2,10.7c0,5.9,6.3,10.7,12.2,10.7C-24.6-1.8-18.7-6.4-18.7-12.3"/>
					</g>
					<g id="g418" transform="translate(406.1636,273.5986)">
						<path id="path420" class="st9" d="M-14.4-15.1c1.3,0.3,4.8,0.1,6.3-1c2.3-1.6,2.4,1.1,3.5-2.1c0,0.2,1.5-1.7,1.4-1.4
							c-1.4,4.1-7.4,7.4-12.9,5.9c-5.5-1.5-11.7-7.7-7.4-11.9c0.2-0.2-0.5,2.7-0.4,2.5c-0.4,2.2,1,3.2,2.4,5
							c0.4,0.5,1.4,0.8,1.9,1.2c0.6,0.5,2.2,0.9,2.8,1.4C-15.8-14.9-15.4-15.3-14.4-15.1"/>
					</g>
					<g id="g422" transform="translate(415.5688,253.6797)">
						<path id="path424" class="st5" d="M-16.8-10c2.9,2.1,4.4,6.3,4.3,6.1c-0.2-2.8-1.4-5.8-4.8-8c-0.4-0.3-2.1-1.5-2.6-1.7
							c-0.8-0.2-1.5,0.1-1.9,0.1c-1.6,0-2.7-0.1-3.7,0.1c-2.2,0.5-3.5,2.2-4.8,4.1c-0.1,0.1,2.5-1.8,4.9-1.9
							C-22.5-13.3-19.4-11.9-16.8-10"/>
					</g>
					<g id="g426" transform="translate(272.9233,252.6997)">
						<path id="path428" class="st9" d="M19.6-9.8l12.7,3.8c0,0,0.3-3.5-1.7-5.3c-0.4-0.4-1.2-1-1.8-1.2c-0.7-0.3-0.9-0.6-1.9-0.7
							c-0.7-0.1-3.1,0-3.7,0.2C20.2-12.2,19.6-9.8,19.6-9.8"/>
					</g>
					<g id="g430" transform="translate(280.2817,266.1914)">
						<path id="path432" class="st10" d="M17.7-13.2c3.6,0,6.5-2.8,6.7-6.2c0,0.2,0.5,0.3,0.5,0.4c0.3,1.5-0.2,3.5-1.3,4.6
							c-1,1.1-2.7,1.5-4.1,1.8c-0.6,0.1-1.9,0.4-2.5,0.4c-3.7,0-5.9-3.6-5.9-7.3c0-0.2,0.7,0.3,0.7,0.1C12-15.9,14.1-13.2,17.7-13.2
							"/>
					</g>
					<g id="g434" transform="translate(290.2954,257.8169)">
						<path id="path436" class="st4" d="M15.1-11.1c0-2.5-1.4-4.6-3.7-5.8c-0.5-0.2-1-0.8-1.5-1c-0.7-0.2-1.6-0.1-2.3-0.1
							c-3.7,0-6.8,3-6.8,6.8c0,3.7,3,6.8,6.8,6.8C11.4-4.4,15.1-7.3,15.1-11.1"/>
					</g>
					<g id="g438" transform="translate(279.5552,264.7534)">
						<path id="path440" class="st9" d="M17.9-12.8c0.8,0.2,3,0.1,4-0.6c1.4-1,2.6-1,3.3-3c0,0.1-0.1,0.6-0.2,0.7
							c-0.9,2.6-4.7,4.7-8.2,3.8s-5.6-4.3-4.7-7.5c0-0.1,0.1-0.3,0.1-0.4c-0.3,1.4-0.2,2.9,0.7,4c0.2,0.3,1,1.1,1.3,1.4
							c0.4,0.3,1.3,0.5,1.7,0.7C16.5-13.4,17.2-13,17.9-12.8"/>
					</g>
					<g id="g442" transform="translate(279.146,250.4146)">
						<path id="path444" class="st5" d="M18-9.2c-2.3,0.2-4.5,2-4.4,1.9c1-1.5,2.6-2.7,5.3-2.8c0.3,0,1.7-0.1,2,0
							c0.5,0.2,0.8,0.6,1,0.7c0.9,0.5,1.5,0.8,2,1.3c1,1,1.2,2.3,1.3,3.8c0,0.1-0.8-1.8-2.1-2.6C22.2-9.1,20-9.4,18-9.2"/>
					</g>
					<g id="g446" transform="translate(288.0532,301.9258)">
						<path id="path448" class="st9" d="M15.7-22.3l17.5,3.2c0,0,0.4-3-2.3-4.5c-0.6-0.3-1.6-0.8-2.5-1c-0.9-0.3-1.2-0.5-2.6-0.6
							c-1,0-4.3,0-5.1,0.2C16.5-24.4,15.7-22.3,15.7-22.3"/>
					</g>
					<g id="g450" transform="translate(298.1821,313.3203)">
						<path id="path452" class="st10" d="M13.1-25.2c4.9,0,8.9-2.3,9.2-5.3c0,0.1,0.7,0.2,0.7,0.4c0.5,1.3-0.3,2.9-1.8,3.9
							c-1.4,0.9-3.7,1.3-5.7,1.6c-0.8,0.1-2.7,0.3-3.5,0.3C7-24.4,4-27.4,4-30.6c0-0.1,1,0.2,1,0.1C5.4-27.5,8.2-25.2,13.1-25.2"/>
					</g>
					<g id="g454" transform="translate(311.9644,306.2471)">
						<path id="path456" class="st4" d="M9.6-23.4c0-2.1-2-3.9-5.1-4.9c-0.6-0.2-1.3-0.7-2-0.8c-0.9-0.2-2.2-0.1-3.1-0.1
							c-5.1,0-9.3,2.6-9.3,5.7s4.2,5.7,9.3,5.7C4.5-17.8,9.6-20.2,9.6-23.4"/>
					</g>
					<g id="g458" transform="translate(297.1821,312.1055)">
						<path id="path460" class="st9" d="M13.4-24.9c1.1,0.2,4.1,0.1,5.5-0.5c2-0.9,3.5-0.8,4.5-2.5c0,0.1-0.2,0.5-0.3,0.6
							c-1.2,2.2-6.5,4-11.2,3.2c-4.8-0.8-7.6-3.6-6.4-6.4c0.1-0.1,0.1-0.2,0.2-0.4c-0.4,1.2-0.2,2.4,0.9,3.3
							c0.3,0.3,1.4,0.9,1.8,1.2c0.5,0.3,1.7,0.4,2.3,0.6C11.5-25.4,12.5-25,13.4-24.9"/>
					</g>
					<g id="g462" transform="translate(296.6187,299.9956)">
						<path id="path464" class="st5" d="M13.5-21.8c-3.2,0.2-6.1,1.7-6.1,1.6c1.4-1.2,3.6-2.3,7.3-2.4c0.5,0,2.3-0.1,2.7,0
							c0.7,0.1,1.1,0.5,1.4,0.6c1.2,0.5,2.1,0.7,2.7,1.1c1.4,0.8,1.7,2,1.8,3.2c0,0.1-1.1-1.5-2.9-2.2C19.3-21.8,16.4-22,13.5-21.8"
							/>
					</g>
					<g id="g466" transform="translate(365.7056,310.6768)">
						<path id="path468" class="st9" d="M-4.1-24.5L15.8-22c0,0-1.8-6.9-9.6-7.1C-0.6-29.2-4.1-24.5-4.1-24.5"/>
					</g>
					<g id="g470" transform="translate(389.1401,309.2837)">
						<path id="path472" class="st9" d="M-10.1-24.2L-16.6-11c0,0,8,0.8,9.6-4.6C-5.6-20.3-10.1-24.2-10.1-24.2"/>
					</g>
					<g id="g474" transform="translate(376.4907,327.8403)">
						<path id="path476" class="st10" d="M-6.8-28.9c5.1,0,9.3-3.5,9.6-8c0,0.2,1,0.7,1,0.9c0,4-3.2,6.9-7.5,7.9
							c-0.9,0.2-3,0.8-3.9,0.8c-2,0-3.7-1.5-5.2-2.5c-2.5-1.6-3.6-3.4-3.6-6.4c0-0.2,0-0.4,0-0.6C-16.1-32.5-11.9-28.9-6.8-28.9"/>
					</g>
					<g id="g478" transform="translate(393.3335,317.0513)">
						<path id="path480" class="st4" d="M-11.1-26.2c0-4.8-5.8-8.9-11.7-8.9s-10.6,3.9-10.6,8.7c0,3.6,2.2,6.6,6,7.9
							c0.6,0.2,1.6,0.1,2.2,0.2c0.7,0.1,1.5,0.6,2.3,0.6C-17-17.6-11.1-21.3-11.1-26.2"/>
					</g>
					<g id="g482" transform="translate(374.7349,325.1558)">
						<path id="path484" class="st9" d="M-6.4-28.2c0.9,0.2,1.9,0.7,3.1,0.7c3.4,0,7.7-1.7,8.9-4.4c0,0.2-0.2,0.7-0.3,0.9
							c-1.1,2.6-5.3,4.8-9.7,4.7c-0.8,0-1.5-0.4-2.3-0.6c-0.7-0.2-1.6-0.1-2.2-0.4c-3.9-1.7-6-5.1-4.9-8.3c0.1-0.2,0.1-0.3,0.2-0.5
							c-0.5,2,0.4,4.2,2.1,5.6C-10-29.3-8-28.6-6.4-28.2"/>
					</g>
					<g id="g486" transform="translate(384.9185,309.5273)">
						<path id="path488" class="st5" d="M-9-24.2c3.3,1.6,5.6,5,5.6,4.8c-0.9-2.6-4.3-6.4-9.1-7.1c-4.8-0.7-6.9,0.1-9.5,3.2
							c-0.1,0.1,2.4-2,4.5-1.2C-15.3-26.6-12-25.7-9-24.2"/>
					</g>
					<g id="g490" transform="translate(309.981,192.4722)">
						<path id="path492" class="st9" d="M10.1,5.6l16,2c0,0-1.4-5.6-7.7-5.7C12.9,1.8,10.1,5.6,10.1,5.6"/>
					</g>
					<g id="g494" transform="translate(328.8384,191.3521)">
						<path id="path496" class="st9" d="M5.3,5.9L0,16.5c0,0,6.4,0.7,7.7-3.7C8.9,9,5.3,5.9,5.3,5.9"/>
					</g>
					<g id="g498" transform="translate(318.6597,206.2837)">
						<path id="path500" class="st10" d="M7.9,2.1c4.1,0,7.4-2.9,7.7-6.5c0,0.2,0.8,0.5,0.8,0.7c0,3.2-2.6,5.6-6.1,6.3
							C9.7,2.8,7.9,3.3,7.2,3.3c-1.6,0-2.9-1.2-4.2-2C1,0,0.1-1.5,0.1-3.9c0-0.2,0-0.3,0-0.5C0.4-0.8,3.8,2.1,7.9,2.1"/>
					</g>
					<g id="g502" transform="translate(332.2134,197.6021)">
						<path id="path504" class="st4" d="M4.4,4.3c0-3.9-4.7-7.1-9.4-7.1s-8.5,3.1-8.5,7c0,2.9,1.8,5.3,4.9,6.3
							c0.5,0.2,1.3,0.1,1.8,0.2c0.6,0.1,1.2,0.5,1.9,0.5C-0.2,11.2,4.4,8.2,4.4,4.3"/>
					</g>
					<g id="g506" transform="translate(317.2466,204.1235)">
						<path id="path508" class="st9" d="M8.3,2.6C9,2.8,9.8,3.2,10.7,3.2c2.8,0,6.2-1.4,7.2-3.5c0,0.1-0.2,0.6-0.2,0.7
							c-0.9,2.1-4.3,3.9-7.8,3.8C9.2,4.1,8.7,3.8,8,3.6C7.4,3.5,6.8,3.6,6.3,3.3C3.2,2,1.5-0.7,2.3-3.4c0-0.1,0.1-0.3,0.2-0.4
							C2.1-2.2,2.8-0.4,4.2,0.7C5.4,1.7,7,2.3,8.3,2.6"/>
					</g>
					<g id="g510" transform="translate(325.4419,191.5474)">
						<path id="path512" class="st5" d="M6.2,5.8c2.7,1.3,4.5,4,4.5,3.9C10,7.6,7.2,4.6,3.3,4c-3.9-0.6-5.6,0.1-7.7,2.5
							c-0.1,0.1,2-1.6,3.6-1C1.1,3.9,3.8,4.7,6.2,5.8"/>
					</g>
				</g>
			</g>
		</g>
	</g>
</g>
</svg>
