<?xml version="1.0" encoding="utf-8"?>
<!-- Generator: Adobe Illustrator 19.2.1, SVG Export Plug-In . SVG Version: 6.00 Build 0)  -->
<svg version="1.1"
	 id="svg2" xmlns:cc="http://creativecommons.org/ns#" xmlns:dc="http://purl.org/dc/elements/1.1/" xmlns:rdf="http://www.w3.org/1999/02/22-rdf-syntax-ns#" xmlns:svg="http://www.w3.org/2000/svg"
	 xmlns="http://www.w3.org/2000/svg" xmlns:xlink="http://www.w3.org/1999/xlink" x="0px" y="0px" viewBox="0 0 933.333 666.667"
	 enable-background="new 0 0 933.333 666.667" xml:space="preserve">
<g id="g10" transform="matrix(1.3333333,0,0,-1.3333333,0,666.66667)">
	<path id="path12" fill="#44415A" d="M0,0h699.999v500H0V0z"/>
	<g id="g14" display="none">
		<g display="inline">
			<defs>
				<rect id="SVGID_1_" x="-116.667" y="-83.333" width="933.333" height="666.667"/>
			</defs>
			<clipPath id="SVGID_2_">
				<use xlink:href="#SVGID_1_"  overflow="visible"/>
			</clipPath>
			<g id="g16" clip-path="url(#SVGID_2_)">
				<g id="g22" transform="translate(334.1802,415.9272)">
					<path id="path24" fill="#FFFFFF" d="M0,0c-0.663,0.01-1.326,0.017-1.986,0.021l0.007,1.5C-1.312,1.517-0.646,1.51,0.023,1.5
						L0,0z M-6.952-0.019l-0.031,1.5c0.665,0.014,1.332,0.024,2.002,0.031l0.015-1.5C-5.63,0.005-6.293-0.005-6.952-0.019
						 M4.966-0.139C4.301-0.111,3.64-0.088,2.98-0.068l0.045,1.499C3.69,1.411,4.357,1.388,5.026,1.36L4.966-0.139z M-11.916-0.186
						l-0.07,1.498c0.664,0.032,1.331,0.06,2,0.084l0.054-1.5C-10.597-0.127-11.258-0.155-11.916-0.186 M9.927-0.404
						C9.265-0.36,8.603-0.32,7.943-0.283l0.084,1.498c0.665-0.038,1.331-0.078,1.999-0.122L9.927-0.404z M-16.873-0.483
						l-0.109,1.496c0.662,0.048,1.328,0.094,1.997,0.136l0.094-1.497C-15.555-0.39-16.215-0.435-16.873-0.483 M14.877-0.794
						c-0.66,0.061-1.32,0.117-1.979,0.171l0.122,1.495c0.664-0.054,1.328-0.111,1.994-0.172L14.877-0.794z M-21.82-0.915
						l-0.15,1.493c0.661,0.067,1.325,0.13,1.993,0.19l0.135-1.494C-20.505-0.786-21.164-0.849-21.82-0.915 M19.818-1.31
						c-0.66,0.078-1.318,0.151-1.974,0.222l0.158,1.491c0.662-0.07,1.326-0.145,1.99-0.222L19.818-1.31z M-26.752-1.481
						l-0.193,1.487c0.659,0.085,1.321,0.167,1.987,0.246l0.177-1.489C-25.442-1.316-26.099-1.397-26.752-1.481 M24.743-1.949
						c-0.657,0.094-1.312,0.184-1.968,0.271l0.198,1.487c0.659-0.087,1.32-0.179,1.983-0.273L24.743-1.949z M-31.665-2.19
						l-0.236,1.481c0.655,0.105,1.316,0.206,1.98,0.304l0.219-1.485C-30.361-1.987-31.015-2.087-31.665-2.19 M29.651-2.714
						c-0.654,0.11-1.308,0.217-1.961,0.321l0.235,1.481c0.658-0.104,1.316-0.212,1.976-0.323L29.651-2.714z M-36.555-3.045
						l-0.28,1.474c0.651,0.124,1.308,0.245,1.97,0.363l0.262-1.477C-35.258-2.802-35.909-2.922-36.555-3.045 M34.538-3.604
						c-0.651,0.127-1.302,0.251-1.952,0.372l0.273,1.474c0.655-0.12,1.311-0.245,1.966-0.373L34.538-3.604z M-41.413-4.052
						l-0.328,1.464c0.647,0.145,1.3,0.287,1.958,0.426l0.31-1.467C-40.125-3.767-40.771-3.908-41.413-4.052 M39.399-4.618
						c-0.647,0.144-1.294,0.284-1.941,0.421l0.311,1.468c0.651-0.138,1.303-0.279,1.957-0.425L39.399-4.618z M-46.232-5.221
						l-0.38,1.451c0.641,0.168,1.29,0.332,1.944,0.494l0.358-1.457C-44.957-4.893-45.598-5.055-46.232-5.221 M44.233-5.757
						c-0.643,0.16-1.287,0.317-1.929,0.47l0.347,1.459c0.649-0.154,1.296-0.312,1.946-0.474L44.233-5.757z M-51.005-6.564
						l-0.434,1.436c0.634,0.192,1.276,0.38,1.925,0.566l0.411-1.443C-49.744-6.188-50.378-6.374-51.005-6.564 M49.036-7.023
						c-0.64,0.177-1.278,0.351-1.918,0.521l0.387,1.449c0.643-0.171,1.288-0.346,1.932-0.525L49.036-7.023z M-55.716-8.095
						l-0.494,1.416c0.625,0.218,1.259,0.433,1.901,0.645l0.47-1.425C-54.473-7.668-55.099-7.88-55.716-8.095 M53.803-8.414
						C53.169-8.22,52.534-8.029,51.9-7.842l0.424,1.438c0.64-0.188,1.279-0.38,1.918-0.575L53.803-8.414z M-60.35-9.834
						l-0.562,1.391c0.614,0.248,1.238,0.492,1.872,0.734l0.533-1.403C-59.131-9.349-59.745-9.59-60.35-9.834 M58.53-9.931
						c-0.628,0.211-1.257,0.418-1.886,0.622l0.462,1.427c0.634-0.205,1.269-0.414,1.903-0.627L58.53-9.931z M63.216-11.573
						c-0.622,0.228-1.245,0.452-1.869,0.672l0.5,1.414c0.628-0.222,1.257-0.448,1.884-0.677L63.216-11.573z M-64.884-11.809
						l-0.636,1.358l0.76,0.352c0.353,0.162,0.71,0.323,1.071,0.482l0.605-1.372c-0.354-0.157-0.705-0.314-1.051-0.473
						L-64.884-11.809z M67.856-13.341c-0.617,0.245-1.233,0.486-1.849,0.722l0.537,1.401c0.622-0.239,1.244-0.482,1.865-0.728
						L67.856-13.341z M-69.315-14.018l-0.702,1.326c0.593,0.314,1.188,0.621,1.785,0.922l0.676-1.338
						C-68.145-13.406-68.73-13.708-69.315-14.018 M72.446-15.234c-0.61,0.261-1.22,0.519-1.83,0.773l0.576,1.384
						c0.616-0.256,1.23-0.515,1.844-0.778L72.446-15.234z M-73.635-16.436l-0.762,1.292c0.577,0.341,1.157,0.676,1.738,1.005
						l0.739-1.306C-72.493-15.769-73.065-16.099-73.635-16.436 M76.981-17.253c-0.601,0.278-1.205,0.552-1.807,0.822l0.613,1.369
						c0.609-0.272,1.216-0.549,1.823-0.829L76.981-17.253z M-77.84-19.05l-0.821,1.256c0.562,0.367,1.125,0.728,1.691,1.083
						l0.798-1.27C-76.73-18.332-77.287-18.688-77.84-19.05 M81.459-19.396c-0.594,0.294-1.188,0.585-1.783,0.872l0.65,1.352
						c0.601-0.29,1.201-0.583,1.799-0.88L81.459-19.396z M85.876-21.661c-0.585,0.31-1.172,0.618-1.759,0.921l0.688,1.333
						c0.592-0.306,1.183-0.616,1.774-0.929L85.876-21.661z M-81.927-21.848l-0.874,1.219c0.545,0.39,1.092,0.775,1.642,1.155
						l0.853-1.233C-80.849-21.082-81.389-21.462-81.927-21.848 M90.228-24.05c-0.577,0.327-1.155,0.651-1.733,0.97l0.725,1.313
						c0.584-0.322,1.166-0.648,1.748-0.978L90.228-24.05z M-85.889-24.821l-0.926,1.181c0.528,0.413,1.058,0.822,1.59,1.225
						l0.906-1.196C-84.845-24.009-85.368-24.412-85.889-24.821 M94.511-26.56c-0.569,0.344-1.137,0.684-1.705,1.019l0.761,1.292
						c0.575-0.338,1.147-0.681,1.719-1.026L94.511-26.56z M-89.724-27.958l-0.974,1.14c0.51,0.435,1.022,0.865,1.537,1.29
						l0.955-1.156C-88.714-27.104-89.221-27.529-89.724-27.958 M98.722-29.189c-0.559,0.359-1.118,0.714-1.677,1.066l0.799,1.27
						c0.563-0.354,1.126-0.712,1.688-1.074L98.722-29.189z M-93.426-31.251l-1.019,1.099c0.491,0.456,0.985,0.906,1.483,1.353
						l1.001-1.118C-92.452-30.357-92.94-30.802-93.426-31.251 M102.855-31.935c-0.546,0.374-1.094,0.745-1.644,1.112l0.834,1.247
						c0.554-0.37,1.107-0.744,1.658-1.122L102.855-31.935z M-96.993-34.692l-1.062,1.058c0.472,0.475,0.948,0.945,1.427,1.41
						l1.045-1.075C-96.056-33.759-96.525-34.224-96.993-34.692 M106.91-34.798c-0.536,0.39-1.073,0.776-1.612,1.158l0.869,1.223
						c0.543-0.386,1.086-0.775,1.626-1.168L106.91-34.798z M110.882-37.775c-0.526,0.405-1.052,0.806-1.579,1.204l0.904,1.197
						c0.531-0.4,1.062-0.805,1.591-1.213L110.882-37.775z M-100.418-38.273l-1.105,1.015c0.454,0.493,0.91,0.982,1.37,1.466
						l1.088-1.032C-99.519-37.303-99.971-37.786-100.418-38.273 M114.77-40.861c-0.514,0.42-1.028,0.835-1.544,1.248l0.935,1.172
						c0.522-0.416,1.04-0.835,1.558-1.259L114.77-40.861z M-103.701-41.987l-1.143,0.971c0.434,0.511,0.871,1.017,1.311,1.519
						l1.128-0.989C-102.84-40.982-103.272-41.483-103.701-41.987 M118.569-44.056c-0.502,0.433-1.005,0.864-1.509,1.29l0.968,1.146
						c0.509-0.43,1.016-0.864,1.522-1.301L118.569-44.056z M-106.834-45.827l-1.181,0.926c0.413,0.527,0.829,1.05,1.25,1.569
						l1.165-0.944C-106.015-44.789-106.426-45.306-106.834-45.827 M122.276-47.356c-0.489,0.448-0.979,0.892-1.471,1.333l1,1.117
						c0.496-0.444,0.991-0.892,1.485-1.344L122.276-47.356z M-109.816-49.786l-1.216,0.879c0.393,0.543,0.789,1.081,1.189,1.616
						l1.201-0.898C-109.037-48.717-109.428-49.25-109.816-49.786 M125.893-50.758c-0.478,0.462-0.956,0.919-1.436,1.373l1.031,1.09
						c0.484-0.458,0.966-0.919,1.448-1.385L125.893-50.758z M-112.641-53.859l-1.249,0.831c0.371,0.558,0.746,1.111,1.125,1.662
						l1.235-0.851C-111.904-52.76-112.274-53.308-112.641-53.859 M129.414-54.258c-0.466,0.474-0.932,0.945-1.398,1.412l1.06,1.061
						c0.471-0.47,0.941-0.945,1.408-1.423L129.414-54.258z M132.835-57.852c-0.451,0.487-0.903,0.97-1.358,1.449l1.089,1.031
						c0.457-0.483,0.913-0.97,1.369-1.461L132.835-57.852z M-115.305-58.038l-1.28,0.781c0.349,0.572,0.702,1.14,1.059,1.705
						l1.267-0.802C-114.611-56.912-114.96-57.473-115.305-58.038 M136.161-61.538c-0.437,0.499-0.878,0.994-1.318,1.486l1.117,1.001
						c0.444-0.496,0.887-0.995,1.328-1.497L136.161-61.538z M-117.806-62.326l-1.311,0.731c0.327,0.587,0.659,1.17,0.995,1.751
						l1.298-0.751C-117.155-61.169-117.483-61.746-117.806-62.326 M139.387-65.312c-0.424,0.511-0.85,1.017-1.278,1.52l1.143,0.972
						c0.432-0.507,0.861-1.018,1.289-1.533L139.387-65.312z M-120.143-66.716l-1.337,0.679c0.304,0.599,0.612,1.195,0.924,1.788
						l1.327-0.699C-119.537-65.534-119.842-66.124-120.143-66.716 M142.514-69.169c-0.411,0.521-0.825,1.039-1.239,1.553
						l1.168,0.941c0.418-0.518,0.833-1.039,1.248-1.565L142.514-69.169z M-122.303-71.195l-1.364,0.625
						c0.28,0.611,0.564,1.219,0.854,1.824l1.353-0.646C-121.745-69.99-122.026-70.591-122.303-71.195 M145.54-73.106
						c-0.397,0.531-0.798,1.06-1.198,1.585l1.191,0.91c0.404-0.529,0.807-1.06,1.208-1.596L145.54-73.106z M-124.28-75.75
						l-1.387,0.57c0.254,0.619,0.513,1.236,0.776,1.849l1.379-0.591C-123.772-74.528-124.028-75.138-124.28-75.75 M148.465-77.118
						c-0.385,0.541-0.771,1.079-1.158,1.614l1.214,0.88c0.39-0.539,0.78-1.081,1.166-1.626L148.465-77.118z M-126.07-80.37
						l-1.409,0.514c0.229,0.629,0.463,1.255,0.702,1.879l1.401-0.536C-125.612-79.129-125.843-79.749-126.07-80.37 M151.29-81.204
						c-0.371,0.551-0.743,1.099-1.118,1.642l1.236,0.851c0.377-0.549,0.753-1.1,1.126-1.656L151.29-81.204z M-127.672-85.06
						l-1.429,0.457c0.204,0.638,0.413,1.273,0.625,1.906l1.422-0.479C-127.265-83.802-127.471-84.429-127.672-85.06 M154.013-85.357
						c-0.358,0.559-0.717,1.115-1.077,1.669l1.255,0.819c0.365-0.557,0.726-1.118,1.085-1.682L154.013-85.357z M156.606-89.583
						c-0.335,0.568-0.674,1.135-1.019,1.701l1.281,0.78c0.349-0.571,0.693-1.145,1.031-1.719L156.606-89.583z M-129.083-89.808
						l-1.447,0.398c0.178,0.646,0.361,1.289,0.549,1.93l1.439-0.421C-128.728-88.535-128.908-89.17-129.083-89.808 M159.047-93.898
						c-0.314,0.58-0.633,1.158-0.957,1.736l1.308,0.734c0.329-0.584,0.652-1.17,0.969-1.757L159.047-93.898z M-130.3-94.611
						l-1.461,0.339c0.152,0.652,0.307,1.303,0.469,1.951l1.456-0.363C-129.996-93.324-130.15-93.966-130.3-94.611 M161.333-98.311
						c-0.294,0.593-0.593,1.186-0.896,1.777l1.334,0.684c0.307-0.597,0.608-1.195,0.906-1.794L161.333-98.311z M-131.318-99.459
						l-1.474,0.278c0.124,0.659,0.253,1.315,0.388,1.969l1.469-0.303C-131.068-98.161-131.195-98.809-131.318-99.459
						 M163.455-102.802c-0.27,0.603-0.547,1.205-0.828,1.806l1.357,0.637c0.286-0.609,0.566-1.218,0.84-1.829L163.455-102.802z
						 M-132.136-104.344l-1.484,0.217c0.097,0.663,0.199,1.324,0.307,1.983l1.48-0.242
						C-131.939-103.038-132.04-103.69-132.136-104.344 M165.409-107.369c-0.25,0.614-0.504,1.225-0.762,1.837l1.381,0.584
						c0.262-0.617,0.518-1.236,0.77-1.856L165.409-107.369z M-132.751-109.26l-1.492,0.156c0.069,0.666,0.144,1.331,0.224,1.994
						l1.49-0.181C-132.609-107.946-132.683-108.602-132.751-109.26 M167.192-112.002c-0.225,0.621-0.456,1.242-0.692,1.862
						l1.402,0.533c0.239-0.627,0.473-1.255,0.701-1.883L167.192-112.002z M-133.162-114.196l-1.497,0.094
						c0.042,0.668,0.089,1.336,0.141,2.001l1.496-0.118C-133.074-112.876-133.121-113.535-133.162-114.196 M168.8-116.698
						c-0.202,0.629-0.41,1.258-0.622,1.885l1.42,0.481c0.215-0.635,0.425-1.271,0.63-1.908L168.8-116.698z M-133.368-119.146
						l-1.5,0.033c0.015,0.67,0.035,1.338,0.059,2.005l1.499-0.057C-133.334-117.823-133.354-118.483-133.368-119.146
						 M170.233-121.451c-0.178,0.637-0.363,1.272-0.552,1.907l1.437,0.429c0.192-0.643,0.378-1.286,0.559-1.93L170.233-121.451z
						 M-134.87-124.13c-0.014,0.671-0.022,1.34-0.024,2.007l1.5,0.006c0.002-0.659,0.01-1.32,0.024-1.982L-134.87-124.13z
						 M171.49-126.253c-0.156,0.643-0.317,1.286-0.482,1.927l1.453,0.374c0.167-0.648,0.328-1.297,0.486-1.946L171.49-126.253z
						 M-134.665-129.144c-0.041,0.67-0.076,1.338-0.106,2.005l1.498,0.067c0.03-0.658,0.065-1.318,0.106-1.979L-134.665-129.144z
						 M172.566-131.094c-0.13,0.647-0.267,1.294-0.409,1.941l1.465,0.321c0.144-0.654,0.282-1.309,0.415-1.965L172.566-131.094z
						 M-134.255-134.144c-0.069,0.667-0.132,1.333-0.188,1.998l1.494,0.128c0.056-0.656,0.118-1.315,0.186-1.974L-134.255-134.144z
						 M173.468-135.975c-0.109,0.653-0.221,1.305-0.339,1.957l1.476,0.267c0.119-0.659,0.233-1.318,0.343-1.977L173.468-135.975z
						 M-133.644-139.124c-0.095,0.665-0.185,1.328-0.269,1.99l1.489,0.188c0.083-0.653,0.171-1.308,0.265-1.965L-133.644-139.124z
						 M174.192-140.882c-0.084,0.655-0.173,1.311-0.267,1.966l1.484,0.214c0.096-0.663,0.186-1.325,0.272-1.988L174.192-140.882z
						 M-132.833-144.075c-0.121,0.659-0.237,1.318-0.348,1.975l1.48,0.249c0.109-0.65,0.223-1.301,0.344-1.953L-132.833-144.075z
						 M174.743-145.812c-0.061,0.658-0.128,1.316-0.199,1.974l1.492,0.161c0.071-0.665,0.138-1.33,0.201-1.995L174.743-145.812z
						 M-131.828-148.991c-0.147,0.655-0.289,1.309-0.424,1.962l1.468,0.305c0.134-0.645,0.274-1.291,0.42-1.938L-131.828-148.991z
						 M175.117-150.759c-0.038,0.66-0.081,1.321-0.129,1.981l1.496,0.108c0.048-0.667,0.091-1.334,0.131-2.001L175.117-150.759z
						 M-130.632-153.863c-0.173,0.649-0.34,1.297-0.501,1.944l1.456,0.362c0.159-0.639,0.324-1.279,0.494-1.92L-130.632-153.863z
						 M175.322-155.714c-0.015,0.66-0.036,1.321-0.06,1.982l1.498,0.058c0.026-0.669,0.047-1.337,0.062-2.005L175.322-155.714z
						 M-129.231-158.692c-0.209,0.641-0.407,1.284-0.595,1.929l1.441,0.418c0.182-0.629,0.376-1.257,0.58-1.882L-129.231-158.692z
						 M176.856-160.69l-1.5,0.015c0.005,0.487,0.007,0.974,0.007,1.461l-0.001,0.522l1.5,0.008l0.001-0.53
						C176.863-159.706,176.861-160.198,176.856-160.69 M-127.485-163.42c-0.257,0.623-0.505,1.248-0.742,1.875l1.402,0.531
						c0.233-0.612,0.474-1.224,0.726-1.833L-127.485-163.42z M176.722-165.699l-1.498,0.066c0.029,0.66,0.052,1.321,0.072,1.982
						l1.5-0.044C176.776-164.364,176.751-165.031,176.722-165.699 M-125.397-168.002c-0.301,0.603-0.592,1.208-0.874,1.815
						l1.36,0.632c0.277-0.595,0.562-1.187,0.856-1.778L-125.397-168.002z M-190.895-168.225c-0.035,0.667-0.064,1.335-0.088,2.004
						l1.499,0.053c0.024-0.661,0.052-1.32,0.088-1.978L-190.895-168.225z M176.426-170.696l-1.496,0.113
						c0.049,0.659,0.095,1.319,0.137,1.979l1.496-0.095C176.521-169.365,176.476-170.03,176.426-170.696 M-123.005-172.43
						c-0.339,0.581-0.669,1.165-0.992,1.752l1.315,0.722c0.316-0.575,0.64-1.148,0.973-1.719L-123.005-172.43z M-190.512-173.222
						c-0.066,0.666-0.127,1.333-0.18,2l1.495,0.12c0.052-0.657,0.112-1.315,0.177-1.97L-190.512-173.222z M175.966-175.682
						l-1.492,0.161c0.071,0.658,0.138,1.316,0.202,1.974l1.492-0.143C176.104-174.354,176.037-175.018,175.966-175.682
						 M-120.345-176.698c-0.373,0.56-0.738,1.123-1.095,1.688l1.269,0.801c0.35-0.556,0.709-1.108,1.075-1.659L-120.345-176.698z
						 M-189.9-178.202c-0.097,0.662-0.187,1.325-0.272,1.989l1.488,0.191c0.083-0.656,0.173-1.31,0.268-1.962L-189.9-178.202z
						 M175.347-180.649l-1.485,0.209c0.092,0.655,0.18,1.31,0.263,1.965l1.488-0.19C175.528-179.327,175.44-179.988,175.347-180.649
						 M-117.447-180.804c-0.402,0.538-0.797,1.079-1.186,1.622l1.22,0.873c0.383-0.535,0.772-1.067,1.168-1.597L-117.447-180.804z
						 M-189.063-183.147c-0.126,0.656-0.247,1.314-0.362,1.973l1.478,0.258c0.114-0.651,0.232-1.3,0.357-1.948L-189.063-183.147z
						 M-114.338-184.75c-0.428,0.518-0.85,1.037-1.266,1.56l1.172,0.934c0.411-0.515,0.827-1.027,1.249-1.536L-114.338-184.75z
						 M174.575-185.593l-1.478,0.254c0.112,0.652,0.219,1.304,0.324,1.957l1.48-0.237
						C174.797-184.277,174.687-184.936,174.575-185.593 M-188.004-188.05c-0.156,0.651-0.306,1.302-0.45,1.956l1.465,0.323
						c0.142-0.645,0.29-1.288,0.444-1.929L-188.004-188.05z M-111.042-188.538c-0.453,0.496-0.899,0.995-1.34,1.496l1.126,0.991
						c0.435-0.494,0.876-0.987,1.322-1.476L-111.042-188.538z M173.652-190.51l-1.47,0.298c0.131,0.648,0.259,1.296,0.384,1.946
						l1.473-0.282C173.914-189.203,173.784-189.857,173.652-190.51 M-107.58-192.171c-0.473,0.475-0.941,0.953-1.404,1.435
						l1.081,1.039c0.457-0.475,0.919-0.947,1.386-1.416L-107.58-192.171z M-186.731-192.893c-0.184,0.641-0.362,1.283-0.534,1.927
						l1.45,0.387c0.169-0.635,0.345-1.269,0.526-1.902L-186.731-192.893z M172.58-195.397l-1.461,0.341
						c0.152,0.644,0.299,1.289,0.443,1.935l1.464-0.326C172.881-194.099,172.731-194.749,172.58-195.397 M-103.968-195.654
						c-0.492,0.456-0.979,0.914-1.462,1.376l1.037,1.084c0.477-0.456,0.958-0.91,1.444-1.359L-103.968-195.654z M-185.252-197.675
						c-0.211,0.634-0.416,1.269-0.617,1.906l1.431,0.45c0.198-0.629,0.401-1.256,0.609-1.882L-185.252-197.675z M-100.222-198.989
						c-0.508,0.436-1.013,0.875-1.513,1.316l0.992,1.125c0.494-0.436,0.994-0.87,1.497-1.301L-100.222-198.989z M171.364-200.253
						l-1.449,0.387c0.171,0.639,0.337,1.279,0.5,1.919l1.453-0.368C171.705-198.962,171.537-199.608,171.364-200.253
						 M-96.352-202.179c-0.524,0.417-1.045,0.836-1.562,1.259l0.95,1.161c0.511-0.418,1.026-0.833,1.545-1.245L-96.352-202.179z
						 M-183.57-202.399c-0.238,0.626-0.47,1.253-0.697,1.882l1.411,0.509c0.224-0.62,0.454-1.24,0.689-1.858L-183.57-202.399z
						 M170.008-205.068l-1.438,0.427c0.189,0.635,0.373,1.269,0.554,1.905l1.443-0.41
						C170.385-203.788,170.198-204.428,170.008-205.068 M-92.373-205.227c-0.538,0.398-1.073,0.799-1.605,1.203l0.908,1.194
						c0.526-0.4,1.055-0.796,1.588-1.19L-92.373-205.227z M-181.692-207.057c-0.263,0.617-0.521,1.235-0.774,1.855l1.388,0.567
						c0.251-0.612,0.506-1.223,0.766-1.833L-181.692-207.057z M-88.276-208.145c-0.553,0.38-1.103,0.763-1.65,1.15l0.866,1.225
						c0.541-0.383,1.086-0.763,1.634-1.139L-88.276-208.145z M168.514-209.844l-1.426,0.468c0.206,0.628,0.41,1.258,0.609,1.889
						l1.43-0.452C168.926-208.575,168.722-209.209,168.514-209.844 M-84.089-210.92c-0.564,0.36-1.126,0.725-1.685,1.093
						l0.824,1.253c0.554-0.364,1.11-0.725,1.669-1.083L-84.089-210.92z M-179.626-211.643c-0.288,0.607-0.571,1.216-0.849,1.827
						l1.366,0.621c0.274-0.604,0.553-1.205,0.838-1.805L-179.626-211.643z M-79.82-213.554c-0.574,0.342-1.147,0.688-1.717,1.037
						l0.783,1.279c0.566-0.346,1.132-0.688,1.702-1.027L-79.82-213.554z M166.884-214.576l-1.41,0.509
						c0.224,0.622,0.444,1.246,0.661,1.871l1.418-0.492C167.334-213.319,167.11-213.948,166.884-214.576 M-75.473-216.044
						c-0.584,0.322-1.166,0.649-1.747,0.979l0.741,1.304c0.576-0.327,1.153-0.651,1.732-0.971L-75.473-216.044z M-177.393-216.13
						c-0.31,0.593-0.614,1.189-0.914,1.785l1.341,0.673c0.296-0.59,0.597-1.178,0.903-1.765L-177.393-216.13z M-71.054-218.394
						c-0.593,0.303-1.185,0.611-1.776,0.923l0.701,1.326c0.584-0.308,1.17-0.613,1.757-0.913L-71.054-218.394z M165.123-219.262
						l-1.396,0.549c0.242,0.615,0.48,1.233,0.714,1.851l1.403-0.531C165.607-218.018,165.367-218.641,165.123-219.262
						 M-174.996-220.531c-0.33,0.582-0.656,1.165-0.977,1.75l1.314,0.723c0.319-0.579,0.641-1.156,0.968-1.732L-174.996-220.531z
						 M-66.57-220.598c-0.601,0.284-1.202,0.572-1.802,0.864l0.659,1.348c0.592-0.29,1.187-0.575,1.783-0.856L-66.57-220.598z
						 M-62.003-222.664c-0.613,0.266-1.224,0.535-1.835,0.809l0.613,1.369c0.605-0.272,1.211-0.538,1.817-0.801L-62.003-222.664z
						 M163.234-223.896l-1.38,0.584c0.257,0.609,0.512,1.221,0.764,1.833l1.387-0.57
						C163.751-222.666,163.494-223.282,163.234-223.896 M-57.371-224.578c-0.621,0.244-1.241,0.494-1.861,0.748l0.569,1.388
						c0.614-0.252,1.228-0.499,1.842-0.741L-57.371-224.578z M-172.443-224.842c-0.35,0.569-0.697,1.141-1.039,1.714l1.288,0.769
						c0.338-0.568,0.681-1.133,1.028-1.696L-172.443-224.842z M-52.676-226.336c-0.629,0.223-1.257,0.451-1.886,0.683l0.521,1.407
						c0.622-0.23,1.244-0.456,1.866-0.676L-52.676-226.336z M-47.923-227.93c-0.636,0.201-1.272,0.407-1.909,0.618l0.472,1.423
						c0.63-0.209,1.259-0.412,1.888-0.61L-47.923-227.93z M161.219-228.482l-1.365,0.623c0.275,0.603,0.546,1.207,0.815,1.813
						l1.371-0.609C161.77-227.265,161.496-227.874,161.219-228.482 M-169.742-229.062c-0.37,0.557-0.736,1.116-1.098,1.677
						l1.261,0.812c0.358-0.555,0.72-1.108,1.086-1.659L-169.742-229.062z M-43.111-229.348c-0.643,0.177-1.287,0.358-1.931,0.546
						l0.418,1.44c0.638-0.185,1.274-0.365,1.909-0.539L-43.111-229.348z M-38.248-230.578c-0.649,0.15-1.299,0.306-1.951,0.468
						l0.361,1.456c0.645-0.16,1.288-0.314,1.929-0.463L-38.248-230.578z M-33.334-231.605c-0.655,0.122-1.312,0.25-1.972,0.385
						l0.302,1.47c0.65-0.133,1.298-0.26,1.944-0.38L-33.334-231.605z M-28.375-232.408c-0.661,0.091-1.323,0.188-1.989,0.293
						l0.233,1.482c0.656-0.103,1.309-0.2,1.96-0.288L-28.375-232.408z M-23.38-232.962c-0.664,0.056-1.331,0.119-2.002,0.191
						l0.157,1.491c0.66-0.07,1.317-0.132,1.97-0.187L-23.38-232.962z M-10.302-232.993l-0.133,1.494
						c0.66,0.059,1.313,0.128,1.959,0.207l0.182-1.489C-8.956-232.862-9.625-232.932-10.302-232.993 M159.079-233.01l-1.348,0.658
						c0.291,0.596,0.58,1.193,0.865,1.791l1.353-0.645C159.662-231.809,159.372-232.41,159.079-233.01 M-166.904-233.19
						c-0.388,0.545-0.772,1.091-1.152,1.64l1.233,0.854c0.377-0.543,0.757-1.085,1.14-1.624L-166.904-233.19z M-18.357-233.236
						c-0.666,0.016-1.337,0.041-2.011,0.074l0.073,1.498c0.662-0.032,1.32-0.057,1.974-0.072L-18.357-233.236z M-15.336-233.25
						l-0.021,1.5c0.662,0.009,1.319,0.028,1.971,0.057l0.066-1.499C-13.987-233.221-14.659-233.241-15.336-233.25 M-163.937-237.225
						c-0.405,0.533-0.806,1.067-1.203,1.603l1.206,0.893c0.393-0.531,0.79-1.061,1.191-1.587L-163.937-237.225z M156.818-237.482
						l-1.329,0.695c0.308,0.588,0.612,1.177,0.911,1.767l1.338-0.68C157.435-236.296,157.129-236.89,156.818-237.482
						 M-160.847-241.166c-0.42,0.52-0.837,1.042-1.25,1.565l1.178,0.93c0.409-0.519,0.822-1.036,1.238-1.551L-160.847-241.166z
						 M154.439-241.893l-1.31,0.73c0.323,0.58,0.642,1.161,0.958,1.743l1.318-0.716
						C155.087-240.723,154.765-241.309,154.439-241.893 M-157.642-245.013c-0.435,0.508-0.866,1.017-1.295,1.528l1.149,0.964
						c0.425-0.507,0.853-1.012,1.285-1.515L-157.642-245.013z M151.943-246.24l-1.291,0.764c0.338,0.571,0.672,1.143,1.004,1.718
						l1.299-0.75C152.621-245.087,152.283-245.664,151.943-246.24 M-154.331-248.767c-0.449,0.496-0.894,0.993-1.336,1.491
						l1.122,0.995c0.438-0.494,0.88-0.987,1.326-1.478L-154.331-248.767z M149.332-250.521l-1.271,0.796
						c0.352,0.563,0.703,1.127,1.049,1.693l1.28-0.785C150.039-249.387,149.687-249.954,149.332-250.521 M-150.917-252.428
						c-0.463,0.483-0.922,0.967-1.378,1.454l1.095,1.025c0.452-0.483,0.907-0.963,1.366-1.442L-150.917-252.428z M146.607-254.735
						l-1.248,0.831c0.368,0.552,0.733,1.107,1.094,1.664l1.258-0.818C147.346-253.619,146.979-254.178,146.607-254.735
						 M-147.41-255.998c-0.474,0.471-0.945,0.943-1.414,1.417l1.067,1.055c0.465-0.471,0.933-0.94,1.404-1.407L-147.41-255.998z
						 M143.772-258.876l-1.226,0.864c0.384,0.544,0.763,1.088,1.139,1.635l1.236-0.851
						C144.541-257.779,144.158-258.328,143.772-258.876 M-143.811-259.478c-0.486,0.459-0.97,0.919-1.45,1.382l1.041,1.08
						c0.476-0.459,0.956-0.915,1.438-1.37L-143.811-259.478z M-140.129-262.866c-0.497,0.447-0.991,0.895-1.482,1.345l1.012,1.106
						c0.489-0.447,0.979-0.892,1.473-1.335L-140.129-262.866z M140.829-262.941l-1.203,0.895c0.395,0.532,0.79,1.067,1.181,1.605
						l1.213-0.883C141.625-261.865,141.229-262.404,140.829-262.941 M-136.368-266.166c-0.507,0.435-1.011,0.872-1.514,1.309
						l0.986,1.131c0.499-0.436,1-0.869,1.504-1.301L-136.368-266.166z M137.776-266.929l-1.179,0.927
						c0.411,0.522,0.819,1.046,1.225,1.573l1.188-0.915C138.602-265.875,138.189-266.403,137.776-266.929 M-132.532-269.378
						c-0.516,0.423-1.031,0.848-1.543,1.274l0.96,1.153c0.509-0.424,1.02-0.846,1.533-1.266L-132.532-269.378z M134.616-270.837
						l-1.152,0.959c0.425,0.511,0.847,1.024,1.265,1.541l1.165-0.947C135.471-269.804,135.045-270.322,134.616-270.837
						 M-128.625-272.502c-0.526,0.411-1.05,0.824-1.571,1.239l0.935,1.173c0.518-0.412,1.038-0.823,1.56-1.231L-128.625-272.502z
						 M131.353-274.659l-1.127,0.991c0.438,0.499,0.874,1.001,1.308,1.506l1.137-0.978
						C132.234-273.648,131.795-274.155,131.353-274.659 M-124.652-275.542c-0.535,0.4-1.067,0.802-1.597,1.206l0.909,1.193
						c0.527-0.401,1.056-0.8,1.587-1.197L-124.652-275.542z M128.001-278.376l-1.102,1.02c0.451,0.485,0.898,0.973,1.343,1.464
						l1.112-1.008C128.904-277.395,128.453-277.887,128.001-278.376 M-120.615-278.495c-0.542,0.388-1.083,0.779-1.622,1.171
						l0.883,1.213c0.536-0.39,1.073-0.778,1.612-1.164L-120.615-278.495z M-116.518-281.365c-0.551,0.377-1.099,0.757-1.646,1.138
						l0.858,1.23c0.543-0.379,1.089-0.755,1.636-1.13L-116.518-281.365z M124.546-282l-1.07,1.049
						c0.462,0.472,0.922,0.948,1.38,1.426l1.084-1.037C125.479-281.045,125.014-281.524,124.546-282 M-112.365-284.15
						c-0.557,0.366-1.114,0.734-1.667,1.104l0.833,1.248c0.551-0.368,1.103-0.734,1.657-1.098L-112.365-284.15z M120.994-285.528
						l-1.043,1.078c0.476,0.46,0.949,0.923,1.422,1.388l1.053-1.067C121.951-284.598,121.474-285.064,120.994-285.528
						 M-108.158-286.854c-0.564,0.355-1.128,0.712-1.689,1.072l0.809,1.262c0.558-0.356,1.118-0.711,1.679-1.064L-108.158-286.854z
						 M117.342-288.956l-1.01,1.109c0.488,0.446,0.975,0.894,1.459,1.347l1.023-1.097
						C118.326-288.053,117.836-288.506,117.342-288.956 M-103.881-289.486c-0.574,0.345-1.146,0.693-1.717,1.043l0.785,1.279
						c0.566-0.348,1.136-0.693,1.707-1.037L-103.881-289.486z M-99.557-292.034c-0.58,0.334-1.158,0.671-1.735,1.009l0.759,1.294
						c0.574-0.336,1.149-0.671,1.725-1.003L-99.557-292.034z M113.596-292.277l-0.979,1.137c0.502,0.432,1,0.866,1.497,1.304
						l0.992-1.125C114.605-291.403,114.102-291.841,113.596-292.277 M-95.191-294.499c-0.585,0.324-1.169,0.649-1.752,0.977
						l0.735,1.307c0.58-0.326,1.161-0.649,1.743-0.97L-95.191-294.499z M109.753-295.488l-0.945,1.165
						c0.513,0.416,1.025,0.836,1.534,1.26l0.959-1.154C110.786-294.644,110.271-295.068,109.753-295.488 M-90.782-296.88
						c-0.591,0.312-1.18,0.626-1.768,0.943l0.71,1.321c0.585-0.315,1.172-0.627,1.758-0.938L-90.782-296.88z M105.814-298.583
						l-0.908,1.193c0.526,0.401,1.05,0.805,1.572,1.213l0.923-1.182C106.874-297.771,106.346-298.179,105.814-298.583
						 M-86.333-299.178c-0.596,0.301-1.19,0.604-1.784,0.909l0.686,1.334c0.59-0.303,1.181-0.605,1.774-0.904L-86.333-299.178z
						 M-81.849-301.394c-0.6,0.29-1.199,0.582-1.797,0.876l0.661,1.347c0.595-0.293,1.192-0.583,1.789-0.872L-81.849-301.394z
						 M101.786-301.558l-0.871,1.221c0.538,0.384,1.073,0.772,1.607,1.164l0.887-1.209
						C102.871-300.778,102.33-301.169,101.786-301.558 M-77.328-303.527c-0.606,0.279-1.21,0.56-1.813,0.844l0.638,1.357
						c0.6-0.281,1.201-0.561,1.803-0.839L-77.328-303.527z M97.665-304.406l-0.834,1.247c0.55,0.367,1.098,0.739,1.645,1.114
						l0.847-1.238C98.772-303.661,98.219-304.036,97.665-304.406 M-72.773-305.577c-0.61,0.268-1.218,0.538-1.826,0.81l0.614,1.37
						c0.604-0.271,1.21-0.54,1.815-0.807L-72.773-305.577z M93.456-307.122l-0.793,1.274c0.56,0.348,1.12,0.702,1.678,1.059
						l0.808-1.263C94.587-306.413,94.021-306.769,93.456-307.122 M-68.187-307.544c-0.613,0.256-1.226,0.515-1.838,0.777l0.59,1.379
						c0.608-0.26,1.217-0.517,1.828-0.773L-68.187-307.544z M-63.57-309.428c-0.618,0.245-1.234,0.493-1.85,0.743l0.564,1.39
						c0.612-0.248,1.226-0.495,1.84-0.739L-63.57-309.428z M89.157-309.698l-0.75,1.299c0.572,0.331,1.143,0.665,1.712,1.003
						l0.768-1.289C90.312-309.027,89.735-309.364,89.157-309.698 M-58.925-311.228c-0.621,0.234-1.241,0.471-1.862,0.71l0.54,1.399
						c0.617-0.238,1.234-0.473,1.851-0.706L-58.925-311.228z M84.775-312.129l-0.705,1.324c0.583,0.31,1.165,0.625,1.745,0.945
						l0.723-1.315C85.952-311.497,85.364-311.815,84.775-312.129 M-54.23-312.951c-0.628,0.224-1.255,0.451-1.882,0.68l0.515,1.409
						c0.623-0.228,1.247-0.453,1.871-0.676L-54.23-312.951z M80.313-314.407l-0.659,1.349c0.594,0.289,1.187,0.583,1.777,0.882
						l0.677-1.339C81.511-313.816,80.912-314.114,80.313-314.407 M-49.505-314.588c-0.631,0.212-1.263,0.427-1.893,0.645
						l0.488,1.418c0.628-0.217,1.256-0.43,1.883-0.642L-49.505-314.588z M-44.751-316.14c-0.636,0.201-1.271,0.404-1.906,0.611
						l0.465,1.426c0.63-0.205,1.261-0.407,1.893-0.606L-44.751-316.14z M75.77-316.524l-0.61,1.371
						c0.604,0.268,1.206,0.541,1.807,0.818l0.629-1.362C76.987-315.978,76.379-316.253,75.77-316.524 M-39.97-317.604
						c-0.639,0.189-1.277,0.381-1.916,0.576l0.436,1.435c0.636-0.194,1.271-0.384,1.906-0.572L-39.97-317.604z M71.15-318.473
						l-0.556,1.393c0.612,0.245,1.224,0.495,1.835,0.75l0.578-1.384C72.389-317.972,71.771-318.225,71.15-318.473 M-35.162-318.978
						c-0.642,0.177-1.283,0.356-1.926,0.539l0.409,1.443c0.639-0.181,1.277-0.36,1.916-0.536L-35.162-318.978z M66.461-320.246
						l-0.502,1.413c0.622,0.221,1.242,0.448,1.861,0.68l0.526-1.406C67.719-319.793,67.091-320.022,66.461-320.246 M-30.328-320.26
						c-0.645,0.165-1.291,0.332-1.937,0.502l0.382,1.45c0.642-0.169,1.284-0.335,1.925-0.499L-30.328-320.26z M-25.47-321.449
						c-0.648,0.152-1.297,0.306-1.946,0.464l0.354,1.458c0.645-0.157,1.29-0.31,1.934-0.461L-25.47-321.449z M61.699-321.837
						l-0.449,1.432c0.633,0.198,1.265,0.4,1.896,0.608l0.469-1.425C62.978-321.432,62.338-321.637,61.699-321.837 M-20.588-322.541
						c-0.651,0.139-1.304,0.281-1.955,0.426l0.325,1.464c0.648-0.144,1.295-0.285,1.943-0.423L-20.588-322.541z M56.865-323.237
						l-0.388,1.449c0.639,0.171,1.278,0.348,1.916,0.53l0.412-1.443C58.159-322.885,57.513-323.064,56.865-323.237 M-15.685-323.533
						c-0.654,0.125-1.308,0.254-1.963,0.385l0.294,1.47c0.651-0.13,1.301-0.257,1.951-0.382L-15.685-323.533z M-10.762-324.422
						c-0.657,0.111-1.314,0.225-1.972,0.343l0.265,1.477c0.653-0.117,1.306-0.231,1.957-0.341L-10.762-324.422z M51.981-324.434
						l-0.326,1.464c0.647,0.144,1.291,0.294,1.936,0.449l0.349-1.459C53.288-324.137,52.636-324.288,51.981-324.434 M-5.821-325.205
						c-0.658,0.097-1.318,0.197-1.979,0.3l0.231,1.482c0.657-0.102,1.312-0.202,1.966-0.298L-5.821-325.205z M47.057-325.42
						l-0.264,1.476c0.65,0.116,1.301,0.237,1.949,0.364l0.289-1.471C48.373-325.18,47.715-325.303,47.057-325.42 M-0.861-325.876
						c-0.661,0.082-1.323,0.167-1.986,0.254l0.198,1.488c0.659-0.088,1.316-0.172,1.971-0.254L-0.861-325.876z M42.097-326.19
						l-0.198,1.487c0.656,0.086,1.309,0.179,1.961,0.278l0.225-1.484C43.423-326.008,42.76-326.103,42.097-326.19 M4.112-326.432
						c-0.663,0.066-1.326,0.136-1.991,0.208l0.162,1.492c0.661-0.073,1.321-0.142,1.978-0.207L4.112-326.432z M37.111-326.745
						l-0.136,1.495c0.661,0.06,1.318,0.125,1.972,0.195l0.16-1.491C38.445-326.617,37.78-326.683,37.111-326.745 M9.099-326.867
						c-0.664,0.05-1.329,0.103-1.996,0.159l0.126,1.495c0.662-0.056,1.323-0.109,1.981-0.158L9.099-326.867z M32.114-327.119
						l-0.086,1.497c0.662,0.039,1.323,0.081,1.98,0.128l0.107-1.496C33.45-327.038,32.784-327.081,32.114-327.119 M14.095-327.174
						c-0.665,0.032-1.331,0.068-2,0.107l0.088,1.497c0.663-0.038,1.325-0.074,1.984-0.106L14.095-327.174z M27.11-327.33
						l-0.039,1.499c0.664,0.018,1.325,0.039,1.984,0.065l0.058-1.499C28.448-327.291,27.781-327.312,27.11-327.33 M19.099-327.348
						c-0.666,0.014-1.334,0.032-2.003,0.053l0.049,1.499c0.663-0.021,1.325-0.038,1.985-0.052L19.099-327.348z M22.745-327.387
						l-0.641,0.001l0.004,1.5l0.637-0.001c0.451,0,0.901,0.002,1.351,0.006l0.011-1.5C23.654-327.385,23.2-327.387,22.745-327.387"
						/>
				</g>
			</g>
		</g>
	</g>
	<g id="g26">
		<g>
			<defs>
				<rect id="SVGID_3_" x="-116.667" y="-83.333" width="933.333" height="666.667"/>
			</defs>
			<clipPath id="SVGID_4_">
				<use xlink:href="#SVGID_3_"  overflow="visible"/>
			</clipPath>
			<g id="g28" clip-path="url(#SVGID_4_)">
				<g id="g34" transform="translate(109.6528,317.8018)">
					<path id="path36" fill="#D3DACE" d="M305.25-207.75c0-5.422-1.96-10.385-5.212-14.22c-0.218-0.257,0.448-0.268-0.228-1.332
						c-0.646-1.014-1.244-0.222-1.53-0.499c-0.276-0.267-0.741,0.725-2.577-0.966c-0.756-0.695,0.381-0.882-0.483-1.444
						c-3.445-2.237-7.553-3.537-11.967-3.537c-7.203,0-13.598,3.463-17.609,8.813c-0.17,0.226-0.506-0.758-1.58,0.413
						c-0.615,0.672-0.357,1.171-0.781,1.984c-0.373,0.717-1.203,1.561-2.027,2.244c-1.028,0.851,1.137,1.528,0.99,1.999
						c-0.643,2.067-0.99,4.266-0.99,6.545c0,2.979,0.592,5.82,1.665,8.412c0.303,0.73-0.589,1.208-0.349,1.769
						c1.635,3.813,2.913,1.054,3.438,2.172c0.223,0.475,0.236,1.57,0.559,1.983c2.805,3.589,6.037,5.481,10.523,6.787
						c1.155,0.336,0.204,1.298,1.432,1.411c2.877,0.264,4.025,0.387,4.729-0.132c0.717-0.528,0.755-0.414,1.128-0.433
						c1.324-0.067,2.618-0.25,3.869-0.541c5.921-1.376,10.925-5.142,13.938-10.226c0.304-0.512,1.819,0.025,2.081-0.513
						c0.212-0.435,0.423-2.898,0.608-3.35c0.256-0.631,1.368-0.461,1.026-1.069c-0.651-1.158-1.275-1.022-1.151-1.591
						c0.061-0.287,0.118-0.575,0.169-0.866C305.137-205.175,305.25-206.449,305.25-207.75"/>
				</g>
				<g id="g38" transform="translate(83.8325,333.439)">
					<path id="path40" fill="#A5B19B" d="M305.25-207.75c0.494-1.193,0.449-2.788-1.444-2.788s-4.915-0.271-4.45,1.872
						c0.131,0.6,1.714-0.587,3.607-0.587C304.857-209.253,304.778-206.61,305.25-207.75"/>
				</g>
				<g id="g42" transform="translate(84.3071,333.0967)">
					<path id="path44" fill="#FFFFFF" d="M305.25-207.75c0-1.029-1.362,1.289-3.256,1.289c-1.893,0-3.255-1.997-3.255-0.967
						c0,0.413,0.191,0.79,0.543,1.093c0.278,0.24,0.742,0.303,1.205,0.433c0.41,0.114,0.974,0.367,1.507,0.367
						c0.668,0,1.118-0.198,1.645-0.425C304.606-206.376,305.25-207.083,305.25-207.75"/>
				</g>
				<g id="g46" transform="translate(84.5991,333.0806)">
					<path id="path48" fill="#C4CCBF" d="M305.25-207.75c0-0.306-0.292-0.247-0.363-0.482c-0.162-0.536-0.413-1.037-1.112-1.288
						c-0.528-0.19-1.651-0.414-2.855-0.082c-1.061,0.293-1.247,0.162-1.785,0.603c-0.244,0.2-0.427,0.434-0.545,0.691
						c-0.07,0.153-0.059,0.305-0.059,0.47c0,0.147-0.321,0.326-0.265,0.463c0.143,0.352,0.46,0.667,0.897,0.915
						c0.132,0.075,0.49,0.141,0.913,0.252c0.334,0.089,0.417,0.063,0.808,0.126c0.3,0.048,0.396,0.298,0.725,0.298
						c0.307,0.001,0.605-0.125,0.889-0.167c1.156-0.174,2.072-0.676,2.404-1.317C304.99-207.438,305.25-207.565,305.25-207.75"/>
				</g>
				<g id="g50" transform="translate(81.106,333.8477)">
					<path id="path52" fill="#A5B19B" d="M305.25-207.75c-1.614,0.251-3.483-0.924-2.995-0.23c0.529,0.75,2.636,1.175,3.04,0.987
						c0.404-0.188,1.998-0.278,2.366-0.532c0.368-0.255,0.654-0.892,0.511-1.239C308.026-209.112,307.299-208.068,305.25-207.75"/>
				</g>
				<g id="g54" transform="translate(102.0581,309.4775)">
					<path id="path56" fill="#A5B19B" d="M305.25-207.75c0.403-0.974,0.367-2.274-1.179-2.274c-1.544,0-4.009-0.222-3.63,1.526
						c0.107,0.49,1.399-0.479,2.944-0.479C304.93-208.977,304.865-206.82,305.25-207.75"/>
				</g>
				<g id="g58" transform="translate(102.4458,309.1987)">
					<path id="path60" fill="#FFFFFF" d="M305.25-207.75c0-0.84-1.112,1.051-2.657,1.051c-1.545,0-2.656-1.629-2.656-0.789
						c0,0.337,0.156,0.645,0.443,0.892c0.226,0.196,0.606,0.247,0.983,0.353c0.335,0.094,0.795,0.3,1.23,0.3
						c0.545,0,0.912-0.162,1.343-0.347C304.725-206.629,305.25-207.207,305.25-207.75"/>
				</g>
				<g id="g62" transform="translate(102.6831,309.1851)">
					<path id="path64" fill="#C4CCBF" d="M305.25-207.75c0-0.25-0.237-0.202-0.296-0.394c-0.132-0.436-0.337-0.845-0.906-1.05
						c-0.431-0.155-1.349-0.338-2.331-0.067c-0.865,0.239-1.017,0.132-1.456,0.492c-0.198,0.163-0.348,0.354-0.445,0.564
						c-0.057,0.125-0.047,0.248-0.047,0.383c0,0.12-0.262,0.266-0.217,0.378c0.117,0.287,0.376,0.544,0.732,0.747
						c0.108,0.061,0.4,0.114,0.745,0.206c0.273,0.072,0.34,0.051,0.658,0.102c0.246,0.039,0.325,0.243,0.592,0.243
						c0.251,0.001,0.494-0.102,0.726-0.136c0.944-0.141,1.691-0.552,1.962-1.075C305.039-207.495,305.25-207.599,305.25-207.75"/>
				</g>
				<g id="g66" transform="translate(99.8335,309.811)">
					<path id="path68" fill="#A5B19B" d="M305.25-207.75c-1.317,0.205-2.842-0.754-2.443-0.187c0.431,0.611,2.15,0.958,2.48,0.805
						c0.329-0.154,1.63-0.227,1.93-0.434c0.301-0.208,0.534-0.727,0.417-1.012C307.516-208.862,306.922-208.01,305.25-207.75"/>
				</g>
				<g id="g70" transform="translate(88.9302,318.4482)">
					<path id="path72" fill="#A5B19B" d="M305.25-207.75c0.784-1.894,0.713-4.423-2.293-4.423c-3.004,0-7.8-0.431-7.061,2.969
						c0.208,0.953,2.72-0.932,5.724-0.932C304.626-210.136,304.501-205.941,305.25-207.75"/>
				</g>
				<g id="g74" transform="translate(89.6821,317.9058)">
					<path id="path76" fill="#FFFFFF" d="M305.25-207.75c0-1.634-2.161,2.044-5.166,2.044c-3.005,0-5.167-3.168-5.167-1.534
						c0,0.656,0.305,1.254,0.862,1.735c0.441,0.381,1.179,0.481,1.912,0.687c0.653,0.181,1.546,0.583,2.393,0.583
						c1.059,0,1.773-0.316,2.61-0.675C304.229-205.57,305.25-206.692,305.25-207.75"/>
				</g>
				<g id="g78" transform="translate(90.146,317.8799)">
					<path id="path80" fill="#C4CCBF" d="M305.25-207.75c0-0.486-0.464-0.393-0.577-0.766c-0.257-0.849-0.654-1.645-1.763-2.043
						c-0.838-0.302-2.621-0.657-4.532-0.129c-1.683,0.463-1.979,0.255-2.833,0.956c-0.387,0.317-0.676,0.688-0.864,1.096
						c-0.112,0.243-0.094,0.484-0.094,0.746c0,0.233-0.51,0.517-0.421,0.735c0.228,0.558,0.73,1.058,1.424,1.452
						c0.21,0.12,0.778,0.224,1.449,0.401c0.53,0.14,0.662,0.1,1.281,0.199c0.477,0.076,0.631,0.473,1.152,0.473
						c0.487,0.001,0.96-0.199,1.411-0.266c1.836-0.274,3.289-1.072,3.815-2.089C304.838-207.254,305.25-207.456,305.25-207.75"/>
				</g>
				<g id="g82" transform="translate(84.6021,319.0972)">
					<path id="path84" fill="#A5B19B" d="M305.25-207.75c-2.562,0.398-5.527-1.466-4.752-0.365c0.839,1.19,4.183,1.865,4.823,1.567
						c0.642-0.299,3.171-0.441,3.755-0.845c0.585-0.405,1.039-1.415,0.811-1.967C309.657-209.912,308.501-208.256,305.25-207.75"/>
				</g>
				<g id="g86" transform="translate(99.0308,327.9609)">
					<path id="path88" fill="#A5B19B" d="M305.25-207.75c0.517-1.248,0.47-2.914-1.509-2.914s-5.137-0.283-4.651,1.956
						c0.137,0.628,1.791-0.613,3.77-0.613C304.84-209.321,304.757-206.559,305.25-207.75"/>
				</g>
				<g id="g90" transform="translate(99.5269,327.6035)">
					<path id="path92" fill="#FFFFFF" d="M305.25-207.75c0-1.076-1.424,1.346-3.403,1.346c-1.979,0-3.403-2.086-3.403-1.01
						c0,0.432,0.202,0.826,0.568,1.143c0.29,0.25,0.776,0.317,1.259,0.452c0.429,0.119,1.018,0.384,1.576,0.384
						c0.698,0,1.168-0.208,1.719-0.444C304.577-206.314,305.25-207.053,305.25-207.75"/>
				</g>
				<g id="g94" transform="translate(99.8315,327.5864)">
					<path id="path96" fill="#C4CCBF" d="M305.25-207.75c0-0.32-0.305-0.258-0.38-0.504c-0.17-0.559-0.431-1.083-1.161-1.346
						c-0.552-0.198-1.726-0.433-2.984-0.086c-1.109,0.307-1.303,0.169-1.867,0.631c-0.254,0.209-0.445,0.453-0.569,0.722
						c-0.073,0.16-0.06,0.319-0.06,0.491c0,0.154-0.336,0.341-0.278,0.484c0.15,0.368,0.481,0.697,0.938,0.956
						c0.137,0.079,0.512,0.148,0.954,0.265c0.349,0.092,0.435,0.065,0.844,0.131c0.313,0.049,0.415,0.311,0.758,0.311
						c0.322,0,0.633-0.131,0.929-0.175c1.209-0.181,2.166-0.706,2.513-1.377C304.979-207.423,305.25-207.556,305.25-207.75"/>
				</g>
				<g id="g98" transform="translate(96.1802,328.3877)">
					<path id="path100" fill="#A5B19B" d="M305.25-207.75c-1.687,0.263-3.64-0.965-3.129-0.24c0.552,0.784,2.754,1.228,3.177,1.032
						c0.422-0.197,2.088-0.291,2.473-0.557c0.384-0.266,0.683-0.931,0.533-1.295C308.153-209.173,307.392-208.083,305.25-207.75"/>
				</g>
				<g id="g102" transform="translate(78.9106,305.7144)">
					<path id="path104" fill="#A5B19B" d="M305.25-207.75c0.356-0.862,0.324-2.013-1.043-2.013c-1.368,0-3.55-0.196-3.214,1.351
						c0.095,0.434,1.237-0.423,2.605-0.423C304.966-208.835,304.909-206.927,305.25-207.75"/>
				</g>
				<g id="g106" transform="translate(79.2534,305.4678)">
					<path id="path108" fill="#FFFFFF" d="M305.25-207.75c0-0.744-0.984,0.93-2.352,0.93c-1.368,0-2.35-1.442-2.35-0.698
						c0,0.298,0.138,0.57,0.391,0.789c0.201,0.174,0.537,0.22,0.871,0.313c0.295,0.083,0.703,0.265,1.088,0.265
						c0.483,0,0.807-0.143,1.188-0.307C304.785-206.758,305.25-207.269,305.25-207.75"/>
				</g>
				<g id="g110" transform="translate(79.4634,305.4561)">
					<path id="path112" fill="#C4CCBF" d="M305.25-207.75c0-0.221-0.21-0.179-0.262-0.349c-0.118-0.386-0.299-0.748-0.802-0.93
						c-0.381-0.137-1.193-0.299-2.063-0.059c-0.766,0.212-0.9,0.117-1.289,0.436c-0.176,0.144-0.308,0.313-0.394,0.499
						c-0.05,0.11-0.042,0.22-0.042,0.34c0,0.105-0.232,0.235-0.192,0.334c0.104,0.253,0.332,0.481,0.648,0.66
						c0.095,0.055,0.354,0.102,0.66,0.183c0.242,0.063,0.301,0.045,0.583,0.091c0.216,0.034,0.287,0.215,0.524,0.215
						c0.222,0,0.437-0.091,0.642-0.121c0.836-0.125,1.497-0.488,1.736-0.951C305.063-207.524,305.25-207.617,305.25-207.75"/>
				</g>
				<g id="g114" transform="translate(76.9409,306.0098)">
					<path id="path116" fill="#A5B19B" d="M305.25-207.75c-1.166,0.181-2.516-0.667-2.163-0.166
						c0.383,0.541,1.903,0.849,2.195,0.713c0.292-0.136,1.444-0.201,1.709-0.385c0.267-0.183,0.473-0.643,0.369-0.894
						C307.256-208.734,306.729-207.98,305.25-207.75"/>
				</g>
			</g>
		</g>
	</g>
	<g id="g118">
		<g>
			<defs>
				<rect id="SVGID_5_" x="-116.667" y="-83.333" width="933.333" height="666.667"/>
			</defs>
			<clipPath id="SVGID_6_">
				<use xlink:href="#SVGID_5_"  overflow="visible"/>
			</clipPath>
			<g id="g120" clip-path="url(#SVGID_6_)">
				<g id="g126" transform="translate(466.4097,303.3374)">
					<path id="path128" fill="#FFFFFF" d="M0,0c0-0.681-0.552-1.232-1.232-1.232c-0.681,0-1.233,0.551-1.233,1.232
						s0.552,1.233,1.233,1.233C-0.552,1.233,0,0.681,0,0"/>
				</g>
				<g id="g130" transform="translate(462.7124,295.2217)">
					<path id="path132" fill="#FFFFFF" d="M0,0c0-0.681-0.552-1.232-1.232-1.232c-0.681,0-1.233,0.551-1.233,1.232
						s0.552,1.232,1.233,1.232C-0.552,1.232,0,0.681,0,0"/>
				</g>
				<g id="g134" transform="translate(473.5229,290.9868)">
					<path id="path136" fill="#FFFFFF" d="M0,0c0-0.681-0.552-1.232-1.232-1.232c-0.681,0-1.233,0.551-1.233,1.232
						s0.552,1.233,1.233,1.233C-0.552,1.233,0,0.681,0,0"/>
				</g>
				<g id="g138" transform="translate(474.7554,305.8027)">
					<path id="path140" fill="#FFFFFF" d="M0,0c0-0.681-0.552-1.232-1.232-1.232c-0.681,0-1.233,0.551-1.233,1.232
						s0.552,1.232,1.233,1.232C-0.552,1.232,0,0.681,0,0"/>
				</g>
				<g id="g142" transform="translate(457.812,309.9951)">
					<path id="path144" fill="#FFFFFF" d="M0,0c0-0.681-0.552-1.232-1.232-1.232c-0.681,0-1.233,0.551-1.233,1.232
						c0,0.68,0.552,1.232,1.233,1.232C-0.552,1.232,0,0.68,0,0"/>
				</g>
				<g id="g146" transform="translate(416.2974,152.1763)">
					<path id="path148" fill="#FFFFFF" d="M0,0c0-0.681-0.552-1.232-1.232-1.232c-0.681,0-1.233,0.551-1.233,1.232
						s0.552,1.233,1.233,1.233C-0.552,1.233,0,0.681,0,0"/>
				</g>
				<g id="g150" transform="translate(411.3677,154.6416)">
					<path id="path152" fill="#FFFFFF" d="M0,0c0-0.681-0.552-1.232-1.232-1.232c-0.681,0-1.233,0.551-1.233,1.232
						s0.552,1.232,1.233,1.232C-0.552,1.232,0,0.681,0,0"/>
				</g>
				<g id="g154" transform="translate(424.6431,160.1104)">
					<path id="path156" fill="#FFFFFF" d="M0,0c0-0.681-0.552-1.232-1.232-1.232c-0.681,0-1.233,0.551-1.233,1.232
						s0.552,1.233,1.233,1.233C-0.552,1.233,0,0.681,0,0"/>
				</g>
				<g id="g158" transform="translate(425.2407,150.9438)">
					<path id="path160" fill="#FFFFFF" d="M0,0c0-0.681-0.552-1.232-1.232-1.232c-0.681,0-1.233,0.551-1.233,1.232
						s0.552,1.232,1.233,1.232C-0.552,1.232,0,0.681,0,0"/>
				</g>
				<g id="g162" transform="translate(405.2349,149.7114)">
					<path id="path164" fill="#FFFFFF" d="M0,0c0-0.681-0.552-1.232-1.232-1.232c-0.681,0-1.233,0.551-1.233,1.232
						c0,0.68,0.552,1.232,1.233,1.232C-0.552,1.232,0,0.68,0,0"/>
				</g>
				<g id="g166" transform="translate(253.1704,157.376)">
					<path id="path168" fill="#FFFFFF" d="M0,0c0-0.681-0.552-1.232-1.232-1.232c-0.681,0-1.233,0.551-1.233,1.232
						s0.552,1.233,1.233,1.233C-0.552,1.233,0,0.681,0,0"/>
				</g>
				<g id="g170" transform="translate(248.1772,165.3101)">
					<path id="path172" fill="#FFFFFF" d="M0,0c0-0.681-0.552-1.232-1.232-1.232c-0.681,0-1.233,0.551-1.233,1.232
						s0.552,1.232,1.233,1.232C-0.552,1.232,0,0.681,0,0"/>
				</g>
				<g id="g174" transform="translate(238.3472,166.5425)">
					<path id="path176" fill="#FFFFFF" d="M0,0c0-0.681-0.552-1.232-1.232-1.232c-0.681,0-1.233,0.551-1.233,1.232
						s0.552,1.233,1.233,1.233C-0.552,1.233,0,0.681,0,0"/>
				</g>
				<g id="g178" transform="translate(268.6206,343.6055)">
					<path id="path180" fill="#A5B19B" d="M0,0c-1.797-0.994-3.802-1.253-5.669-0.878c-0.125,0.025-0.007-0.198-0.483-0.168
						c-0.455,0.028-0.302,0.371-0.446,0.415c-0.14,0.043,0.104,0.379-0.793,0.677C-7.76,0.169-7.613-0.242-7.958-0.058
						c-1.373,0.732-2.557,1.856-3.365,3.319c-1.321,2.388-1.344,5.142-0.306,7.452c0.044,0.098-0.344,0.03-0.152,0.6
						c0.11,0.327,0.323,0.333,0.514,0.622c0.169,0.255,0.297,0.685,0.372,1.084c0.094,0.496,0.716-0.097,0.845,0.038
						c0.567,0.592,1.232,1.11,1.988,1.527c0.987,0.546,2.038,0.871,3.094,0.99c0.297,0.033,0.292,0.416,0.522,0.44
						c1.564,0.156,0.883-0.773,1.35-0.742c0.199,0.013,0.564,0.209,0.76,0.178c1.704-0.272,2.923-0.997,4.178-2.244
						c0.324-0.322,0.468,0.169,0.73-0.217c0.615-0.906,0.866-1.263,0.823-1.592c-0.043-0.334,0.001-0.326,0.063-0.453
						c0.221-0.451,0.397-0.914,0.53-1.382c0.629-2.214,0.298-4.563-0.836-6.494C3.038,2.874,3.494,2.469,3.364,2.284
						C3.258,2.134,2.48,1.612,2.365,1.469C2.202,1.268,2.462,0.931,2.198,0.933C1.695,0.937,1.625,1.168,1.459,1.022
						C1.376,0.95,1.291,0.878,1.204,0.808C0.833,0.509,0.431,0.239,0,0"/>
				</g>
				<g id="g182" transform="translate(258.3374,355.749)">
					<path id="path184" fill="#C4CCBF" d="M0,0c0,0,2.992,4.841,10.1,2.024c1.849-0.732,2.366-1.798,2.864-3.339
						c0.499-1.541,1.271-3.739,0.361-6.224c-0.978-2.667-1.665-3.054-3.832-4.289c-4.23-2.411-9.073,2.629-9.48,6.234
						C-0.404-1.897,6.537-8.42,8.514,0.17C9.252,3.376,0,0,0,0"/>
				</g>
				<g id="g186" transform="translate(325.3003,451.1919)">
					<path id="path188" fill="#FFFFFF" d="M0,0c0-0.681-0.552-1.232-1.232-1.232c-0.681,0-1.233,0.551-1.233,1.232
						s0.552,1.233,1.233,1.233C-0.552,1.233,0,0.681,0,0"/>
				</g>
				<g id="g190" transform="translate(315.7222,457.2207)">
					<path id="path192" fill="#FFFFFF" d="M0,0c0-0.681-0.552-1.232-1.232-1.232c-0.681,0-1.233,0.551-1.233,1.232
						s0.552,1.232,1.233,1.232C-0.552,1.232,0,0.681,0,0"/>
				</g>
				<g id="g194" transform="translate(324.0679,463.0488)">
					<path id="path196" fill="#FFFFFF" d="M0,0c0-0.681-0.552-1.232-1.232-1.232c-0.681,0-1.233,0.551-1.233,1.232
						s0.552,1.233,1.233,1.233C-0.552,1.233,0,0.681,0,0"/>
				</g>
				<g id="g198" transform="translate(339.7466,448.1577)">
					<path id="path200" fill="#FFFFFF" d="M0,0c0-0.681-0.552-1.232-1.232-1.232c-0.681,0-1.233,0.551-1.233,1.232
						s0.552,1.232,1.233,1.232C-0.552,1.232,0,0.681,0,0"/>
				</g>
				<g id="g202" transform="translate(307.1245,445.6929)">
					<path id="path204" fill="#FFFFFF" d="M0,0c0-0.681-0.552-1.232-1.232-1.232c-0.681,0-1.233,0.551-1.233,1.232
						c0,0.68,0.552,1.232,1.233,1.232C-0.552,1.232,0,0.68,0,0"/>
				</g>
				<g id="g206" transform="translate(524.2886,142.7349)">
					<path id="path208" fill="#FFFFFF" d="M0,0c0-0.681-0.552-1.232-1.232-1.232c-0.681,0-1.233,0.551-1.233,1.232
						s0.552,1.233,1.233,1.233C-0.552,1.233,0,0.681,0,0"/>
				</g>
				<g id="g210" transform="translate(513.5083,130.3784)">
					<path id="path212" fill="#FFFFFF" d="M0,0c0-0.681-0.552-1.232-1.232-1.232c-0.681,0-1.233,0.551-1.233,1.232
						s0.552,1.232,1.233,1.232C-0.552,1.232,0,0.681,0,0"/>
				</g>
				<g id="g214" transform="translate(504.0601,139.3516)">
					<path id="path216" fill="#FFFFFF" d="M0,0c0-0.681-0.552-1.232-1.232-1.232c-0.681,0-1.233,0.551-1.233,1.232
						s0.552,1.232,1.233,1.232C-0.552,1.232,0,0.681,0,0"/>
				</g>
				<g id="g218" transform="translate(499.2192,131.6108)">
					<path id="path220" fill="#FFFFFF" d="M0,0c0-0.681-0.552-1.232-1.232-1.232c-0.681,0-1.233,0.551-1.233,1.232
						s0.552,1.232,1.233,1.232C-0.552,1.232,0,0.681,0,0"/>
				</g>
				<g id="g222" transform="translate(504.0601,124.2158)">
					<path id="path224" fill="#FFFFFF" d="M0,0c0-0.681-0.552-1.232-1.232-1.232c-0.681,0-1.233,0.551-1.233,1.232
						s0.552,1.232,1.233,1.232C-0.552,1.232,0,0.681,0,0"/>
				</g>
			</g>
		</g>
	</g>
	<g id="g226">
		<g>
			<defs>
				<rect id="SVGID_7_" x="-116.667" y="-83.333" width="933.333" height="666.667"/>
			</defs>
			<clipPath id="SVGID_8_">
				<use xlink:href="#SVGID_7_"  overflow="visible"/>
			</clipPath>
			<g id="g228" clip-path="url(#SVGID_8_)">
				<g id="g234" transform="translate(513.98,399.3657)">
					<path id="path236" fill="#D3DACE" d="M6.34-24.568c-1.947-1.948-4.434-3.026-6.979-3.236c-0.17-0.014,0.065-0.257-0.561-0.396
						c-0.596-0.132-0.526,0.367-0.729,0.37c-0.195,0.003-0.005,0.527-1.272,0.578c-0.522,0.022-0.18-0.453-0.692-0.344
						c-2.04,0.434-3.984,1.443-5.569,3.028c-2.587,2.586-3.639,6.127-3.159,9.489c0.021,0.142-0.453-0.091-0.418,0.716
						c0.02,0.462,0.291,0.548,0.432,0.993c0.122,0.392,0.128,0.993,0.077,1.534c-0.064,0.675,0.957,0.141,1.073,0.362
						c0.512,0.974,1.178,1.888,1.996,2.707c1.07,1.07,2.302,1.878,3.618,2.423c0.371,0.154,0.223,0.645,0.512,0.76
						c1.955,0.783,1.424-0.667,2.014-0.454c0.252,0.091,0.649,0.479,0.913,0.511c2.297,0.282,4.137-0.199,6.217-1.341
						c0.536-0.295,0.54,0.393,1.021-0.008c1.128-0.939,1.584-1.306,1.652-1.746c0.067-0.447,0.122-0.42,0.249-0.56
						c0.452-0.5,0.85-1.03,1.194-1.584c1.634-2.621,2.078-5.771,1.335-8.679c-0.075-0.293,0.661-0.644,0.563-0.932
						c-0.08-0.233-0.889-1.193-0.985-1.422c-0.136-0.318,0.325-0.656-0.016-0.752c-0.649-0.182-0.825,0.091-0.985-0.158
						c-0.08-0.125-0.164-0.249-0.25-0.371C7.224-23.603,6.807-24.101,6.34-24.568"/>
				</g>
				<g id="g238" transform="translate(499.0298,413.8862)">
					<path id="path240" fill="#A5B19B" d="M6.34-24.568c-0.204-0.606-0.187-1.416,0.596-1.416c0.781,0,2.025-0.138,1.835,0.951
						c-0.056,0.304-0.708-0.298-1.488-0.298C6.501-25.331,6.534-23.989,6.34-24.568"/>
				</g>
				<g id="g242" transform="translate(498.8325,413.7124)">
					<path id="path244" fill="#FFFFFF" d="M6.34-24.568c0-0.523,0.564,0.654,1.343,0.654c0.782,0,1.343-1.013,1.343-0.491
						c0,0.211-0.079,0.402-0.224,0.556c-0.113,0.121-0.307,0.154-0.497,0.219c-0.168,0.059-0.402,0.187-0.622,0.187
						c-0.275,0-0.46-0.101-0.677-0.216C6.607-23.87,6.34-24.229,6.34-24.568"/>
				</g>
				<g id="g246" transform="translate(498.7134,413.7046)">
					<path id="path248" fill="#C4CCBF" d="M6.34-24.568c0-0.156,0.119-0.125,0.15-0.246c0.067-0.271,0.17-0.526,0.458-0.653
						c0.218-0.097,0.68-0.21,1.177-0.042c0.438,0.149,0.515,0.083,0.736,0.306c0.101,0.102,0.176,0.22,0.226,0.351
						c0.029,0.078,0.024,0.155,0.024,0.239c0,0.075,0.131,0.165,0.109,0.235c-0.059,0.179-0.189,0.339-0.37,0.465
						c-0.054,0.038-0.202,0.072-0.377,0.128c-0.138,0.045-0.172,0.032-0.332,0.064c-0.125,0.025-0.165,0.151-0.3,0.151
						c-0.127,0.001-0.249-0.063-0.366-0.085c-0.478-0.088-0.856-0.343-0.991-0.668C6.447-24.41,6.34-24.474,6.34-24.568"/>
				</g>
				<g id="g250" transform="translate(500.1548,414.0937)">
					<path id="path252" fill="#A5B19B" d="M6.34-24.568c0.664,0.127,1.435-0.469,1.234-0.117c-0.218,0.381-1.088,0.597-1.254,0.502
						c-0.167-0.096-0.824-0.141-0.975-0.271c-0.151-0.129-0.271-0.452-0.211-0.629S5.494-24.73,6.34-24.568"/>
				</g>
				<g id="g254" transform="translate(510.27,401.5986)">
					<path id="path256" fill="#A5B19B" d="M6.34-24.568c-0.198-0.423-0.181-0.987,0.576-0.987c0.755,0,1.96-0.096,1.775,0.662
						c-0.053,0.213-0.685-0.208-1.44-0.208C6.495-25.101,6.527-24.165,6.34-24.568"/>
				</g>
				<g id="g258" transform="translate(510.0806,401.4771)">
					<path id="path260" fill="#FFFFFF" d="M6.34-24.568c0-0.365,0.543,0.456,1.299,0.456s1.298-0.706,1.298-0.342
						c0,0.146-0.076,0.28-0.217,0.387c-0.11,0.085-0.296,0.107-0.481,0.153c-0.163,0.041-0.388,0.13-0.6,0.13
						c-0.267,0-0.446-0.07-0.657-0.15C6.597-24.082,6.34-24.332,6.34-24.568"/>
				</g>
				<g id="g262" transform="translate(509.9634,401.4712)">
					<path id="path264" fill="#C4CCBF" d="M6.34-24.568c0-0.108,0.117-0.087,0.145-0.171c0.065-0.189,0.166-0.366,0.443-0.455
						c0.211-0.068,0.66-0.147,1.14-0.029c0.423,0.103,0.497,0.056,0.712,0.213c0.097,0.07,0.169,0.153,0.217,0.245
						c0.029,0.054,0.023,0.108,0.023,0.166c0,0.052,0.129,0.115,0.107,0.164c-0.058,0.124-0.185,0.236-0.358,0.324
						c-0.053,0.026-0.196,0.05-0.365,0.089c-0.133,0.032-0.167,0.023-0.322,0.045c-0.12,0.017-0.158,0.105-0.289,0.105
						c-0.123,0.001-0.242-0.044-0.354-0.059c-0.462-0.061-0.828-0.239-0.96-0.467C6.444-24.457,6.34-24.502,6.34-24.568"/>
				</g>
				<g id="g266" transform="translate(511.3569,401.7427)">
					<path id="path268" fill="#A5B19B" d="M6.34-24.568c0.645,0.089,1.389-0.327,1.194-0.081c-0.211,0.265-1.05,0.416-1.212,0.35
						c-0.161-0.067-0.796-0.099-0.943-0.189c-0.147-0.09-0.262-0.315-0.204-0.439C5.233-25.05,5.523-24.681,6.34-24.568"/>
				</g>
				<g id="g270" transform="translate(502.4155,408.7861)">
					<path id="path272" fill="#A5B19B" d="M6.34-24.568c-0.378-1.063-0.346-2.482,1.113-2.482c1.457,0,3.783-0.242,3.426,1.666
						c-0.103,0.534-1.319-0.524-2.777-0.524C6.645-25.908,6.704-23.554,6.34-24.568"/>
				</g>
				<g id="g274" transform="translate(502.0513,408.4814)">
					<path id="path276" fill="#FFFFFF" d="M6.34-24.568c0-0.917,1.048,1.147,2.506,1.147c1.457,0,2.507-1.777,2.507-0.861
						c0,0.368-0.148,0.704-0.419,0.974c-0.212,0.213-0.571,0.269-0.927,0.385c-0.315,0.102-0.75,0.327-1.161,0.327
						c-0.513,0-0.86-0.177-1.266-0.378C6.836-23.345,6.34-23.974,6.34-24.568"/>
				</g>
				<g id="g278" transform="translate(501.8267,408.4668)">
					<path id="path280" fill="#C4CCBF" d="M6.34-24.568c0-0.273,0.225-0.22,0.279-0.43c0.126-0.476,0.318-0.922,0.856-1.146
						c0.407-0.169,1.271-0.369,2.198-0.073c0.816,0.261,0.96,0.144,1.375,0.537c0.188,0.177,0.327,0.386,0.42,0.615
						c0.052,0.137,0.044,0.272,0.044,0.419c0,0.131,0.247,0.289,0.204,0.412c-0.11,0.313-0.355,0.593-0.69,0.814
						c-0.102,0.068-0.377,0.126-0.704,0.226C10.066-23.116,10-23.138,9.7-23.083c-0.23,0.043-0.304,0.266-0.557,0.266
						c-0.238,0-0.466-0.112-0.686-0.149c-0.889-0.154-1.594-0.602-1.849-1.173C6.54-24.29,6.34-24.403,6.34-24.568"/>
				</g>
				<g id="g282" transform="translate(504.5151,409.1494)">
					<path id="path284" fill="#A5B19B" d="M6.34-24.568c1.243,0.224,2.682-0.822,2.306-0.205c-0.408,0.669-2.03,1.047-2.339,0.879
						c-0.312-0.167-1.539-0.247-1.821-0.473c-0.285-0.227-0.505-0.794-0.394-1.104C4.203-25.781,4.765-24.851,6.34-24.568"/>
				</g>
				<g id="g286" transform="translate(514.4976,410.0156)">
					<path id="path288" fill="#A5B19B" d="M6.34-24.568c0.101-0.732-0.156-1.608-1.204-1.333c-1.048,0.275-2.761,0.563-2.192,1.683
						c0.16,0.313,0.863-0.575,1.913-0.85C5.904-25.343,6.244-23.868,6.34-24.568"/>
				</g>
				<g id="g290" transform="translate(514.7104,409.7573)">
					<path id="path292" fill="#FFFFFF" d="M6.34-24.568c-0.149-0.569-0.566,0.912-1.615,1.187s-2.093-0.633-1.944-0.062
						c0.061,0.229,0.223,0.409,0.46,0.526c0.188,0.092,0.455,0.06,0.73,0.064c0.245,0.004,0.593,0.062,0.889-0.015
						c0.37-0.097,0.589-0.273,0.848-0.474C6.183-23.714,6.437-24.199,6.34-24.568"/>
				</g>
				<g id="g294" transform="translate(514.8706,409.7065)">
					<path id="path296" fill="#C4CCBF" d="M6.34-24.568c-0.045-0.17-0.198-0.095-0.271-0.214c-0.168-0.273-0.379-0.514-0.803-0.552
						c-0.321-0.028-0.975,0.011-1.593,0.37c-0.544,0.316-0.666,0.271-0.9,0.593C2.666-24.225,2.6-24.069,2.57-23.909
						c-0.015,0.094,0.014,0.177,0.037,0.268c0.022,0.082-0.13,0.227-0.08,0.295c0.13,0.174,0.352,0.302,0.629,0.376
						c0.084,0.023,0.293,0.007,0.544,0.008c0.198-0.001,0.239-0.026,0.465-0.048c0.173-0.017,0.263,0.108,0.445,0.059
						c0.17-0.044,0.317-0.157,0.467-0.222c0.616-0.263,1.049-0.674,1.14-1.078C6.241-24.358,6.366-24.465,6.34-24.568"/>
				</g>
				<g id="g298" transform="translate(513.0474,410.6382)">
					<path id="path300" fill="#A5B19B" d="M6.34-24.568c-0.856,0.374-2.063-0.005-1.691,0.308c0.401,0.339,1.629,0.268,1.826,0.105
						c0.196-0.163,1.066-0.444,1.233-0.638c0.166-0.195,0.233-0.589,0.103-0.761C7.68-25.725,7.428-25.042,6.34-24.568"/>
				</g>
				<g id="g302" transform="translate(500.7007,403.0557)">
					<path id="path304" fill="#A5B19B" d="M6.34-24.568c0.129-0.582,0.117-1.357-0.381-1.357c-0.5,0-1.295-0.133-1.174,0.911
						C4.82-24.722,5.237-25.3,5.736-25.3C6.236-25.3,6.215-24.013,6.34-24.568"/>
				</g>
				<g id="g306" transform="translate(500.8257,402.8892)">
					<path id="path308" fill="#FFFFFF" d="M6.34-24.568c0-0.501-0.359,0.627-0.858,0.627c-0.5,0-0.858-0.972-0.858-0.471
						c0,0.201,0.05,0.385,0.143,0.532c0.072,0.117,0.195,0.148,0.317,0.211c0.108,0.057,0.257,0.179,0.398,0.179
						c0.176,0,0.294-0.097,0.433-0.207C6.17-23.9,6.34-24.244,6.34-24.568"/>
				</g>
				<g id="g310" transform="translate(500.9019,402.8813)">
					<path id="path312" fill="#C4CCBF" d="M6.34-24.568c0-0.15-0.076-0.121-0.096-0.235c-0.043-0.261-0.108-0.505-0.293-0.627
						c-0.138-0.093-0.434-0.201-0.752-0.04c-0.279,0.143-0.329,0.078-0.47,0.294c-0.065,0.096-0.113,0.211-0.145,0.336
						c-0.016,0.074-0.015,0.148-0.015,0.23c0,0.07-0.084,0.157-0.07,0.224c0.038,0.172,0.121,0.324,0.237,0.445
						c0.035,0.037,0.128,0.069,0.241,0.123c0.088,0.043,0.109,0.031,0.212,0.062c0.08,0.023,0.105,0.145,0.192,0.145
						c0.081,0,0.159-0.061,0.234-0.082c0.304-0.084,0.546-0.329,0.634-0.641C6.273-24.416,6.34-24.479,6.34-24.568"/>
				</g>
				<g id="g314" transform="translate(499.9819,403.2549)">
					<path id="path316" fill="#A5B19B" d="M6.34-24.568c-0.426,0.121-0.919-0.45-0.79-0.113c0.14,0.365,0.695,0.572,0.801,0.481
						c0.106-0.091,0.527-0.136,0.624-0.259c0.097-0.124,0.172-0.434,0.135-0.604C7.071-25.232,6.879-24.724,6.34-24.568"/>
				</g>
			</g>
		</g>
	</g>
	<g id="rocket">
		<g>
			<defs>
				<rect id="SVGID_9_" x="-116.667" y="-83.333" width="933.333" height="666.667"/>
			</defs>
			<clipPath id="SVGID_10_">
				<use xlink:href="#SVGID_9_"  overflow="visible"/>
			</clipPath>
			<g id="g320" clip-path="url(#SVGID_10_)">
				<g id='thruster'>
					<g id="g326" transform="translate(143.8799,268.3564)">
						<path id="path328" fill="#EDB54B" d="M220.162-6.286h-8.403c0,0,0.081-8.152,1.232-14.311
							c1.586-8.483,5.288-15.145,7.171-16.614c1.883,1.469,5.585,8.131,7.171,16.614c1.151,6.159,1.233,14.311,1.233,14.311H220.162z
							"/>
					</g>
					<g id="g330" transform="translate(143.6924,268.3569)">
						<path id="path332" fill="#FECC61" d="M220.162-6.286h-5.804c0,0,0.113-9.235,0.926-14.124
							c1.12-6.734,3.735-12.022,5.066-13.188c1.332,1.166,3.947,6.454,5.067,13.188c0.813,4.889,0.926,14.124,0.926,14.124H220.162z"
							/>
					</g>
				</g>
				<g id="g334" transform="translate(157.9229,267.9727)">
					<path id="path336" fill="#FFFFFF" d="M220.162-6.286l-5.638,3.604v-3.22h-16.809v3.22l-5.638-3.604l4.314-12.409l-0.233,10.226
						l0.465,0.162l-0.008-0.019h19.008l-0.008,0.019l0.466-0.162l-0.233-10.226L220.162-6.286z"/>
				</g>
				<g id="g338" transform="translate(152.2842,268.3564)">
					<path id="path340" fill="#67B0DF" d="M220.162-6.286h-16.808v21.694c0,0-0.31,7.571,8.405,7.571s8.403-7.571,8.403-7.571
						V-6.286z"/>
				</g>
				<g id="g342" transform="translate(143.7451,296.7656)">
					<path id="path344" fill="#80CBF1" d="M220.162-6.286c-0.216,0.013-0.419,0.036-0.65,0.036c-6.954,0-6.706-6.83-6.706-6.83
						v-21.615h1.299v21.615C214.105-13.08,213.894-6.661,220.162-6.286"/>
				</g>
				<g id="g346" transform="translate(147.4375,288.5933)">
					<path id="path348" fill="#292929" d="M220.162-6.286c0-1.965-1.592-3.557-3.557-3.557c-1.964,0-3.556,1.592-3.556,3.557
						c0,1.964,1.592,3.557,3.556,3.557C218.57-2.729,220.162-4.322,220.162-6.286"/>
				</g>
			</g>
		</g>
	</g>
	<g id="g350">
		<g>
			<defs>
				<rect id="SVGID_11_" x="-116.667" y="-83.333" width="933.333" height="666.667"/>
			</defs>
			<clipPath id="SVGID_12_">
				<use xlink:href="#SVGID_11_"  overflow="visible"/>
			</clipPath>
			<g id="g352" clip-path="url(#SVGID_12_)">
				<g id="g358" transform="translate(441.687,267.2432)">
					<path id="path360" fill="#FECC61" d="M178.985-3.094c0.131-7.357,4.598-16.027,5.124-22.202
						c0.301-3.534-3.073-1.532-3.241-3.199c-3.731-36.713-28.265-67.273-61.628-79.707c-1.485-0.554,2.623-3.072,0.617-5.846
						c-1.326-1.834-15.537-1.701-25.58-1.799c-12.438-0.123-19.802-3.98-21.412-3.505c-4.887,1.437-2.18,6.371-3.403,6.584
						c-16.07,2.791-30.761,9.602-42.999,19.359c-3.074,2.45-9.25,6.252-8.782,10.477c0.442,3.974-8.559-0.373-10.984,2.816
						c-2.059,2.709,1.878,5.539-3.567,8.262c-1.378,0.689-0.414,4.843-1.662,5.755c-2.196,1.602-0.311,3.426-0.644,4.078
						C-5.797-49.028-9.532-34.319-9.532-18.736c0,21.186,6.904,40.761,18.583,56.597c0.742,1.003-5.337,4.437-2.823,6.753
						c5.338,4.919,10.981,7.992,15.492,11.096c3.407,2.342,3.414,6.846,7.223,7.432c2.723,0.418,5.205-3.119,6.7-3.036
						c1.884,0.105,1.844,2.152,2.617,2.617c0.983,0.591,0.507,1.556,1.513,2.113C53.449,72.402,69.177,76.71,85.914,76.71
						c5.209,0,7.16,0.037,12.141-0.765c1.915-0.309-0.242,1.946,1.74,2.715c1.07,0.415,3.08-1.528,4.8-2.122
						c2.13-0.736,7.931-2.499,9.482-2.973c1.356-0.415,3.159-1.154,5.392-1.451c2.721-0.364,3.671,0.376,5.177-0.66
						c2.724-1.872-0.872-2.519,1.162-3.456c22.81-10.509,40.766-29.751,49.584-53.44c0.403-1.083,4.303,5.803,4.38-0.443
						C179.834,9.118,178.798,7.339,178.985-3.094"/>
				</g>
				<g id="g362" transform="translate(335.5669,150.9849)">
					<path id="path364" fill="#EDB54B" d="M178.985-3.094c1.61-0.475,8.974,3.382,21.412,3.505c10.043,0.099,24.254-0.034,25.58,1.8
						c2.006,2.773-2.102,5.292-0.617,5.845c33.363,12.434,57.897,42.995,61.628,79.707c0.168,1.667,3.542-0.335,3.241,3.2
						c-0.526,6.174-4.993,14.844-5.124,22.201c-0.187,10.433,0.849,12.212,0.787,17.21c-0.077,6.245-3.977-0.64-4.38,0.442
						c-8.818,23.689-26.774,42.931-49.584,53.44c-2.034,0.937,1.562,1.585-1.162,3.457c-1.506,1.035-2.456,0.296-5.177,0.659
						c-2.233,0.297-4.036,1.036-5.392,1.451c-1.551,0.474-7.352,2.238-9.482,2.973c-1.72,0.594-3.73,2.538-4.799,2.123
						c-1.983-0.77,0.174-3.025-1.741-2.716c-2.396,0.386-4.091,0.577-5.785,0.672c1.822-1.187,3.669-2.438,5.533-3.754
						c3.766-2.659,10.507-4.903,14.332-8.113c6.611-5.55,10.287-12.631,16.455-19.966c4.693-5.581,16.862-10.208,20.626-16.895
						c4.797-8.527,0.33-5.334,2.851-15.798c3.518-14.589,4.72-12.381,2.194-28.193c-1.9-11.896,3.311-43.477-21.483-70.025
						C226.453,16.802,187.309,9.32,164.817,6.016c3.508-1.042,7.101-1.889,10.765-2.526C176.805,3.277,174.098-1.657,178.985-3.094"
						/>
				</g>
				<g id="g366" transform="translate(315.061,237.918)">
					<path id="path368" fill="#BD923E" d="M178.985-3.094l44.223,13.286c0,0,0.885-12.235-5.833-18.634
						c-1.409-1.341-4.092-3.357-6.242-4.298c-2.388-1.046-3.036-2.18-6.543-2.422c-2.599-0.18-10.803,0.086-12.964,0.648
						C181.1-11.782,178.985-3.094,178.985-3.094"/>
				</g>
				<g id="g370" transform="translate(334.1675,272.9429)">
					<path id="path372" fill="#FFDA91" d="M178.985-3.094c12.381,0,22.515-9.586,23.401-21.74c0.042,0.573,1.688,0.944,1.819,1.512
						c1.218,5.306-0.753,12.04-4.491,15.918c-3.568,3.703-9.268,5.216-14.437,6.437c-2.022,0.478-6.793,1.336-8.873,1.336
						c-12.963,0-20.527-12.62-20.527-25.584c0-0.583,2.568,0.954,2.609,0.381C159.373-12.68,166.605-3.094,178.985-3.094"/>
				</g>
				<g id="g374" transform="translate(360.1587,251.2026)">
					<path id="path376" fill="#EDB54B" d="M178.985-3.094c0-8.833-5.002-15.915-12.912-20.062c-1.631-0.856-3.404-2.96-5.165-3.474
						c-2.28-0.666-5.554-0.409-7.914-0.41c-13.015,0-23.566,10.551-23.566,23.566s10.551,23.566,23.566,23.566
						C166.008,20.092,178.985,9.921,178.985-3.094"/>
				</g>
				<g id="g378" transform="translate(332.2798,269.209)">
					<path id="path380" fill="#BD923E" d="M178.985-3.094c2.783,0.722,10.5,0.216,13.879-2.158
						c4.99-3.503,8.888-3.379,11.431-10.413c-0.096,0.503-0.491,2.05-0.656,2.543C200.59-4.03,187.243,3.266,175.184-0.048
						c-12.057-3.315-19.347-15.045-16.281-26.2c0.139-0.502,0.301-0.991,0.475-1.472c-0.918,4.788-0.577,10.001,2.388,13.767
						c0.832,1.057,3.5,3.827,4.49,4.746c1.293,1.203,4.393,1.599,5.825,2.517C174.353-5.232,176.845-3.649,178.985-3.094"/>
				</g>
				<g id="g382" transform="translate(331.2173,231.9863)">
					<path id="path384" fill="#FECC61" d="M178.985-3.094c-8.069,0.742-15.528,7.018-15.317,6.709
						c3.467-5.068,9.233-9.331,18.391-9.74c1.156-0.052,5.796-0.508,6.959-0.167c1.791,0.525,2.854,1.957,3.429,2.315
						c2.987,1.861,5.372,2.871,6.941,4.383c3.593,3.463,4.342,8.103,4.665,13.206c0.025,0.372-2.761-6.31-7.316-9.094
						C193.702-2.92,186.181-3.755,178.985-3.094"/>
				</g>
				<g id="g386" transform="translate(378.5454,190.6274)">
					<path id="path388" fill="#BD923E" d="M178.985-3.094l23.755,7.137c0,0,0.475-6.573-3.134-10.01
						c-0.756-0.721-2.196-1.804-3.351-2.309c-1.284-0.562-1.631-1.171-3.515-1.3c-1.397-0.097-5.804,0.045-6.965,0.347
						C180.123-7.76,178.985-3.094,178.985-3.094"/>
				</g>
				<g id="g390" transform="translate(388.8081,209.4419)">
					<path id="path392" fill="#FFDA91" d="M178.985-3.094c6.651,0,12.096-5.15,12.571-11.679c0.023,0.308,0.908,0.507,0.978,0.814
						c0.653,2.849-0.405,6.467-2.413,8.55c-1.917,1.989-4.979,2.801-7.755,3.458c-1.087,0.255-3.65,0.716-4.767,0.716
						c-6.963,0-11.027-6.779-11.027-13.742c0-0.312,1.38,0.512,1.402,0.204C168.451-8.244,172.336-3.094,178.985-3.094"/>
				</g>
				<g id="g394" transform="translate(402.77,197.7632)">
					<path id="path396" fill="#EDB54B" d="M178.985-3.094c0-4.745-2.686-8.55-6.936-10.776c-0.875-0.459-1.828-1.59-2.773-1.867
						c-1.226-0.358-2.984-0.219-4.253-0.219c-6.99,0-12.657,5.667-12.657,12.658c0,6.992,5.667,12.659,12.657,12.659
						C172.015,9.361,178.985,3.897,178.985-3.094"/>
				</g>
				<g id="g398" transform="translate(387.7944,207.436)">
					<path id="path400" fill="#BD923E" d="M178.985-3.094c1.495,0.389,5.641,0.115,7.456-1.158c2.68-1.883,4.773-1.817,6.141-5.596
						c-0.052,0.272-0.265,1.102-0.353,1.367c-1.638,4.884-8.807,8.803-15.285,7.024c-6.477-1.782-10.394-8.082-8.746-14.075
						c0.074-0.269,0.162-0.533,0.256-0.791c-0.493,2.573-0.311,5.373,1.282,7.395c0.447,0.568,1.881,2.057,2.412,2.551
						c0.695,0.645,2.359,0.859,3.129,1.351C176.499-4.242,177.836-3.393,178.985-3.094"/>
				</g>
				<g id="g402" transform="translate(387.2241,187.4419)">
					<path id="path404" fill="#FECC61" d="M178.985-3.094c-4.335,0.398-8.342,3.769-8.228,3.603c1.862-2.722,4.959-5.013,9.88-5.232
						c0.62-0.027,3.113-0.273,3.737-0.09c0.963,0.282,1.533,1.051,1.842,1.244c1.605,0.998,2.886,1.541,3.729,2.354
						c1.93,1.861,2.332,4.352,2.507,7.094c0.012,0.199-1.485-3.389-3.931-4.885C186.89-3.002,182.851-3.449,178.985-3.094"/>
				</g>
				<g id="g406" transform="translate(392.7163,256.9287)">
					<path id="path408" fill="#BD923E" d="M178.985-3.094l29.902,5.698c0,0,0.539-7.455-3.554-11.355
						c-0.859-0.818-2.493-2.046-3.803-2.619c-1.455-0.637-1.849-1.328-3.986-1.476c-1.584-0.109-7.499,0.336-8.818,0.678
						C182.313-10.503,178.985-3.094,178.985-3.094"/>
				</g>
				<g id="g410" transform="translate(407.313,275.8745)">
					<path id="path412" fill="#FFDA91" d="M178.985-3.094c7.546,0,13.721-5.842,14.261-13.249c0.026,0.35-0.068,1.789,0.013,2.136
						c0.742,3.233-2.847,6.522-4.468,8.691c-2.153,2.882-4.958,3.331-8.107,4.075c-1.234,0.291-4.252-0.501-5.489-0.773
						c-7.208-1.582-12.529-6.229-12.529-14.128c0-0.356,3.802,0.349,3.829-0.001C167.035-8.936,171.442-3.094,178.985-3.094"/>
				</g>
				<g id="g414" transform="translate(423.1528,262.626)">
					<path id="path416" fill="#EDB54B" d="M178.985-3.094c0-5.383-3.049-9.698-7.868-12.226c-0.993-0.521-2.075-1.803-3.148-2.117
						c-1.39-0.406-3.384-0.249-4.824-0.249c-7.93,0-16.324,6.414-16.324,14.345c0,7.932,8.394,14.376,16.324,14.376
						C171.078,11.035,178.985,4.837,178.985-3.094"/>
				</g>
				<g id="g418" transform="translate(406.1636,273.5986)">
					<path id="path420" fill="#BD923E" d="M178.985-3.094c1.695,0.44,6.398,0.132,8.458-1.314c3.04-2.135,3.166,1.413,4.717-2.873
						c-0.059,0.306,1.949-2.224,1.849-1.923c-1.858,5.54-9.992,9.986-17.339,7.966c-7.348-2.019-15.739-10.327-9.922-15.965
						c0.227-0.221-0.636,3.681-0.53,3.387c-0.559,2.918,1.351,4.354,3.159,6.648c0.505,0.644,1.945,1.063,2.546,1.623
						c0.789,0.733,2.95,1.273,3.823,1.832C177.131-2.824,177.681-3.432,178.985-3.094"/>
				</g>
				<g id="g422" transform="translate(415.5688,253.6797)">
					<path id="path424" fill="#FECC61" d="M178.985-3.094c3.934,2.885,5.843,8.483,5.827,8.254
						c-0.221-3.729-1.876-7.747-6.474-10.795c-0.582-0.384-2.832-2.059-3.539-2.239c-1.085-0.28-2.076,0.144-2.484,0.153
						c-2.115,0.052-3.658-0.156-4.935,0.152c-2.924,0.704-4.748,2.905-6.492,5.482c-0.13,0.186,3.376-2.455,6.585-2.507
						C171.341-7.555,175.479-5.666,178.985-3.094"/>
				</g>
				<g id="g426" transform="translate(272.9233,252.6997)">
					<path id="path428" fill="#BD923E" d="M178.985-3.094l17.034,5.118c0,0,0.342-4.713-2.246-7.178
						c-0.543-0.517-1.576-1.294-2.404-1.656c-0.92-0.403-1.169-0.839-2.521-0.933c-1.001-0.069-4.162,0.033-4.995,0.25
						C179.799-6.441,178.985-3.094,178.985-3.094"/>
				</g>
				<g id="g430" transform="translate(280.2817,266.1914)">
					<path id="path432" fill="#FFDA91" d="M178.985-3.094c4.771,0,8.674-3.692,9.016-8.375c0.016,0.221,0.65,0.364,0.701,0.583
						c0.469,2.044-0.291,4.638-1.731,6.132c-1.375,1.427-3.57,2.009-5.56,2.48c-0.78,0.184-2.617,0.514-3.419,0.514
						c-4.993,0-7.907-4.861-7.907-9.855c0-0.224,0.988,0.367,1.005,0.146C171.431-6.786,174.217-3.094,178.985-3.094"/>
				</g>
				<g id="g434" transform="translate(290.2954,257.8169)">
					<path id="path436" fill="#EDB54B" d="M178.985-3.094c0-3.402-1.927-6.131-4.975-7.729c-0.628-0.329-1.31-1.14-1.989-1.337
						c-0.878-0.257-2.14-0.158-3.05-0.158c-5.011,0-9.076,4.064-9.076,9.078c0,5.013,4.065,9.077,9.076,9.077
						C173.987,5.837,178.985,1.92,178.985-3.094"/>
				</g>
				<g id="g438" transform="translate(279.5552,264.7534)">
					<path id="path440" fill="#BD923E" d="M178.985-3.094c1.072,0.278,4.045,0.083,5.347-0.832c1.923-1.349,3.423-1.301,4.403-4.011
						c-0.036,0.194-0.188,0.79-0.252,0.98c-1.175,3.503-6.316,6.313-10.961,5.036s-7.453-5.795-6.272-10.092
						c0.053-0.194,0.116-0.382,0.182-0.568c-0.353,1.845-0.222,3.853,0.921,5.303c0.32,0.408,1.349,1.475,1.729,1.829
						c0.499,0.463,1.692,0.616,2.244,0.97C177.202-3.918,178.161-3.308,178.985-3.094"/>
				</g>
				<g id="g442" transform="translate(279.146,250.4146)">
					<path id="path444" fill="#FECC61" d="M178.985-3.094c-3.108,0.286-5.981,2.703-5.899,2.584
						c1.335-1.952,3.555-3.594,7.084-3.751c0.445-0.02,2.232-0.197,2.679-0.065c0.692,0.202,1.1,0.754,1.322,0.892
						c1.151,0.716,2.07,1.106,2.674,1.689c1.383,1.333,1.672,3.12,1.798,5.087c0.009,0.143-1.065-2.432-2.819-3.504
						C184.655-3.027,181.757-3.348,178.985-3.094"/>
				</g>
				<g id="g446" transform="translate(288.0532,301.9258)">
					<path id="path448" fill="#BD923E" d="M178.985-3.094l23.446,4.322c0,0,0.47-3.981-3.092-6.062
						c-0.747-0.437-2.168-1.093-3.309-1.399c-1.266-0.34-1.609-0.709-3.469-0.788c-1.378-0.058-5.728,0.029-6.875,0.211
						C180.106-5.921,178.985-3.094,178.985-3.094"/>
				</g>
				<g id="g450" transform="translate(298.1821,313.3203)">
					<path id="path452" fill="#FFDA91" d="M178.985-3.094c6.564,0,11.939-3.119,12.408-7.073c0.024,0.187,0.896,0.307,0.965,0.492
						c0.646,1.727-0.399,3.917-2.382,5.179c-1.891,1.205-4.913,1.697-7.654,2.095c-1.072,0.155-3.602,0.434-4.704,0.434
						c-6.873,0-10.884-4.106-10.884-8.323c0-0.191,1.361,0.31,1.384,0.123C168.589-6.213,172.423-3.094,178.985-3.094"/>
				</g>
				<g id="g454" transform="translate(311.9644,306.2471)">
					<path id="path456" fill="#EDB54B" d="M178.985-3.094c0-2.873-2.653-5.178-6.847-6.527c-0.863-0.278-1.804-0.963-2.738-1.13
						c-1.209-0.217-2.945-0.133-4.197-0.133c-6.899,0-12.493,3.433-12.493,7.667s5.594,7.667,12.493,7.667
						C172.105,4.45,178.985,1.141,178.985-3.094"/>
				</g>
				<g id="g458" transform="translate(297.1821,312.1055)">
					<path id="path460" fill="#BD923E" d="M178.985-3.094c1.476,0.235,5.567,0.07,7.359-0.701c2.645-1.141,4.712-1.1,6.061-3.389
						c-0.051,0.164-0.26,0.667-0.348,0.828c-1.617,2.958-8.693,5.332-15.086,4.253c-6.393-1.078-10.259-4.894-8.633-8.524
						c0.073-0.163,0.16-0.322,0.252-0.479c-0.488,1.558-0.306,3.254,1.266,4.479c0.441,0.344,1.857,1.245,2.38,1.545
						c0.687,0.391,2.33,0.52,3.089,0.819C176.53-3.789,177.851-3.274,178.985-3.094"/>
				</g>
				<g id="g462" transform="translate(296.6187,299.9956)">
					<path id="path464" fill="#FECC61" d="M178.985-3.094c-4.278,0.241-8.232,2.283-8.12,2.183c1.838-1.649,4.894-3.036,9.751-3.169
						c0.612-0.017,3.073-0.165,3.688-0.055c0.95,0.171,1.514,0.637,1.819,0.754c1.584,0.605,2.848,0.934,3.68,1.426
						c1.906,1.126,2.303,2.636,2.474,4.296c0.014,0.121-1.465-2.053-3.879-2.959C186.789-3.037,182.801-3.309,178.985-3.094"/>
				</g>
				<g id="g466" transform="translate(365.7056,310.6768)">
					<path id="path468" fill="#BD923E" d="M178.985-3.094l26.696,3.349c0,0-2.378-9.314-12.856-9.481
						C183.613-9.373,178.985-3.094,178.985-3.094"/>
				</g>
				<g id="g470" transform="translate(389.1401,309.2837)">
					<path id="path472" fill="#BD923E" d="M178.985-3.094l-8.817,17.737c0,0,10.697,1.135,12.897-6.174
						C184.999,2.046,178.985-3.094,178.985-3.094"/>
				</g>
				<g id="g474" transform="translate(376.4907,327.8403)">
					<path id="path476" fill="#FFDA91" d="M178.985-3.094c6.828,0,12.418-4.757,12.908-10.789c0.023,0.284,1.344,0.912,1.344,1.201
						c0,5.362-4.35,9.285-10.133,10.562c-1.155,0.255-4.062,1.011-5.253,1.011c-2.725,0-4.919-2.013-7.005-3.308
						c-3.385-2.1-4.807-4.626-4.807-8.607c0-0.289,0.015-0.575,0.039-0.859C166.567-7.851,172.157-3.094,178.985-3.094"/>
				</g>
				<g id="g478" transform="translate(393.3335,317.0513)">
					<path id="path480" fill="#EDB54B" d="M178.985-3.094c0-6.459-7.815-11.884-15.653-11.884S149.14-9.742,149.14-3.282
						c0,4.844,3.017,8.794,8.112,10.569c0.787,0.275,2.121,0.161,2.974,0.316c0.986,0.178,2.057,0.809,3.106,0.809
						C171.17,8.412,178.985,3.365,178.985-3.094"/>
				</g>
				<g id="g482" transform="translate(374.7349,325.1558)">
					<path id="path484" fill="#BD923E" d="M178.985-3.094c1.272,0.274,2.581,0.912,4.125,0.895
						c4.629-0.049,10.385-2.341,11.945-5.858c-0.053,0.231-0.274,0.94-0.367,1.167c-1.447,3.523-7.101,6.429-12.979,6.294
						c-1.075-0.025-2.009-0.582-3.075-0.825c-0.998-0.227-2.083-0.104-2.958-0.479c-5.17-2.222-8.031-6.82-6.563-11.196
						c0.078-0.23,0.17-0.454,0.267-0.675c-0.608,2.622,0.484,5.624,2.794,7.525C174.184-4.592,176.809-3.562,178.985-3.094"/>
				</g>
				<g id="g486" transform="translate(384.9185,309.5273)">
					<path id="path488" fill="#FECC61" d="M178.985-3.094c4.464,2.131,7.561,6.68,7.496,6.491c-1.176-3.502-5.801-8.548-12.232-9.53
						c-6.433-0.982-9.267,0.09-12.765,4.244c-0.121,0.144,3.264-2.74,5.983-1.625C170.565-6.275,175.005-4.994,178.985-3.094"/>
				</g>
				<g id="g490" transform="translate(309.981,192.4722)">
					<path id="path492" fill="#BD923E" d="M178.985-3.094L200.467-0.4c0,0-1.913-7.494-10.345-7.629
						C182.71-8.146,178.985-3.094,178.985-3.094"/>
				</g>
				<g id="g494" transform="translate(328.8384,191.3521)">
					<path id="path496" fill="#BD923E" d="M178.985-3.094l-7.096,14.271c0,0,8.61,0.915,10.379-4.966
						C183.825,1.041,178.985-3.094,178.985-3.094"/>
				</g>
				<g id="g498" transform="translate(318.6597,206.2837)">
					<path id="path500" fill="#FFDA91" d="M178.985-3.094c5.495,0,9.992-3.828,10.388-8.682c0.017,0.229,1.081,0.733,1.081,0.967
						c0,4.315-3.501,7.471-8.154,8.498c-0.929,0.205-3.269,0.815-4.227,0.815c-2.193,0-3.958-1.621-5.637-2.662
						c-2.724-1.691-3.868-3.723-3.868-6.926c0-0.234,0.013-0.463,0.031-0.692C168.992-6.922,173.49-3.094,178.985-3.094"/>
				</g>
				<g id="g502" transform="translate(332.2134,197.6021)">
					<path id="path504" fill="#EDB54B" d="M178.985-3.094c0-5.197-6.289-9.563-12.596-9.563s-11.42,4.213-11.42,9.411
						c0,3.898,2.427,7.076,6.527,8.506c0.634,0.22,1.708,0.129,2.393,0.253c0.793,0.144,1.656,0.652,2.5,0.652
						C172.696,6.165,178.985,2.103,178.985-3.094"/>
				</g>
				<g id="g506" transform="translate(317.2466,204.1235)">
					<path id="path508" fill="#BD923E" d="M178.985-3.094c1.023,0.221,2.078,0.732,3.32,0.721c3.725-0.039,8.358-1.885,9.612-4.715
						c-0.043,0.185-0.22,0.757-0.295,0.939c-1.164,2.835-5.715,5.174-10.445,5.065c-0.864-0.02-1.618-0.469-2.473-0.663
						c-0.803-0.183-1.677-0.085-2.381-0.387c-4.161-1.787-6.461-5.487-5.281-9.009c0.062-0.185,0.135-0.365,0.214-0.543
						c-0.488,2.11,0.389,4.526,2.249,6.055C175.123-4.299,177.234-3.471,178.985-3.094"/>
				</g>
				<g id="g510" transform="translate(325.4419,191.5474)">
					<path id="path512" fill="#FECC61" d="M178.985-3.094c3.592,1.715,6.084,5.375,6.033,5.224c-0.947-2.82-4.668-6.88-9.845-7.669
						c-5.176-0.79-7.456,0.072-10.271,3.414c-0.097,0.116,2.626-2.205,4.814-1.307C172.21-5.655,175.782-4.623,178.985-3.094"/>
				</g>
			</g>
		</g>
	</g>
</g>
</svg>
